{
.appVersion = "3151";
.formatVersion = 3;
axes = (
{
name = Weight;
tag = wght;
}
);
customParameters = (
{
name = panose;
value = (
0,
0,
5,
0,
0,
0,
0,
0,
0,
0
);
},
{
name = unicodeRanges;
value = (
0,
1,
2
);
},
{
name = codePageRanges;
value = (
"1252",
"1250",
"1254",
"1257",
"bit 29"
);
},
{
name = blueScale;
value = 0.037;
}
);
date = "2021-03-04 17:58:23 +0000";
familyName = "Rethink Sans";
featurePrefixes = (
{
code = "lookup SUB_6 {
	sub L periodcentered by Ldot;
	sub l periodcentered by ldot;
} SUB_6;
";
name = Prefix;
}
);
features = (
{
code = "feature locl;
feature frac;
";
tag = aalt;
},
{
automatic = 1;
code = "lookup locl_latn_0 {
	script latn;
	language CAT;
	sub  l' periodcentered' l by ldot;
	sub  L' periodcentered' L by Ldot;
} locl_latn_0;
";
tag = locl;
},
{
automatic = 1;
code = "lookup FRAC {
	sub slash by fraction;
} FRAC;
lookup UP {
	sub [zero one two three four five six seven eight nine] by [zero.numr one.numr two.numr three.numr four.numr five.numr six.numr seven.numr eight.numr nine.numr];
} UP;
lookup DOWN {
	sub fraction [zero.numr one.numr two.numr three.numr four.numr five.numr six.numr seven.numr eight.numr nine.numr]' by [zero.dnom one.dnom two.dnom three.dnom four.dnom five.dnom six.dnom seven.dnom eight.dnom nine.dnom];
	sub [zero.dnom one.dnom two.dnom three.dnom four.dnom five.dnom six.dnom seven.dnom eight.dnom nine.dnom] [zero.numr one.numr two.numr three.numr four.numr five.numr six.numr seven.numr eight.numr nine.numr]' by [zero.dnom one.dnom two.dnom three.dnom four.dnom five.dnom six.dnom seven.dnom eight.dnom nine.dnom];
} DOWN;
";
tag = frac;
},
{
code = "lookupflag IgnoreMarks;
sub f i by fi;
sub f l by fl;
sub R less by Ya-cy;
sub R E less by REbackwards;
sub E less by uni018E;
sub registered plus by registered.case;
sub R greater by RethinkWordmark;
sub parenleft R parenright by Rlogobig;
sub parenleft one parenright by uni2780;
sub parenleft two parenright by uni2781;
sub parenleft three parenright by uni2782;

glyphs = (
{
glyphname = A;
kernLeft = A;
kernRight = A;
lastChange = "2023-01-20 00:40:25 +0000";
layers = (
{
anchors = (
{
name = bottom;
pos = (288,0);
},
{
name = ogonek;
pos = (590,0);
},
{
name = top;
pos = (412,700);
}
);
hints = (
{
horizontal = 1;
place = (180, 66);
place = (180, 66);
type = Stem;
},
{
place = (-14, 604);
place = (-14, 604);
type = Stem;
}
);
layerId = m01;
shapes = (
{
closed = 1;
nodes = (
(76,0,l),
(172,180,l),
(470,180,l),
(503,0,l),
(590,0,l),
(457,700,l),
(368,700,l),
(-14,0,l)
);
},
{
closed = 1;
nodes = (
(394,600,l),
(458,246,l),
(207,246,l)
);
}
);
width = 664;
},
{
anchors = (
{
name = bottom;
pos = (307,0);
},
{
name = ogonek;
pos = (635,0);
},
{
name = top;
pos = (431,700);
}
);
hints = (
{
horizontal = 1;
place = (162, 98);
place = (162, 98);
type = Stem;
},
{
place = (-21, 656);
place = (-21, 656);
type = Stem;
}
);
layerId = "C673E357-C9AB-4A21-92F5-E812FFC50395";
shapes = (
{
closed = 1;
nodes = (
(114,0,l),
(199,162,l),
(472,162,l),
(500,0,l),
(635,0,l),
(503,700,l),
(358,700,l),
(-21,0,l)
);
},
{
closed = 1;
nodes = (
(405,556,l),
(456,260,l),
(250,260,l)
);
}
);
width = 701;
}
);
note = A;
unicode = 65;
},
{
glyphname = AE;
kernLeft = AE;
lastChange = "2023-01-07 01:40:55 +0000";
layers = (
{
anchors = (
{
name = bottom;
pos = (415,0);
},
{
name = top;
pos = (539,700);
}
);
hints = (
{
horizontal = 1;
place = (0, 226);
place = (0, 226);
type = Stem;
},
{
horizontal = 1;
place = (320, 66);
place = (320, 66);
type = Stem;
},
{
horizontal = 1;
place = (633, 67);
place = (633, 67);
type = Stem;
},
{
place = (-14, 948);
place = (-14, 948);
type = Stem;
},
{
horizontal = 1;
place = (0, 67);
place = (0, 67);
type = Stem;
},
{
horizontal = 1;
place = (159, 67);
place = (159, 67);
type = Stem;
}
);
layerId = m01;
shapes = (
{
closed = 1;
nodes = (
(78,0,l),
(197,159,l),
(465,159,l),
(437,0,l),
(810,0,l),
(822,67,l),
(534,67,l),
(578,320,l),
(837,320,l),
(848,386,l),
(589,386,l),
(633,633,l),
(922,633,l),
(934,700,l),
(509,700,l),
(-14,0,l)
);
},
{
closed = 1;
nodes = (
(549,631,l),
(477,226,l),
(246,226,l)
);
}
);
width = 917;
},
{
anchors = (
{
name = bottom;
pos = (429,0);
},
{
name = top;
pos = (553,700);
}
);
hints = (
{
horizontal = 1;
place = (0, 101);
place = (0, 101);
type = Stem;
},
{
horizontal = 1;
place = (138, 99);
place = (138, 99);
type = Stem;
},
{
horizontal = 1;
place = (306, 99);
place = (306, 99);
type = Stem;
},
{
horizontal = 1;
place = (599, 101);
place = (599, 101);
type = Stem;
},
{
place = (-21, 986);
place = (-21, 986);
type = Stem;
}
);
layerId = "C673E357-C9AB-4A21-92F5-E812FFC50395";
shapes = (
{
closed = 1;
nodes = (
(118,0,l),
(218,138,l),
(467,138,l),
(442,0,l),
(841,0,l),
(859,101,l),
(589,101,l),
(625,306,l),
(866,306,l),
(883,405,l),
(641,405,l),
(676,599,l),
(947,599,l),
(965,700,l),
(482,700,l),
(-21,0,l)
);
},
{
closed = 1;
nodes = (
(549,602,l),
(484,237,l),
(288,237,l)
);
}
);
width = 945;
}
);
note = AE;
unicode = 198;
},
{
glyphname = B;
lastChange = "2023-01-20 00:40:50 +0000";
layers = (
{
hints = (
{
horizontal = 1;
place = (0, 68);
place = (0, 68);
type = Stem;
},
{
horizontal = 1;
place = (327, 66);
place = (327, 66);
type = Stem;
},
{
horizontal = 1;
place = (633, 67);
place = (633, 67);
type = Stem;
},
{
place = (465, 83);
place = (465, 83);
type = Stem;
},
{
place = (503, 88);
place = (503, 88);
type = Stem;
}
);
layerId = m01;
shapes = (
{
closed = 1;
nodes = (
(295,0,ls),
(447,0,o),
(533,83,o),
(553,199,cs),
(568,284,o),
(532,348,o),
(445,377,c),
(508,395,o),
(566,451,o),
(580,529,cs),
(597,630,o),
(528,700,o),
(396,700,cs),
(155,700,l),
(31,0,l)
);
},
{
closed = 1;
nodes = (
(175,339,l),
(327,339,ls),
(423,339,o),
(486,298,o),
(469,204,cs),
(453,111,o),
(385,70,o),
(282,70,cs),
(128,70,l)
);
},
{
closed = 1;
nodes = (
(226,630,l),
(374,630,ls),
(465,630,o),
(505,588,o),
(493,518,cs),
(481,450,o),
(424,406,o),
(338,406,cs),
(187,406,l)
);
}
);
width = 609;
},
{
hints = (
{
horizontal = 1;
place = (0, 102);
place = (0, 102);
type = Stem;
},
{
horizontal = 1;
place = (310, 95);
place = (310, 95);
type = Stem;
},
{
horizontal = 1;
place = (599, 101);
place = (599, 101);
type = Stem;
},
{
place = (454, 128);
place = (454, 128);
type = Stem;
},
{
place = (489, 135);
place = (489, 135);
type = Stem;
}
);
layerId = "C673E357-C9AB-4A21-92F5-E812FFC50395";
shapes = (
{
closed = 1;
nodes = (
(315,0,ls),
(462,0,o),
(560,86,o),
(580,197,cs),
(595,280,o),
(547,349,o),
(481,375,c),
(542,399,o),
(592,447,o),
(606,524,cs),
(624,629,o),
(558,700,o),
(413,700,cs),
(148,700,l),
(24,0,l)
);
},
{
closed = 1;
nodes = (
(207,311,l),
(356,311,ls),
(431,311,o),
(464,275,o),
(452,210,cs),
(441,144,o),
(399,109,o),
(323,109,cs),
(172,109,l)
);
},
{
closed = 1;
nodes = (
(256,591,l),
(380,591,ls),
(456,591,o),
(481,561,o),
(472,506,cs),
(461,448,o),
(424,420,o),
(352,420,cs),
(226,420,l)
);
}
);
width = 638;
}
);
note = B;
unicode = 66;
},
{
glyphname = C;
kernLeft = C;
kernRight = C;
lastChange = "2023-01-19 02:03:05 +0000";
layers = (
{
anchors = (
{
name = bottom;
pos = (317,0);
},
{
name = top;
pos = (441,700);
}
);
background = {
anchors = (
{
name = bottom;
pos = (317,0);
},
{
name = top;
pos = (441,700);
}
);
hints = (
{
horizontal = 1;
place = (-12, 74);
place = (-12, 74);
type = Stem;
},
{
horizontal = 1;
place = (638, 74);
place = (638, 74);
type = Stem;
},
{
place = (59, 88);
place = (59, 88);
type = Stem;
}
);
shapes = (
{
closed = 1;
nodes = (
(498,-12,o),
(615,67,o),
(667,203,c),
(572,203,l),
(537,116,o),
(463,62,o),
(351,62,cs),
(223,62,o),
(147,140,o),
(147,275,cs),
(147,378,o),
(179,468,o),
(234,534,cs),
(289,600,o),
(364,638,o),
(451,638,cs),
(563,638,o),
(620,583,o),
(623,494,c),
(718,494,l),
(714,631,o),
(623,712,o),
(463,712,cs),
(348,712,o),
(248,665,o),
(175,585,cs),
(102,504,o),
(59,393,o),
(59,268,cs),
(59,212,o),
(70,163,o),
(92,121,cs),
(136,37,o),
(220,-12,o),
(339,-12,cs)
);
}
);
};
hints = (
{
horizontal = 1;
place = (-12, 74);
place = (-12, 74);
type = Stem;
},
{
horizontal = 1;
place = (638, 74);
place = (638, 74);
type = Stem;
},
{
place = (59, 88);
place = (59, 88);
type = Stem;
}
);
layerId = m01;
shapes = (
{
closed = 1;
nodes = (
(498,-12,o),
(615,67,o),
(667,203,c),
(572,203,l),
(537,116,o),
(463,62,o),
(351,62,cs),
(223,62,o),
(147,140,o),
(147,275,cs),
(147,470,o),
(268,638,o),
(451,638,cs),
(563,638,o),
(620,583,o),
(623,494,c),
(718,494,l),
(714,631,o),
(623,712,o),
(463,712,cs),
(227,712,o),
(59,514,o),
(59,268,cs),
(59,132,o),
(132,-12,o),
(339,-12,cs)
);
}
);
width = 722;
},
{
anchors = (
{
name = bottom;
pos = (326,0);
},
{
name = top;
pos = (450,700);
}
);
background = {
anchors = (
{
name = bottom;
pos = (326,0);
},
{
name = top;
pos = (450,700);
}
);
hints = (
{
horizontal = 1;
place = (-12, 115);
place = (-12, 115);
type = Stem;
},
{
horizontal = 1;
place = (596, 116);
place = (596, 116);
type = Stem;
},
{
place = (57, 132);
place = (57, 132);
type = Stem;
}
);
shapes = (
{
closed = 1;
nodes = (
(508,-12,o),
(636,73,o),
(689,218,c),
(547,218,l),
(516,145,o),
(454,103,o),
(362,103,cs),
(253,103,o),
(189,170,o),
(189,283,cs),
(189,342,o),
(200,396,o),
(223,443,cs),
(268,538,o),
(348,596,o),
(447,596,cs),
(539,596,o),
(589,551,o),
(592,474,c),
(734,474,l),
(733,625,o),
(635,712,o),
(467,712,cs),
(350,712,o),
(249,665,o),
(175,585,cs),
(101,505,o),
(57,394,o),
(57,269,cs),
(57,213,o),
(68,164,o),
(91,122,cs),
(135,38,o),
(221,-12,o),
(341,-12,cs)
);
}
);
};
hints = (
{
horizontal = 1;
place = (-12, 115);
place = (-12, 115);
type = Stem;
},
{
horizontal = 1;
place = (596, 116);
place = (596, 116);
type = Stem;
},
{
place = (57, 132);
place = (57, 132);
type = Stem;
}
);
layerId = "C673E357-C9AB-4A21-92F5-E812FFC50395";
shapes = (
{
closed = 1;
nodes = (
(508,-12,o),
(636,73,o),
(689,218,c),
(547,218,l),
(516,145,o),
(454,103,o),
(362,103,cs),
(253,103,o),
(189,170,o),
(189,283,cs),
(189,424,o),
(270,596,o),
(447,596,cs),
(539,596,o),
(589,551,o),
(592,474,c),
(734,474,l),
(733,625,o),
(635,712,o),
(467,712,cs),
(229,712,o),
(57,515,o),
(57,269,cs),
(57,131,o),
(135,-12,o),
(341,-12,cs)
);
}
);
width = 739;
}
);
note = C;
unicode = 67;
},
{
glyphname = D;
kernRight = D;
lastChange = "2023-01-19 01:56:56 +0000";
layers = (
{
anchors = (
{
name = bottom;
pos = (307,0);
},
{
name = center;
pos = (369,350);
},
{
name = top;
pos = (431,700);
}
);
background = {
anchors = (
{
name = bottom;
pos = (307,0);
},
{
name = center;
pos = (369,350);
},
{
name = top;
pos = (431,700);
}
);
hints = (
{
horizontal = 1;
place = (0, 70);
place = (0, 70);
type = Stem;
},
{
horizontal = 1;
place = (630, 70);
place = (630, 70);
type = Stem;
},
{
place = (589, 87);
place = (589, 87);
type = Stem;
}
);
shapes = (
{
closed = 1;
nodes = (
(31,0,l),
(246,0,ls),
(333,0,o),
(409,18,o),
(474,53,cs),
(602,124,o),
(676,253,o),
(676,417,cs),
(676,598,o),
(580,700,o),
(369,700,cs),
(154,700,l)
);
},
{
closed = 1;
nodes = (
(127,70,l),
(226,630,l),
(355,630,ls),
(522,630,o),
(589,554,o),
(589,411,cs),
(589,342,o),
(576,282,o),
(550,231,cs),
(497,129,o),
(396,70,o),
(257,70,cs)
);
}
);
};
hints = (
{
horizontal = 1;
place = (0, 70);
place = (0, 70);
type = Stem;
},
{
horizontal = 1;
place = (630, 70);
place = (630, 70);
type = Stem;
},
{
place = (589, 87);
place = (589, 87);
type = Stem;
}
);
layerId = m01;
shapes = (
{
closed = 1;
nodes = (
(31,0,l),
(246,0,ls),
(475,0,o),
(676,139,o),
(676,417,cs),
(676,598,o),
(580,700,o),
(369,700,cs),
(154,700,l)
);
},
{
closed = 1;
nodes = (
(127,70,l),
(226,630,l),
(355,630,ls),
(522,630,o),
(589,554,o),
(589,411,cs),
(589,232,o),
(492,70,o),
(257,70,cs)
);
}
);
width = 701;
},
{
anchors = (
{
name = bottom;
pos = (314,0);
},
{
name = center;
pos = (376,350);
},
{
name = top;
pos = (438,700);
}
);
background = {
anchors = (
{
name = bottom;
pos = (314,0);
},
{
name = center;
pos = (376,350);
},
{
name = top;
pos = (438,700);
}
);
hints = (
{
horizontal = 1;
place = (0, 110);
place = (0, 110);
type = Stem;
},
{
horizontal = 1;
place = (591, 109);
place = (591, 109);
type = Stem;
},
{
place = (561, 132);
place = (561, 132);
type = Stem;
}
);
shapes = (
{
closed = 1;
nodes = (
(25,0,l),
(264,0,ls),
(351,0,o),
(426,18,o),
(490,53,cs),
(618,123,o),
(693,252,o),
(693,415,cs),
(693,590,o),
(598,700,o),
(387,700,cs),
(148,700,l)
);
},
{
closed = 1;
nodes = (
(172,110,l),
(257,591,l),
(362,591,ls),
(499,591,o),
(561,529,o),
(561,404,cs),
(561,344,o),
(550,292,o),
(528,248,cs),
(484,160,o),
(398,110,o),
(277,110,cs)
);
}
);
};
hints = (
{
horizontal = 1;
place = (0, 110);
place = (0, 110);
type = Stem;
},
{
horizontal = 1;
place = (591, 109);
place = (591, 109);
type = Stem;
},
{
place = (561, 132);
place = (561, 132);
type = Stem;
}
);
layerId = "C673E357-C9AB-4A21-92F5-E812FFC50395";
shapes = (
{
closed = 1;
nodes = (
(25,0,l),
(264,0,ls),
(471,0,o),
(693,124,o),
(693,415,cs),
(693,590,o),
(598,700,o),
(387,700,cs),
(148,700,l)
);
},
{
closed = 1;
nodes = (
(172,110,l),
(257,591,l),
(362,591,ls),
(499,591,o),
(561,529,o),
(561,404,cs),
(561,252,o),
(484,110,o),
(277,110,cs)
);
}
);
width = 716;
}
);
note = D;
unicode = 68;
},
{
glyphname = Eth;
kernRight = D;
lastChange = "2023-01-07 01:40:55 +0000";
layers = (
{
hints = (
{
horizontal = 1;
place = (0, 70);
place = (0, 70);
type = Stem;
},
{
horizontal = 1;
place = (311, 76);
place = (311, 76);
type = Stem;
},
{
horizontal = 1;
place = (630, 70);
place = (630, 70);
type = Stem;
},
{
place = (604, 87);
place = (604, 87);
type = Stem;
}
);
layerId = m01;
shapes = (
{
closed = 1;
nodes = (
(46,0,l),
(261,0,ls),
(348,0,o),
(424,18,o),
(489,53,cs),
(617,124,o),
(691,253,o),
(691,417,cs),
(691,598,o),
(595,700,o),
(384,700,cs),
(169,700,l),
(114,387,l),
(27,387,l),
(14,311,l),
(101,311,l)
);
},
{
closed = 1;
nodes = (
(143,70,l),
(185,311,l),
(386,311,l),
(399,387,l),
(198,387,l),
(241,630,l),
(370,630,ls),
(537,630,o),
(604,554,o),
(604,411,cs),
(604,342,o),
(591,282,o),
(565,231,cs),
(512,129,o),
(412,70,o),
(272,70,cs)
);
}
);
width = 716;
},
{
hints = (
{
horizontal = 1;
place = (0, 110);
place = (0, 110);
type = Stem;
},
{
horizontal = 1;
place = (295, 110);
place = (295, 110);
type = Stem;
},
{
horizontal = 1;
place = (591, 109);
place = (591, 109);
type = Stem;
},
{
place = (568, 131);
place = (568, 131);
type = Stem;
}
);
layerId = "C673E357-C9AB-4A21-92F5-E812FFC50395";
shapes = (
{
closed = 1;
nodes = (
(31,0,l),
(271,0,ls),
(357,0,o),
(432,18,o),
(497,53,cs),
(625,123,o),
(699,252,o),
(699,415,cs),
(699,590,o),
(603,700,o),
(394,700,cs),
(154,700,l),
(103,405,l),
(28,405,l),
(9,295,l),
(83,295,l)
);
},
{
closed = 1;
nodes = (
(179,110,l),
(211,295,l),
(388,295,l),
(407,405,l),
(231,405,l),
(264,591,l),
(369,591,ls),
(505,591,o),
(568,529,o),
(568,404,cs),
(568,344,o),
(557,292,o),
(535,248,cs),
(490,160,o),
(404,110,o),
(284,110,cs)
);
}
);
width = 723;
}
);
note = Eth;
unicode = 208;
},
{
glyphname = Dcroat;
kernRight = D;
lastChange = "2023-01-07 01:40:55 +0000";
layers = (
{
hints = (
{
horizontal = 1;
place = (0, 70);
place = (0, 70);
type = Stem;
},
{
horizontal = 1;
place = (311, 76);
place = (311, 76);
type = Stem;
},
{
horizontal = 1;
place = (630, 70);
place = (630, 70);
type = Stem;
},
{
place = (604, 87);
place = (604, 87);
type = Stem;
}
);
layerId = m01;
shapes = (
{
closed = 1;
nodes = (
(46,0,l),
(261,0,ls),
(348,0,o),
(424,18,o),
(489,53,cs),
(617,124,o),
(691,253,o),
(691,417,cs),
(691,598,o),
(595,700,o),
(384,700,cs),
(169,700,l),
(114,387,l),
(27,387,l),
(14,311,l),
(101,311,l)
);
},
{
closed = 1;
nodes = (
(143,70,l),
(185,311,l),
(386,311,l),
(399,387,l),
(198,387,l),
(241,630,l),
(370,630,ls),
(537,630,o),
(604,554,o),
(604,411,cs),
(604,342,o),
(591,282,o),
(565,231,cs),
(512,129,o),
(412,70,o),
(272,70,cs)
);
}
);
width = 716;
},
{
hints = (
{
horizontal = 1;
place = (0, 110);
place = (0, 110);
type = Stem;
},
{
horizontal = 1;
place = (295, 110);
place = (295, 110);
type = Stem;
},
{
horizontal = 1;
place = (591, 109);
place = (591, 109);
type = Stem;
},
{
place = (568, 131);
place = (568, 131);
type = Stem;
}
);
layerId = "C673E357-C9AB-4A21-92F5-E812FFC50395";
shapes = (
{
closed = 1;
nodes = (
(31,0,l),
(271,0,ls),
(357,0,o),
(432,18,o),
(497,53,cs),
(625,123,o),
(699,252,o),
(699,415,cs),
(699,590,o),
(603,700,o),
(394,700,cs),
(154,700,l),
(103,405,l),
(28,405,l),
(9,295,l),
(83,295,l)
);
},
{
closed = 1;
nodes = (
(179,110,l),
(211,295,l),
(388,295,l),
(407,405,l),
(231,405,l),
(264,591,l),
(369,591,ls),
(505,591,o),
(568,529,o),
(568,404,cs),
(568,344,o),
(557,292,o),
(535,248,cs),
(490,160,o),
(404,110,o),
(284,110,cs)
);
}
);
width = 723;
}
);
note = Dcroat;
unicode = 272;
},
{
glyphname = E;
lastChange = "2023-01-19 01:45:39 +0000";
layers = (
{
anchors = (
{
name = bottom;
pos = (227,0);
},
{
name = ogonek;
pos = (435,0);
},
{
name = top;
pos = (351,700);
},
{
name = topleft;
pos = (100,700);
}
);
hints = (
{
horizontal = 1;
place = (0, 67);
place = (0, 67);
type = Stem;
},
{
horizontal = 1;
place = (320, 66);
place = (320, 66);
type = Stem;
},
{
horizontal = 1;
place = (633, 67);
place = (633, 67);
type = Stem;
},
{
place = (31, 528);
place = (31, 528);
type = Stem;
}
);
layerId = m01;
shapes = (
{
closed = 1;
nodes = (
(435,0,l),
(447,69,l),
(126,69,l),
(174,336,l),
(451,336,l),
(463,404,l),
(186,404,l),
(226,631,l),
(547,631,l),
(559,700,l),
(154,700,l),
(30,0,l)
);
}
);
width = 542;
},
{
anchors = (
{
name = bottom;
pos = (239,0);
},
{
name = ogonek;
pos = (463,0);
},
{
name = top;
pos = (363,700);
},
{
name = topleft;
pos = (100,700);
}
);
hints = (
{
horizontal = 1;
place = (0, 101);
place = (0, 101);
type = Stem;
},
{
horizontal = 1;
place = (306, 98);
place = (306, 98);
type = Stem;
},
{
horizontal = 1;
place = (599, 101);
place = (599, 101);
type = Stem;
},
{
place = (24, 557);
place = (24, 557);
type = Stem;
}
);
layerId = "C673E357-C9AB-4A21-92F5-E812FFC50395";
shapes = (
{
closed = 1;
nodes = (
(463,0,l),
(483,109,l),
(172,109,l),
(208,315,l),
(473,315,l),
(492,424,l),
(227,424,l),
(256,591,l),
(567,591,l),
(587,700,l),
(148,700,l),
(24,0,l)
);
}
);
width = 565;
}
);
note = E;
unicode = 69;
},
{
glyphname = Schwa;
kernRight = D;
lastChange = "2023-01-07 01:41:50 +0000";
layers = (
{
background = {
hints = (
{
horizontal = 1;
place = (-12, 76);
place = (-12, 76);
type = Stem;
},
{
horizontal = 1;
place = (304, 71);
place = (304, 71);
type = Stem;
},
{
horizontal = 1;
place = (636, 76);
place = (636, 76);
type = Stem;
},
{
place = (53, 86);
place = (53, 86);
type = Stem;
},
{
place = (642, 90);
place = (642, 90);
type = Stem;
}
);
shapes = (
{
closed = 1;
nodes = (
(446,-12,o),
(547,37,o),
(620,119,cs),
(692,201,o),
(732,311,o),
(732,434,cs),
(732,488,o),
(721,536,o),
(698,578,cs),
(652,662,o),
(565,712,o),
(452,712,cs),
(398,712,o),
(348,702,o),
(301,683,cs),
(208,644,o),
(134,574,o),
(91,479,c),
(187,479,l),
(232,578,o),
(332,636,o),
(440,636,cs),
(561,636,o),
(642,556,o),
(642,425,cs),
(642,416,o),
(641,405,o),
(640,394,cs),
(638,375,l),
(72,375,l),
(61,336,o),
(53,289,o),
(53,250,cs),
(53,195,o),
(65,149,o),
(88,110,cs),
(134,32,o),
(218,-12,o),
(325,-12,cs)
);
},
{
closed = 1;
nodes = (
(215,64,o),
(139,133,o),
(139,248,cs),
(139,266,o),
(141,285,o),
(144,304,c),
(629,304,l),
(618,257,o),
(599,216,o),
(572,180,cs),
(516,108,o),
(432,64,o),
(336,64,cs)
);
}
);
};
hints = (
{
horizontal = 1;
place = (-12, 76);
place = (-12, 76);
type = Stem;
},
{
horizontal = 1;
place = (304, 71);
place = (304, 71);
type = Stem;
},
{
horizontal = 1;
place = (636, 76);
place = (636, 76);
type = Stem;
},
{
place = (53, 86);
place = (53, 86);
type = Stem;
},
{
place = (642, 90);
place = (642, 90);
type = Stem;
}
);
layerId = m01;
shapes = (
{
closed = 1;
nodes = (
(569,-12,o),
(732,188,o),
(732,434,cs),
(732,572,o),
(647,712,o),
(452,712,cs),
(316,712,o),
(165,641,o),
(91,479,c),
(187,479,l),
(232,578,o),
(332,636,o),
(440,636,cs),
(561,636,o),
(642,556,o),
(642,425,cs),
(642,416,o),
(641,405,o),
(640,394,cs),
(638,375,l),
(72,375,l),
(61,336,o),
(53,289,o),
(53,250,cs),
(53,115,o),
(138,-12,o),
(325,-12,cs)
);
},
{
closed = 1;
nodes = (
(215,64,o),
(139,133,o),
(139,248,cs),
(139,266,o),
(141,285,o),
(144,304,c),
(629,304,l),
(602,187,o),
(504,64,o),
(336,64,cs)
);
}
);
width = 756;
},
{
background = {
hints = (
{
horizontal = 1;
place = (-12, 117);
place = (-12, 117);
type = Stem;
},
{
horizontal = 1;
place = (296, 92);
place = (296, 92);
type = Stem;
},
{
horizontal = 1;
place = (596, 116);
place = (596, 116);
type = Stem;
},
{
place = (53, 130);
place = (53, 130);
type = Stem;
},
{
place = (612, 134);
place = (612, 134);
type = Stem;
}
);
shapes = (
{
closed = 1;
nodes = (
(456,-12,o),
(558,37,o),
(631,119,cs),
(704,201,o),
(746,310,o),
(746,433,cs),
(746,487,o),
(734,535,o),
(711,577,cs),
(663,661,o),
(574,712,o),
(459,712,cs),
(404,712,o),
(352,702,o),
(305,683,cs),
(209,643,o),
(134,570,o),
(93,474,c),
(233,474,l),
(272,550,o),
(352,596,o),
(441,596,cs),
(546,596,o),
(612,529,o),
(612,424,cs),
(612,412,o),
(611,401,o),
(610,390,cs),
(610,388,l),
(73,388,l),
(60,345,o),
(53,303,o),
(53,261,cs),
(53,206,o),
(65,158,o),
(89,117,cs),
(136,35,o),
(224,-12,o),
(333,-12,cs)
);
},
{
closed = 1;
nodes = (
(249,105,o),
(183,161,o),
(183,258,cs),
(183,271,o),
(184,284,o),
(186,296,c),
(595,296,l),
(586,257,o),
(569,224,o),
(545,195,cs),
(497,138,o),
(427,105,o),
(350,105,cs)
);
}
);
};
hints = (
{
horizontal = 1;
place = (-12, 117);
place = (-12, 117);
type = Stem;
},
{
horizontal = 1;
place = (296, 92);
place = (296, 92);
type = Stem;
},
{
horizontal = 1;
place = (596, 116);
place = (596, 116);
type = Stem;
},
{
place = (53, 130);
place = (53, 130);
type = Stem;
},
{
place = (612, 134);
place = (612, 134);
type = Stem;
}
);
layerId = "C673E357-C9AB-4A21-92F5-E812FFC50395";
shapes = (
{
closed = 1;
nodes = (
(583,-12,o),
(746,195,o),
(746,433,cs),
(746,571,o),
(658,712,o),
(459,712,cs),
(328,712,o),
(167,647,o),
(93,474,c),
(233,474,l),
(272,550,o),
(352,596,o),
(441,596,cs),
(546,596,o),
(612,529,o),
(612,424,cs),
(612,412,o),
(611,401,o),
(610,390,cs),
(610,388,l),
(73,388,l),
(60,345,o),
(53,303,o),
(53,261,cs),
(53,105,o),
(159,-12,o),
(333,-12,cs)
);
},
{
closed = 1;
nodes = (
(249,105,o),
(183,161,o),
(183,258,cs),
(183,271,o),
(184,284,o),
(186,296,c),
(595,296,l),
(573,200,o),
(484,105,o),
(350,105,cs)
);
}
);
width = 767;
}
);
note = uni018F;
unicode = 399;
},
{
glyphname = F;
lastChange = "2023-01-07 01:40:55 +0000";
layers = (
{
hints = (
{
horizontal = 1;
place = (319, 65);
place = (319, 65);
type = Stem;
},
{
horizontal = 1;
place = (633, 67);
place = (633, 67);
type = Stem;
},
{
place = (31, 539);
place = (31, 539);
type = Stem;
}
);
layerId = m01;
shapes = (
{
closed = 1;
nodes = (
(114,0,l),
(172,327,l),
(453,327,l),
(465,395,l),
(184,395,l),
(226,631,l),
(558,631,l),
(570,700,l),
(154,700,l),
(30,0,l)
);
}
);
width = 530;
},
{
hints = (
{
horizontal = 1;
place = (302, 98);
place = (302, 98);
type = Stem;
},
{
horizontal = 1;
place = (599, 101);
place = (599, 101);
type = Stem;
},
{
place = (24, 561);
place = (24, 561);
type = Stem;
}
);
layerId = "C673E357-C9AB-4A21-92F5-E812FFC50395";
shapes = (
{
closed = 1;
nodes = (
(152,0,l),
(206,307,l),
(480,307,l),
(500,416,l),
(226,416,l),
(256,591,l),
(569,591,l),
(589,700,l),
(148,700,l),
(24,0,l)
);
}
);
width = 545;
}
);
note = F;
unicode = 70;
},
{
glyphname = G;
kernLeft = C;
kernRight = G;
lastChange = "2023-01-19 02:04:10 +0000";
layers = (
{
anchors = (
{
name = bottom;
pos = (337,0);
},
{
name = top;
pos = (461,700);
}
);
background = {
anchors = (
{
name = bottom;
pos = (337,0);
},
{
name = top;
pos = (461,700);
}
);
hints = (
{
horizontal = 1;
place = (-12, 75);
place = (-12, 75);
type = Stem;
},
{
horizontal = 1;
place = (308, 66);
place = (308, 66);
type = Stem;
},
{
horizontal = 1;
place = (635, 77);
place = (635, 77);
type = Stem;
},
{
place = (61, 88);
place = (61, 88);
type = Stem;
}
);
shapes = (
{
closed = 1;
nodes = (
(456,-12,o),
(529,34,o),
(594,115,c),
(581,0,l),
(658,0,l),
(724,374,l),
(385,374,l),
(374,308,l),
(626,308,l),
(589,156,o),
(498,63,o),
(349,63,cs),
(225,63,o),
(149,149,o),
(149,284,cs),
(149,353,o),
(162,413,o),
(188,466,cs),
(239,571,o),
(334,635,o),
(457,635,cs),
(569,635,o),
(632,582,o),
(636,498,c),
(733,498,l),
(726,631,o),
(625,712,o),
(466,712,cs),
(347,712,o),
(247,667,o),
(175,590,cs),
(103,513,o),
(61,404,o),
(61,279,cs),
(61,223,o),
(72,173,o),
(94,129,cs),
(138,41,o),
(220,-12,o),
(333,-12,cs)
);
}
);
};
hints = (
{
horizontal = 1;
place = (-12, 75);
place = (-12, 75);
type = Stem;
},
{
horizontal = 1;
place = (308, 66);
place = (308, 66);
type = Stem;
},
{
horizontal = 1;
place = (635, 77);
place = (635, 77);
type = Stem;
},
{
place = (61, 88);
place = (61, 88);
type = Stem;
}
);
layerId = m01;
shapes = (
{
closed = 1;
nodes = (
(456,-12,o),
(529,34,o),
(594,115,c),
(581,0,l),
(658,0,l),
(724,374,l),
(385,374,l),
(374,308,l),
(626,308,l),
(589,156,o),
(498,63,o),
(349,63,cs),
(225,63,o),
(149,149,o),
(149,284,cs),
(149,443,o),
(236,635,o),
(457,635,cs),
(569,635,o),
(632,582,o),
(636,498,c),
(733,498,l),
(726,631,o),
(625,712,o),
(466,712,cs),
(225,712,o),
(61,526,o),
(61,279,cs),
(61,140,o),
(139,-12,o),
(333,-12,cs)
);
}
);
width = 761;
},
{
anchors = (
{
name = bottom;
pos = (345,0);
},
{
name = top;
pos = (469,700);
}
);
background = {
anchors = (
{
name = bottom;
pos = (345,0);
},
{
name = top;
pos = (469,700);
}
);
hints = (
{
horizontal = 1;
place = (-12, 114);
place = (-12, 114);
type = Stem;
},
{
horizontal = 1;
place = (289, 96);
place = (289, 96);
type = Stem;
},
{
horizontal = 1;
place = (594, 118);
place = (594, 118);
type = Stem;
},
{
place = (59, 132);
place = (59, 132);
type = Stem;
},
{
horizontal = 1;
place = (0, 102);
place = (0, 102);
type = Stem;
}
);
shapes = (
{
closed = 1;
nodes = (
(440,-12,o),
(509,25,o),
(565,92,c),
(561,0,l),
(677,0,l),
(745,385,l),
(390,385,l),
(371,279,l),
(595.997,279,l),
(562.443,172.558,o),
(488.182,102,o),
(365,102,cs),
(256,102,o),
(191,174,o),
(191,291,cs),
(191,351,o),
(202,404,o),
(225,449,cs),
(270,540,o),
(354,594,o),
(459,594,cs),
(548,594,o),
(599,555,o),
(608,490,c),
(751,490,l),
(744,629,o),
(641,712,o),
(477,712,cs),
(356,712,o),
(253,668,o),
(178,592,cs),
(102,515,o),
(59,408,o),
(59,281,cs),
(59,225,o),
(70,175,o),
(92,131,cs),
(136,43,o),
(218,-12,o),
(333,-12,cs)
);
}
);
};
hints = (
{
horizontal = 1;
place = (-12, 114);
place = (-12, 114);
type = Stem;
},
{
horizontal = 1;
place = (289, 96);
place = (289, 96);
type = Stem;
},
{
horizontal = 1;
place = (594, 118);
place = (594, 118);
type = Stem;
},
{
place = (59, 132);
place = (59, 132);
type = Stem;
},
{
horizontal = 1;
place = (0, 102);
place = (0, 102);
type = Stem;
}
);
layerId = "C673E357-C9AB-4A21-92F5-E812FFC50395";
shapes = (
{
closed = 1;
nodes = (
(440,-12,o),
(509,25,o),
(565,92,c),
(561,0,l),
(677,0,l),
(745,385,l),
(390,385,l),
(371,279,l),
(595.997,279,l),
(562.443,172.558,o),
(488.182,102,o),
(365,102,cs),
(256,102,o),
(191,174,o),
(191,291,cs),
(191,437,o),
(272,594,o),
(459,594,cs),
(548,594,o),
(599,555,o),
(608,490,c),
(751,490,l),
(744,629,o),
(641,712,o),
(477,712,cs),
(238,712,o),
(59,538,o),
(59,281,cs),
(59,138,o),
(141,-12,o),
(333,-12,cs)
);
}
);
width = 777;
}
);
note = G;
unicode = 71;
},
{
glyphname = H;
lastChange = "2023-01-09 23:20:27 +0000";
layers = (
{
hints = (
{
horizontal = 1;
place = (324, 66);
place = (324, 66);
type = Stem;
},
{
place = (31, 655);
place = (31, 655);
type = Stem;
}
);
layerId = m01;
shapes = (
{
closed = 1;
nodes = (
(115,0,l),
(175,336,l),
(538,336,l),
(478,0,l),
(562,0,l),
(686,700,l),
(602,700,l),
(550,405,l),
(187,405,l),
(239,700,l),
(155,700,l),
(31,0,l)
);
}
);
width = 680;
},
{
hints = (
{
horizontal = 1;
place = (307, 101);
place = (307, 101);
type = Stem;
},
{
place = (24, 694);
place = (24, 694);
type = Stem;
}
);
layerId = "C673E357-C9AB-4A21-92F5-E812FFC50395";
shapes = (
{
closed = 1;
nodes = (
(152,0,l),
(208,316,l),
(522,316,l),
(466,0,l),
(594,0,l),
(718,700,l),
(590,700,l),
(541,425,l),
(227,425,l),
(276,700,l),
(148,700,l),
(24,0,l)
);
}
);
width = 706;
}
);
note = H;
unicode = 72;
},
{
glyphname = Hbar;
lastChange = "2023-01-09 23:21:26 +0000";
layers = (
{
layerId = m01;
shapes = (
{
closed = 1;
nodes = (
(115,0,l),
(175,336,l),
(538,336,l),
(478,0,l),
(562,0,l),
(653,513,l),
(703,513,l),
(715,582,l),
(665,582,l),
(686,700,l),
(602,700,l),
(581,582,l),
(218,582,l),
(239,700,l),
(155,700,l),
(134,582,l),
(84,582,l),
(72,513,l),
(122,513,l),
(31,0,l)
);
},
{
closed = 1;
nodes = (
(206,513,l),
(569,513,l),
(550,405,l),
(187,405,l)
);
}
);
width = 681;
},
{
layerId = "C673E357-C9AB-4A21-92F5-E812FFC50395";
shapes = (
{
closed = 1;
nodes = (
(152,0,l),
(208,316,l),
(522,316,l),
(466,0,l),
(594,0,l),
(681,493,l),
(721,493,l),
(740,602,l),
(700,602,l),
(718,700,l),
(590,700,l),
(572,602,l),
(258,602,l),
(276,700,l),
(148,700,l),
(130,602,l),
(89,602,l),
(70,493,l),
(111,493,l),
(24,0,l)
);
},
{
closed = 1;
nodes = (
(239,493,l),
(553,493,l),
(541,425,l),
(227,425,l)
);
}
);
width = 705;
}
);
unicode = 294;
},
{
glyphname = I;
lastChange = "2023-01-07 01:40:55 +0000";
layers = (
{
anchors = (
{
name = bottom;
pos = (73,0);
},
{
name = ogonek;
pos = (115,0);
},
{
name = top;
pos = (197,700);
},
{
name = topleft;
pos = (100,700);
}
);
hints = (
{
horizontal = 1;
place = (0, 700);
place = (0, 700);
type = Stem;
},
{
place = (31, 207);
place = (31, 207);
type = Stem;
}
);
layerId = m01;
shapes = (
{
closed = 1;
nodes = (
(115,0,l),
(238,700,l),
(154,700,l),
(31,0,l)
);
}
);
width = 233;
},
{
anchors = (
{
name = bottom;
pos = (88,0);
},
{
name = ogonek;
pos = (152,0);
},
{
name = top;
pos = (212,700);
},
{
name = topleft;
pos = (100,700);
}
);
hints = (
{
horizontal = 1;
place = (0, 700);
place = (0, 700);
type = Stem;
},
{
place = (24, 252);
place = (24, 252);
type = Stem;
}
);
layerId = "C673E357-C9AB-4A21-92F5-E812FFC50395";
shapes = (
{
closed = 1;
nodes = (
(152,0,l),
(276,700,l),
(148,700,l),
(24,0,l)
);
}
);
width = 264;
}
);
note = I;
unicode = 73;
},
{
glyphname = J;
lastChange = "2023-01-07 01:40:55 +0000";
layers = (
{
anchors = (
{
name = bottom;
pos = (199,0);
},
{
name = top;
pos = (447,700);
}
);
background = {
anchors = (
{
name = bottom;
pos = (199,0);
},
{
name = top;
pos = (447,700);
}
);
hints = (
{
horizontal = 1;
place = (-12, 75);
place = (-12, 75);
type = Stem;
},
{
place = (15, 86);
place = (15, 86);
type = Stem;
}
);
shapes = (
{
closed = 1;
nodes = (
(293,-12,o),
(379,60,o),
(399,172,cs),
(491,700,l),
(407,700,l),
(315,172,ls),
(305,116,o),
(266,63,o),
(191,63,cs),
(127,63,o),
(101,101,o),
(101,153,cs),
(101,164,o),
(102,175,o),
(104,186,c),
(19,186,l),
(16,170,o),
(15,155,o),
(15,141,cs),
(15,44,o),
(76,-12,o),
(178,-12,cs)
);
}
);
};
hints = (
{
horizontal = 1;
place = (-12, 75);
place = (-12, 75);
type = Stem;
},
{
place = (15, 86);
place = (15, 86);
type = Stem;
}
);
layerId = m01;
shapes = (
{
closed = 1;
nodes = (
(293,-12,o),
(379,60,o),
(399,172,cs),
(491,700,l),
(407,700,l),
(315,172,ls),
(305,116,o),
(266,63,o),
(191,63,cs),
(127,63,o),
(101,101,o),
(101,153,cs),
(101,164,o),
(102,175,o),
(104,186,c),
(19,186,l),
(16,170,o),
(15,155,o),
(15,141,cs),
(15,44,o),
(76,-12,o),
(178,-12,cs)
);
}
);
width = 486;
},
{
anchors = (
{
name = bottom;
pos = (217,0);
},
{
name = top;
pos = (467,700);
}
);
background = {
anchors = (
{
name = bottom;
pos = (217,0);
},
{
name = top;
pos = (467,700);
}
);
hints = (
{
horizontal = 1;
place = (-12, 114);
place = (-12, 114);
type = Stem;
},
{
place = (13, 130);
place = (13, 130);
type = Stem;
},
{
horizontal = 1;
place = (-12, 220);
place = (-12, 220);
type = Stem;
}
);
shapes = (
{
closed = 1;
nodes = (
(325,-12,o),
(422,64,o),
(445,196,cs),
(533,700,l),
(405,700,l),
(317,196,ls),
(307,141,o),
(273,102,o),
(216,102,cs),
(166,102,o),
(143,130,o),
(143,176,cs),
(143,186,o),
(144,197,o),
(146,208,c),
(18,208,l),
(15,190,o),
(13,173,o),
(13,157,cs),
(13,49,o),
(84,-12,o),
(198,-12,cs)
);
}
);
};
hints = (
{
horizontal = 1;
place = (-12, 114);
place = (-12, 114);
type = Stem;
},
{
place = (13, 130);
place = (13, 130);
type = Stem;
},
{
horizontal = 1;
place = (-12, 220);
place = (-12, 220);
type = Stem;
}
);
layerId = "C673E357-C9AB-4A21-92F5-E812FFC50395";
shapes = (
{
closed = 1;
nodes = (
(325,-12,o),
(422,64,o),
(445,196,cs),
(533,700,l),
(405,700,l),
(317,196,ls),
(307,141,o),
(273,102,o),
(216,102,cs),
(166,102,o),
(143,130,o),
(143,176,cs),
(143,186,o),
(144,197,o),
(146,208,c),
(18,208,l),
(15,190,o),
(13,173,o),
(13,157,cs),
(13,49,o),
(84,-12,o),
(198,-12,cs)
);
}
);
width = 522;
}
);
note = J;
unicode = 74;
},
{
glyphname = K;
kernRight = K;
lastChange = "2023-01-20 00:43:17 +0000";
layers = (
{
anchors = (
{
name = bottom;
pos = (251,0);
},
{
name = top;
pos = (375,700);
}
);
hints = (
{
horizontal = 1;
place = (0, 700);
place = (0, 700);
type = Stem;
},
{
place = (31, 605);
place = (31, 605);
type = Stem;
}
);
layerId = m01;
shapes = (
{
closed = 1;
nodes = (
(115,0,l),
(163,273,l),
(259,360,l),
(420,0,l),
(517,0,l),
(327,421,l),
(636,700,l),
(530,700,l),
(183,383,l),
(238,700,l),
(154,700,l),
(31,0,l)
);
}
);
width = 589;
},
{
anchors = (
{
name = bottom;
pos = (280,0);
},
{
name = top;
pos = (404,700);
}
);
hints = (
{
horizontal = 1;
place = (0, 700);
place = (0, 700);
type = Stem;
},
{
place = (25, 668);
place = (25, 668);
type = Stem;
}
);
layerId = "C673E357-C9AB-4A21-92F5-E812FFC50395";
shapes = (
{
closed = 1;
nodes = (
(152,0,l),
(198,261,l),
(282,339,l),
(425,0,l),
(576,0,l),
(386,433,l),
(676,700,l),
(515,700,l),
(228,431,l),
(276,700,l),
(148,700,l),
(24,0,l)
);
}
);
width = 647;
}
);
note = K;
unicode = 75;
},
{
glyphname = L;
kernRight = L;
lastChange = "2023-01-19 02:02:01 +0000";
layers = (
{
anchors = (
{
name = bottom;
pos = (219,0);
},
{
name = center;
pos = (281,350);
},
{
name = top;
pos = (254,700);
},
{
name = topright;
pos = (345,700);
}
);
hints = (
{
horizontal = 1;
place = (0, 67);
place = (0, 67);
type = Stem;
},
{
place = (31, 422);
place = (31, 422);
type = Stem;
}
);
layerId = m01;
shapes = (
{
closed = 1;
nodes = (
(441,0,l),
(453,67,l),
(127,67,l),
(238,700,l),
(154,700,l),
(31,0,l)
);
}
);
width = 526;
},
{
anchors = (
{
name = bottom;
pos = (228,0);
},
{
name = center;
pos = (290,350);
},
{
name = top;
pos = (258,700);
},
{
name = topright;
pos = (345,700);
}
);
hints = (
{
horizontal = 1;
place = (0, 100);
place = (0, 100);
type = Stem;
},
{
place = (25, 455);
place = (25, 455);
type = Stem;
}
);
layerId = "C673E357-C9AB-4A21-92F5-E812FFC50395";
shapes = (
{
closed = 1;
nodes = (
(454,0,l),
(474,109,l),
(172,109,l),
(276,700,l),
(148,700,l),
(24,0,l)
);
}
);
width = 544;
}
);
note = L;
unicode = 76;
},
{
glyphname = Ldot;
kernRight = L;
lastChange = "2023-01-07 01:40:55 +0000";
layers = (
{
hints = (
{
horizontal = 1;
place = (0, 67);
place = (0, 67);
type = Stem;
},
{
horizontal = 1;
place = (292, 114);
place = (292, 114);
type = Stem;
},
{
place = (318, 115);
place = (318, 115);
type = Stem;
}
);
layerId = m01;
shapes = (
{
closed = 1;
nodes = (
(441,0,l),
(453,67,l),
(127,67,l),
(238,700,l),
(154,700,l),
(31,0,l)
);
},
{
closed = 1;
nodes = (
(399,292,o),
(427,317,o),
(433,349,cs),
(439,382,o),
(419,406,o),
(386,406,cs),
(353,406,o),
(324,382,o),
(318,349,cs),
(312,317,o),
(333,292,o),
(366,292,cs)
);
}
);
width = 526;
},
{
hints = (
{
horizontal = 1;
place = (0, 100);
place = (0, 100);
type = Stem;
},
{
place = (25, 455);
place = (25, 455);
type = Stem;
}
);
layerId = "C673E357-C9AB-4A21-92F5-E812FFC50395";
shapes = (
{
closed = 1;
nodes = (
(454,0,l),
(474,109,l),
(172,109,l),
(276,700,l),
(148,700,l),
(24,0,l)
);
},
{
closed = 1;
nodes = (
(425,269,o),
(467,305,o),
(475,349,cs),
(483,393,o),
(453,429,o),
(409,429,cs),
(364,429,o),
(323,393,o),
(315,349,cs),
(307,305,o),
(336,269,o),
(381,269,cs)
);
}
);
width = 544;
}
);
note = Ldot;
unicode = 319;
},
{
glyphname = Lslash;
kernRight = L;
lastChange = "2023-01-07 01:40:55 +0000";
layers = (
{
hints = (
{
horizontal = 1;
place = (0, 67);
place = (0, 67);
type = Stem;
},
{
place = (26, 452);
place = (26, 452);
type = Stem;
}
);
layerId = m01;
shapes = (
{
closed = 1;
nodes = (
(57,0,l),
(467,0,l),
(478,67,l),
(152,67,l),
(201,341,l),
(331,388,l),
(345,467,l),
(215,421,l),
(264,700,l),
(180,700,l),
(125,389,l),
(40,359,l),
(26,280,l),
(111,310,l)
);
}
);
width = 552;
},
{
hints = (
{
horizontal = 1;
place = (0, 100);
place = (0, 100);
type = Stem;
},
{
place = (22, 482);
place = (22, 482);
type = Stem;
}
);
layerId = "C673E357-C9AB-4A21-92F5-E812FFC50395";
shapes = (
{
closed = 1;
nodes = (
(478,0,l),
(498,109,l),
(196,109,l),
(234.325,326.786,l),
(344,361,l),
(365,484,l),
(255.821,448.943,l),
(300,700,l),
(172,700,l),
(119.857,405.644,l),
(44,382,l),
(22,260,l),
(98.268,283.772,l),
(48,0,l)
);
}
);
width = 568;
}
);
note = Lslash;
unicode = 321;
},
{
glyphname = M;
lastChange = "2023-01-07 01:40:55 +0000";
layers = (
{
hints = (
{
horizontal = 1;
place = (0, 700);
place = (0, 700);
type = Stem;
},
{
place = (31, 822);
place = (31, 822);
type = Stem;
}
);
layerId = m01;
shapes = (
{
closed = 1;
nodes = (
(115,0,l),
(212,549,l),
(367,100,l),
(430,100,l),
(742,550,l),
(646,0,l),
(730,0,l),
(853,700,l),
(754,700,l),
(418,212,l),
(252,700,l),
(154,700,l),
(31,0,l)
);
}
);
width = 848;
},
{
hints = (
{
horizontal = 1;
place = (0, 700);
place = (0, 700);
type = Stem;
},
{
place = (25, 870);
place = (25, 870);
type = Stem;
}
);
layerId = "C673E357-C9AB-4A21-92F5-E812FFC50395";
shapes = (
{
closed = 1;
nodes = (
(152,0,l),
(236,472,l),
(339,89,l),
(440,89,l),
(679,472,l),
(595,0,l),
(723,0,l),
(847,700,l),
(695,700,l),
(419,248,l),
(300,700,l),
(148,700,l),
(24,0,l)
);
}
);
width = 835;
}
);
note = M;
unicode = 77;
},
{
glyphname = N;
lastChange = "2023-01-09 22:56:25 +0000";
layers = (
{
anchors = (
{
name = bottom;
pos = (301,0);
},
{
name = top;
pos = (425,700);
}
);
hints = (
{
horizontal = 1;
place = (0, 700);
place = (0, 700);
type = Stem;
},
{
place = (31, 664);
place = (31, 664);
type = Stem;
}
);
layerId = m01;
shapes = (
{
closed = 1;
nodes = (
(115,0,l),
(215,567,l),
(488,0,l),
(572,0,l),
(695,700,l),
(611,700,l),
(512,133,l),
(237,700,l),
(154,700,l),
(31,0,l)
);
}
);
width = 690;
},
{
anchors = (
{
name = bottom;
pos = (317,0);
},
{
name = top;
pos = (441,700);
}
);
hints = (
{
horizontal = 1;
place = (0, 700);
place = (0, 700);
type = Stem;
},
{
place = (24, 709);
place = (24, 709);
type = Stem;
}
);
layerId = "C673E357-C9AB-4A21-92F5-E812FFC50395";
shapes = (
{
closed = 1;
nodes = (
(152,0,l),
(238,488,l),
(481,0,l),
(609,0,l),
(733,700,l),
(605,700,l),
(518,211,l),
(276,700,l),
(148,700,l),
(24,0,l)
);
}
);
width = 721;
}
);
note = N;
unicode = 78;
},
{
glyphname = Eng;
lastChange = "2023-01-09 23:06:04 +0000";
layers = (
{
anchors = (
{
name = bottom;
pos = (301,0);
},
{
name = top;
pos = (425,700);
}
);
hints = (
{
horizontal = 1;
place = (0, 700);
place = (0, 700);
type = Stem;
},
{
place = (31, 664);
place = (31, 664);
type = Stem;
}
);
layerId = m01;
shapes = (
{
closed = 1;
nodes = (
(115,0,l),
(215,567,l),
(488,0,l),
(474,-80,ls),
(465,-129,o),
(441,-148,o),
(392,-148,cs),
(353,-148,l),
(340,-220,l),
(392,-220,ls),
(484,-220,o),
(540,-178,o),
(557,-82,cs),
(695,700,l),
(611,700,l),
(512,133,l),
(237,700,l),
(154,700,l),
(31,0,l)
);
}
);
width = 689;
},
{
anchors = (
{
name = bottom;
pos = (317,0);
},
{
name = top;
pos = (441,700);
}
);
background = {
anchors = (
{
name = bottom;
pos = (317,0);
},
{
name = top;
pos = (441,700);
}
);
hints = (
{
horizontal = 1;
place = (0, 700);
place = (0, 700);
type = Stem;
},
{
place = (24, 709);
place = (24, 709);
type = Stem;
}
);
shapes = (
{
closed = 1;
nodes = (
(152,0,l),
(238,488,l),
(482,0,l),
(472,-54,ls),
(464,-96,o),
(443,-111,o),
(401,-111,cs),
(374,-111,l),
(355,-220,l),
(402,-220,ls),
(500,-220,o),
(578,-179,o),
(600,-54,cs),
(733,700,l),
(605,700,l),
(519,211,l),
(276,700,l),
(148,700,l),
(25,0,l)
);
}
);
};
hints = (
{
horizontal = 1;
place = (0, 700);
place = (0, 700);
type = Stem;
},
{
place = (24, 709);
place = (24, 709);
type = Stem;
}
);
layerId = "C673E357-C9AB-4A21-92F5-E812FFC50395";
shapes = (
{
closed = 1;
nodes = (
(152,0,l),
(238,488,l),
(482,0,l),
(472,-54,ls),
(464,-96,o),
(443,-111,o),
(401,-111,cs),
(374,-111,l),
(355,-220,l),
(402,-220,ls),
(500,-220,o),
(578,-179,o),
(600,-54,cs),
(733,700,l),
(605,700,l),
(519,211,l),
(276,700,l),
(148,700,l),
(25,0,l)
);
}
);
width = 721;
}
);
note = N;
unicode = 330;
},
{
glyphname = O;
kernLeft = C;
kernRight = D;
lastChange = "2023-01-19 02:02:35 +0000";
layers = (
{
anchors = (
{
name = bottom;
pos = (354,0);
},
{
name = center;
pos = (416,350);
},
{
name = ogonek;
pos = (429,10);
},
{
name = top;
pos = (478,700);
},
{
name = topleft;
pos = (100,700);
},
{
name = topright;
pos = (855,700);
}
);
background = {
anchors = (
{
name = bottom;
pos = (354,0);
},
{
name = center;
pos = (416,350);
},
{
name = ogonek;
pos = (429,10);
},
{
name = top;
pos = (478,700);
},
{
name = topleft;
pos = (100,700);
},
{
name = topright;
pos = (855,700);
}
);
hints = (
{
horizontal = 1;
place = (-12, 74);
place = (-12, 74);
type = Stem;
},
{
horizontal = 1;
place = (637, 75);
place = (637, 75);
type = Stem;
},
{
place = (61, 87);
place = (61, 87);
type = Stem;
},
{
place = (683, 87);
place = (683, 87);
type = Stem;
}
);
shapes = (
{
closed = 1;
nodes = (
(466,-12,o),
(570,35,o),
(647,113,cs),
(724,191,o),
(770,296,o),
(770,415,cs),
(770,473,o),
(758,524,o),
(733,569,cs),
(684,658,o),
(594,712,o),
(478,712,cs),
(365,712,o),
(260,666,o),
(184,588,cs),
(107,510,o),
(61,405,o),
(61,286,cs),
(61,229,o),
(73,178,o),
(98,133,cs),
(146,43,o),
(237,-12,o),
(353,-12,cs)
);
},
{
closed = 1;
nodes = (
(231,62,o),
(148,157,o),
(148,291,cs),
(148,486,o),
(290,637,o),
(466,637,cs),
(600,637,o),
(683,545,o),
(683,411,cs),
(683,217,o),
(541,62,o),
(365,62,cs)
);
}
);
};
hints = (
{
horizontal = 1;
place = (-12, 74);
place = (-12, 74);
type = Stem;
},
{
horizontal = 1;
place = (637, 75);
place = (637, 75);
type = Stem;
},
{
place = (61, 87);
place = (61, 87);
type = Stem;
},
{
place = (683, 87);
place = (683, 87);
type = Stem;
}
);
layerId = m01;
shapes = (
{
closed = 1;
nodes = (
(575,-12,o),
(770,173,o),
(770,415,cs),
(770,559,o),
(680,712,o),
(478,712,cs),
(249,712,o),
(61,523,o),
(61,286,cs),
(61,147,o),
(149,-12,o),
(353,-12,cs)
);
},
{
closed = 1;
nodes = (
(231,62,o),
(148,157,o),
(148,291,cs),
(148,486,o),
(290,637,o),
(466,637,cs),
(600,637,o),
(683,545,o),
(683,411,cs),
(683,217,o),
(541,62,o),
(365,62,cs)
);
}
);
width = 795;
},
{
anchors = (
{
name = bottom;
pos = (358,0);
},
{
name = center;
pos = (420,350);
},
{
name = ogonek;
pos = (443,10);
},
{
name = top;
pos = (482,700);
},
{
name = topleft;
pos = (100,700);
},
{
name = topright;
pos = (864,700);
}
);
background = {
anchors = (
{
name = bottom;
pos = (358,0);
},
{
name = center;
pos = (420,350);
},
{
name = ogonek;
pos = (443,10);
},
{
name = top;
pos = (482,700);
},
{
name = topleft;
pos = (100,700);
},
{
name = topright;
pos = (864,700);
}
);
hints = (
{
horizontal = 1;
place = (-12, 115);
place = (-12, 115);
type = Stem;
},
{
horizontal = 1;
place = (597, 115);
place = (597, 115);
type = Stem;
},
{
place = (59, 132);
place = (59, 132);
type = Stem;
},
{
place = (649, 132);
place = (649, 132);
type = Stem;
}
);
shapes = (
{
closed = 1;
nodes = (
(477,-12,o),
(581,34,o),
(658,111,cs),
(735,188,o),
(781,294,o),
(781,411,cs),
(781,469,o),
(768,521,o),
(743,566,cs),
(691,657,o),
(598,712,o),
(479,712,cs),
(363,712,o),
(258,666,o),
(182,589,cs),
(105,512,o),
(59,407,o),
(59,290,cs),
(59,232,o),
(72,180,o),
(98,135,cs),
(149,43,o),
(242,-12,o),
(361,-12,cs)
);
},
{
closed = 1;
nodes = (
(262,103,o),
(191,181,o),
(191,301,cs),
(191,463,o),
(311,597,o),
(464,597,cs),
(580,597,o),
(649,520,o),
(649,400,cs),
(649,236,o),
(528,103,o),
(377,103,cs)
);
}
);
};
hints = (
{
horizontal = 1;
place = (-12, 115);
place = (-12, 115);
type = Stem;
},
{
horizontal = 1;
place = (597, 115);
place = (597, 115);
type = Stem;
},
{
place = (59, 132);
place = (59, 132);
type = Stem;
},
{
place = (649, 132);
place = (649, 132);
type = Stem;
}
);
layerId = "C673E357-C9AB-4A21-92F5-E812FFC50395";
shapes = (
{
closed = 1;
nodes = (
(595,-12,o),
(781,176,o),
(781,411,cs),
(781,561,o),
(682,712,o),
(479,712,cs),
(246,712,o),
(59,524,o),
(59,290,cs),
(59,131,o),
(169,-12,o),
(361,-12,cs)
);
},
{
closed = 1;
nodes = (
(262,103,o),
(191,181,o),
(191,301,cs),
(191,463,o),
(311,597,o),
(464,597,cs),
(580,597,o),
(649,520,o),
(649,400,cs),
(649,236,o),
(528,103,o),
(377,103,cs)
);
}
);
width = 804;
}
);
note = O;
unicode = 79;
},
{
glyphname = Oslash;
lastChange = "2023-01-07 01:40:55 +0000";
layers = (
{
background = {
hints = (
{
horizontal = 1;
place = (-12, 74);
place = (-12, 74);
type = Stem;
},
{
horizontal = 1;
place = (637, 75);
place = (637, 75);
type = Stem;
},
{
place = (57, 87);
place = (57, 87);
type = Stem;
},
{
place = (680, 87);
place = (680, 87);
type = Stem;
}
);
shapes = (
{
closed = 1;
nodes = (
(464,-12,o),
(567,35,o),
(644,113,cs),
(720,191,o),
(767,296,o),
(767,415,cs),
(767,484,o),
(748,546,o),
(715,594,c),
(827,700,l),
(738,700,l),
(674,640,l),
(623,685,o),
(555,712,o),
(475,712,cs),
(360,712,o),
(257,666,o),
(181,588,cs),
(104,510,o),
(57,405,o),
(57,286,cs),
(57,218,o),
(76,156,o),
(109,108,c),
(-5,0,l),
(85,0,l),
(150,61,l),
(201,14,o),
(269,-12,o),
(349,-12,cs)
);
},
{
closed = 1;
nodes = (
(300,62,o),
(250,81,o),
(211,118,c),
(651,534,l),
(670,499,o),
(680,458,o),
(680,411,cs),
(680,215,o),
(534,62,o),
(361,62,cs)
);
},
{
closed = 1;
nodes = (
(154,203,o),
(144,244,o),
(144,291,cs),
(144,475,o),
(279,637,o),
(463,637,cs),
(524,637,o),
(574,619,o),
(613,582,c),
(173,168,l)
);
}
);
};
hints = (
{
horizontal = 1;
place = (-12, 74);
place = (-12, 74);
type = Stem;
},
{
horizontal = 1;
place = (637, 75);
place = (637, 75);
type = Stem;
},
{
place = (57, 87);
place = (57, 87);
type = Stem;
},
{
place = (680, 87);
place = (680, 87);
type = Stem;
}
);
layerId = m01;
shapes = (
{
closed = 1;
nodes = (
(580,-12,o),
(767,180,o),
(767,415,cs),
(767,484,o),
(748,546,o),
(715,594,c),
(827,700,l),
(738,700,l),
(674,640,l),
(623,685,o),
(555,712,o),
(475,712,cs),
(243,712,o),
(57,519,o),
(57,286,cs),
(57,218,o),
(76,156,o),
(109,108,c),
(-5,0,l),
(85,0,l),
(150,61,l),
(201,14,o),
(269,-12,o),
(349,-12,cs)
);
},
{
closed = 1;
nodes = (
(300,62,o),
(250,81,o),
(211,118,c),
(651,534,l),
(670,499,o),
(680,458,o),
(680,411,cs),
(680,215,o),
(534,62,o),
(361,62,cs)
);
},
{
closed = 1;
nodes = (
(154,203,o),
(144,244,o),
(144,291,cs),
(144,475,o),
(279,637,o),
(463,637,cs),
(524,637,o),
(574,619,o),
(613,582,c),
(173,168,l)
);
}
);
width = 787;
},
{
background = {
hints = (
{
horizontal = 1;
place = (-12, 115);
place = (-12, 115);
type = Stem;
},
{
horizontal = 1;
place = (597, 115);
place = (597, 115);
type = Stem;
},
{
place = (55, 132);
place = (55, 132);
type = Stem;
},
{
place = (644, 132);
place = (644, 132);
type = Stem;
}
);
shapes = (
{
closed = 1;
nodes = (
(472,-12,o),
(576,34,o),
(653,111,cs),
(730,188,o),
(776,294,o),
(776,411,cs),
(776,480,o),
(757,543,o),
(721,592,c),
(834,700,l),
(712,700,l),
(662,652,l),
(613,691,o),
(547,712,o),
(474,712,cs),
(358,712,o),
(254,666,o),
(177,589,cs),
(100,512,o),
(55,407,o),
(55,290,cs),
(55,223,o),
(73,163,o),
(105,115,c),
(-13,0,l),
(109,0,l),
(163,52,l),
(214,12,o),
(280,-12,o),
(356,-12,cs)
);
},
{
closed = 1;
nodes = (
(325,103,o),
(286,116,o),
(254,141,c),
(625,498,l),
(638,470,o),
(644,437,o),
(644,400,cs),
(644,236,o),
(523,103,o),
(372,103,cs)
);
},
{
closed = 1;
nodes = (
(192,236,o),
(187,267,o),
(187,301,cs),
(187,464,o),
(306,597,o),
(459,597,cs),
(504,597,o),
(541,586,o),
(571,565,c),
(203,209,l)
);
}
);
};
hints = (
{
horizontal = 1;
place = (-12, 115);
place = (-12, 115);
type = Stem;
},
{
horizontal = 1;
place = (597, 115);
place = (597, 115);
type = Stem;
},
{
place = (55, 132);
place = (55, 132);
type = Stem;
},
{
place = (644, 132);
place = (644, 132);
type = Stem;
}
);
layerId = "C673E357-C9AB-4A21-92F5-E812FFC50395";
shapes = (
{
closed = 1;
nodes = (
(590,-12,o),
(776,176,o),
(776,411,cs),
(776,480,o),
(757,543,o),
(721,592,c),
(834,700,l),
(712,700,l),
(662,652,l),
(613,691,o),
(547,712,o),
(474,712,cs),
(243,712,o),
(55,528,o),
(55,290,cs),
(55,223,o),
(73,163,o),
(105,115,c),
(-13,0,l),
(109,0,l),
(163,52,l),
(214,12,o),
(280,-12,o),
(356,-12,cs)
);
},
{
closed = 1;
nodes = (
(325,103,o),
(286,116,o),
(254,141,c),
(625,498,l),
(638,470,o),
(644,437,o),
(644,400,cs),
(644,236,o),
(523,103,o),
(372,103,cs)
);
},
{
closed = 1;
nodes = (
(192,236,o),
(187,267,o),
(187,301,cs),
(187,464,o),
(306,597,o),
(459,597,cs),
(504,597,o),
(541,586,o),
(571,565,c),
(203,209,l)
);
}
);
width = 786;
}
);
note = Oslash;
unicode = 216;
},
{
glyphname = OE;
kernLeft = C;
lastChange = "2023-01-07 01:40:55 +0000";
layers = (
{
anchors = (
{
name = bottom;
pos = (514,0);
},
{
name = top;
pos = (638,700);
}
);
background = {
anchors = (
{
name = bottom;
pos = (514,0);
},
{
name = top;
pos = (638,700);
}
);
hints = (
{
horizontal = 1;
place = (-12, 74);
place = (-12, 74);
type = Stem;
},
{
horizontal = 1;
place = (319, 68);
place = (319, 68);
type = Stem;
},
{
horizontal = 1;
place = (631, 69);
place = (631, 69);
type = Stem;
},
{
place = (62, 88);
place = (62, 88);
type = Stem;
},
{
horizontal = 1;
place = (0, 69);
place = (0, 69);
type = Stem;
},
{
horizontal = 1;
place = (637, 75);
place = (637, 75);
type = Stem;
}
);
shapes = (
{
closed = 1;
nodes = (
(450,-12,o),
(552,36,o),
(627,124,c),
(605,0,l),
(1008,0,l),
(1020,69,l),
(701,69,l),
(745,319,l),
(1034,319,l),
(1046,387,l),
(757,387,l),
(800,631,l),
(1119,631,l),
(1132,700,l),
(729,700,l),
(707,575,l),
(663,663,o),
(572,712,o),
(463,712,cs),
(356,712,o),
(258,667,o),
(183,591,cs),
(108,515,o),
(62,413,o),
(62,298,cs),
(62,238,o),
(74,185,o),
(98,138,cs),
(146,45,o),
(233,-12,o),
(342,-12,cs)
);
},
{
closed = 1;
nodes = (
(233,62,o),
(150,164,o),
(150,303,cs),
(150,485,o),
(291,637,o),
(454,637,cs),
(575,637,o),
(671,562,o),
(671,415,cs),
(671,221,o),
(533,62,o),
(358,62,cs)
);
}
);
};
hints = (
{
horizontal = 1;
place = (-12, 74);
place = (-12, 74);
type = Stem;
},
{
horizontal = 1;
place = (319, 68);
place = (319, 68);
type = Stem;
},
{
horizontal = 1;
place = (631, 69);
place = (631, 69);
type = Stem;
},
{
place = (62, 88);
place = (62, 88);
type = Stem;
},
{
horizontal = 1;
place = (0, 69);
place = (0, 69);
type = Stem;
},
{
horizontal = 1;
place = (637, 75);
place = (637, 75);
type = Stem;
}
);
layerId = m01;
shapes = (
{
closed = 1;
nodes = (
(450,-12,o),
(552,36,o),
(627,124,c),
(605,0,l),
(1008,0,l),
(1020,69,l),
(701,69,l),
(745,319,l),
(1034,319,l),
(1046,387,l),
(757,387,l),
(800,631,l),
(1119,631,l),
(1132,700,l),
(729,700,l),
(707,575,l),
(663,663,o),
(572,712,o),
(463,712,cs),
(249,712,o),
(62,526,o),
(62,298,cs),
(62,158,o),
(145,-12,o),
(342,-12,cs)
);
},
{
closed = 1;
nodes = (
(233,62,o),
(150,164,o),
(150,303,cs),
(150,485,o),
(291,637,o),
(454,637,cs),
(575,637,o),
(671,562,o),
(671,415,cs),
(671,221,o),
(533,62,o),
(358,62,cs)
);
}
);
width = 1115;
},
{
anchors = (
{
name = bottom;
pos = (517,0);
},
{
name = top;
pos = (641,700);
}
);
background = {
anchors = (
{
name = bottom;
pos = (517,0);
},
{
name = top;
pos = (641,700);
}
);
hints = (
{
horizontal = 1;
place = (0, 103);
place = (0, 103);
type = Stem;
},
{
horizontal = 1;
place = (305, 100);
place = (305, 100);
type = Stem;
},
{
horizontal = 1;
place = (597, 103);
place = (597, 103);
type = Stem;
},
{
place = (60, 133);
place = (60, 133);
type = Stem;
},
{
horizontal = 1;
place = (597, 115);
place = (597, 115);
type = Stem;
}
);
shapes = (
{
closed = 1;
nodes = (
(432,-12,o),
(530,27,o),
(594,96,c),
(577,0,l),
(1016,0,l),
(1036,109,l),
(725,109,l),
(761,315,l),
(1026,315,l),
(1045,424,l),
(780,424,l),
(809,591,l),
(1120,591,l),
(1140,700,l),
(701,700,l),
(683.337,600.29,l),
(643,670,o),
(555,712,o),
(459,712,cs),
(351,712,o),
(254,667,o),
(180,592,cs),
(106,516,o),
(60,413,o),
(60,296,cs),
(60,237,o),
(72,185,o),
(96,138,cs),
(143,45,o),
(231,-12,o),
(343,-12,cs)
);
},
{
closed = 1;
nodes = (
(262,103,o),
(193,192,o),
(193,305,cs),
(193,462,o),
(312,597,o),
(456,597,cs),
(566,597,o),
(643,523,o),
(643,405,cs),
(643,242,o),
(524,103,o),
(373,103,cs)
);
}
);
};
hints = (
{
horizontal = 1;
place = (0, 103);
place = (0, 103);
type = Stem;
},
{
horizontal = 1;
place = (305, 100);
place = (305, 100);
type = Stem;
},
{
horizontal = 1;
place = (597, 103);
place = (597, 103);
type = Stem;
},
{
place = (60, 133);
place = (60, 133);
type = Stem;
},
{
horizontal = 1;
place = (597, 115);
place = (597, 115);
type = Stem;
}
);
layerId = "C673E357-C9AB-4A21-92F5-E812FFC50395";
shapes = (
{
closed = 1;
nodes = (
(432,-12,o),
(530,27,o),
(594,96,c),
(577,0,l),
(1016,0,l),
(1036,109,l),
(725,109,l),
(761,315,l),
(1026,315,l),
(1045,424,l),
(780,424,l),
(809,591,l),
(1120,591,l),
(1140,700,l),
(701,700,l),
(683.337,600.29,l),
(643,670,o),
(555,712,o),
(459,712,cs),
(241,712,o),
(60,525,o),
(60,296,cs),
(60,157,o),
(143,-12,o),
(343,-12,cs)
);
},
{
closed = 1;
nodes = (
(262,103,o),
(193,192,o),
(193,305,cs),
(193,462,o),
(312,597,o),
(456,597,cs),
(566,597,o),
(643,523,o),
(643,405,cs),
(643,242,o),
(524,103,o),
(373,103,cs)
);
}
);
width = 1121;
}
);
note = OE;
unicode = 338;
},
{
glyphname = P;
lastChange = "2023-01-07 01:40:55 +0000";
layers = (
{
hints = (
{
horizontal = 1;
place = (292, 71);
place = (292, 71);
type = Stem;
},
{
horizontal = 1;
place = (630, 70);
place = (630, 70);
type = Stem;
},
{
place = (504, 88);
place = (504, 88);
type = Stem;
}
);
layerId = m01;
shapes = (
{
closed = 1;
nodes = (
(115,0,l),
(167,292,l),
(313,292,ls),
(468,292,o),
(592,370,o),
(592,525,cs),
(592,633,o),
(512,700,o),
(384,700,cs),
(154,700,l),
(31,0,l)
);
},
{
closed = 1;
nodes = (
(226,630,l),
(370,630,ls),
(465,630,o),
(504,583,o),
(504,519,cs),
(504,414,o),
(438,363,o),
(323,363,cs),
(179,363,l)
);
}
);
width = 583;
},
{
background = {
hints = (
{
horizontal = 1;
place = (271, 104);
place = (271, 104);
type = Stem;
},
{
horizontal = 1;
place = (596, 104);
place = (596, 104);
type = Stem;
},
{
place = (490, 132);
place = (490, 132);
type = Stem;
}
);
shapes = (
{
closed = 1;
nodes = (
(24,0,l),
(152,0,l),
(201,279,l),
(332,279,l),
(511,279,o),
(622,375,o),
(622,518,c),
(622,627,o),
(537,700,o),
(407,700,c),
(148,700,l)
);
},
{
closed = 1;
nodes = (
(221,388,l),
(256,591,l),
(384,591,l),
(450,591,o),
(490,558,o),
(490,502,c),
(490,427,o),
(440,388,o),
(349,388,c)
);
}
);
};
hints = (
{
horizontal = 1;
place = (271, 104);
place = (271, 104);
type = Stem;
},
{
horizontal = 1;
place = (596, 104);
place = (596, 104);
type = Stem;
},
{
place = (490, 132);
place = (490, 132);
type = Stem;
}
);
layerId = "C673E357-C9AB-4A21-92F5-E812FFC50395";
shapes = (
{
closed = 1;
nodes = (
(152,0,l),
(201,279,l),
(332,279,l),
(511,279,o),
(622,375,o),
(622,518,c),
(622,627,o),
(537,700,o),
(407,700,c),
(148,700,l),
(24,0,l)
);
},
{
closed = 1;
nodes = (
(256,591,l),
(384,591,l),
(450,591,o),
(490,558,o),
(490,502,c),
(490,427,o),
(440,388,o),
(349,388,c),
(221,388,l)
);
}
);
width = 609;
}
);
note = P;
unicode = 80;
},
{
glyphname = Thorn;
lastChange = "2023-01-07 01:40:55 +0000";
layers = (
{
hints = (
{
horizontal = 1;
place = (147, 70);
place = (147, 70);
type = Stem;
},
{
horizontal = 1;
place = (484, 70);
place = (484, 70);
type = Stem;
},
{
place = (479, 87);
place = (479, 87);
type = Stem;
}
);
layerId = m01;
shapes = (
{
closed = 1;
nodes = (
(115,0,l),
(141,147,l),
(287,147,ls),
(445,147,o),
(566,231,o),
(566,383,cs),
(566,480,o),
(502,554,o),
(359,554,cs),
(213,554,l),
(238,700,l),
(154,700,l),
(31,0,l)
);
},
{
closed = 1;
nodes = (
(201,484,l),
(345,484,ls),
(440,484,o),
(479,449,o),
(479,382,cs),
(479,279,o),
(413,217,o),
(298,217,cs),
(153,217,l)
);
}
);
width = 582;
},
{
hints = (
{
horizontal = 1;
place = (136, 103);
place = (136, 103);
type = Stem;
},
{
horizontal = 1;
place = (460, 105);
place = (460, 105);
type = Stem;
},
{
place = (466, 132);
place = (466, 132);
type = Stem;
}
);
layerId = "C673E357-C9AB-4A21-92F5-E812FFC50395";
shapes = (
{
closed = 1;
nodes = (
(153,0,l),
(177,136,l),
(308,136,ls),
(469,136,o),
(598,222,o),
(598,382,cs),
(598,501,o),
(508,565,o),
(383,565,cs),
(252,565,l),
(276,700,l),
(148,700,l),
(25,0,l)
);
},
{
closed = 1;
nodes = (
(234,460,l),
(358,460,ls),
(434,460,o),
(466,430,o),
(466,377,cs),
(466,290,o),
(411,239,o),
(319,239,cs),
(195,239,l)
);
}
);
width = 610;
}
);
note = Thorn;
unicode = 222;
},
{
glyphname = Q;
kernLeft = C;
lastChange = "2023-01-20 01:22:58 +0000";
layers = (
{
hints = (
{
horizontal = 1;
place = (-12, 74);
place = (-12, 74);
type = Stem;
},
{
horizontal = 1;
place = (637, 75);
place = (637, 75);
type = Stem;
},
{
place = (61, 87);
place = (61, 87);
type = Stem;
},
{
place = (683, 87);
place = (683, 87);
type = Stem;
}
);
layerId = m01;
shapes = (
{
closed = 1;
nodes = (
(434,-12,o),
(512,13,o),
(578,56,c),
(637,-11,l),
(696,41,l),
(640,106,l),
(719,183,o),
(770,292,o),
(770,415,cs),
(770,559,o),
(680,712,o),
(478,712,cs),
(249,712,o),
(61,523,o),
(61,286,cs),
(61,147,o),
(149,-12,o),
(353,-12,cs)
);
},
{
closed = 1;
nodes = (
(148,486,o),
(290,637,o),
(466,637,cs),
(600,637,o),
(683,545,o),
(683,411,cs),
(683,314,o),
(648,227,o),
(590,164,c),
(503,267,l),
(443,215,l),
(531,113,l),
(483,81,o),
(426,62,o),
(365,62,cs),
(231,62,o),
(148,157,o),
(148,291,cs)
);
}
);
width = 795;
},
{
hints = (
{
horizontal = 1;
place = (-12, 115);
place = (-12, 115);
type = Stem;
},
{
horizontal = 1;
place = (597, 115);
place = (597, 115);
type = Stem;
},
{
place = (59, 132);
place = (59, 132);
type = Stem;
},
{
place = (649, 132);
place = (649, 132);
type = Stem;
}
);
layerId = "C673E357-C9AB-4A21-92F5-E812FFC50395";
shapes = (
{
closed = 1;
nodes = (
(444,-12,o),
(521,12,o),
(586,53,c),
(641,-12,l),
(741,76,l),
(685,140,l),
(745,213,o),
(781,308,o),
(781,411,cs),
(781,561,o),
(682,712,o),
(479,712,cs),
(246,712,o),
(59,524,o),
(59,290,cs),
(59,131,o),
(169,-12,o),
(361,-12,cs)
);
},
{
closed = 1;
nodes = (
(191,463,o),
(311,597,o),
(464,597,cs),
(580,597,o),
(649,520,o),
(649,400,cs),
(649,338,o),
(632,281,o),
(603,234,c),
(522,331,l),
(422,243,l),
(510,140,l),
(470,117,o),
(425,103,o),
(377,103,cs),
(262,103,o),
(191,181,o),
(191,301,cs)
);
}
);
width = 816;
}
);
note = Q;
unicode = 81;
},
{
glyphname = R;
kernRight = R;
lastChange = "2023-01-19 02:03:38 +0000";
layers = (
{
anchors = (
{
name = bottom;
pos = (250,0);
},
{
name = top;
pos = (374,700);
}
);
hints = (
{
horizontal = 1;
place = (289, 66);
place = (289, 66);
type = Stem;
},
{
horizontal = 1;
place = (629, 71);
place = (629, 71);
type = Stem;
},
{
place = (497, 86);
place = (497, 86);
type = Stem;
}
);
layerId = m01;
shapes = (
{
closed = 1;
nodes = (
(114,0,l),
(169,310,l),
(285,310,l),
(410,0,l),
(514,0,l),
(371,326,l),
(496,347,o),
(564,417,o),
(564,537,cs),
(564,638,o),
(490,700,o),
(361,700,cs),
(154,700,l),
(30,0,l)
);
},
{
closed = 1;
nodes = (
(225,630,l),
(346,630,ls),
(441,630,o),
(478,589,o),
(478,529,cs),
(478,423,o),
(418,381,o),
(302,381,cs),
(181,381,l)
);
}
);
width = 588;
},
{
anchors = (
{
name = bottom;
pos = (265,0);
},
{
name = top;
pos = (389,700);
}
);
hints = (
{
horizontal = 1;
place = (276, 94);
place = (276, 94);
type = Stem;
},
{
horizontal = 1;
place = (593, 107);
place = (593, 107);
type = Stem;
},
{
place = (486, 132);
place = (486, 132);
type = Stem;
}
);
layerId = "C673E357-C9AB-4A21-92F5-E812FFC50395";
shapes = (
{
closed = 1;
nodes = (
(152,0,l),
(204,295,l),
(282,295,l),
(402,0,l),
(553,0,l),
(414,316,l),
(543,346,o),
(599,430,o),
(599,527,c),
(599,630,o),
(520,700,o),
(391,700,c),
(148,700,l),
(24,0,l)
);
},
{
closed = 1;
nodes = (
(256,591,l),
(368,591,l),
(443,591,o),
(467,550,o),
(467,509,c),
(467,440,o),
(428,404,o),
(336,404,c),
(224,404,l)
);
}
);
width = 617;
}
);
note = R;
unicode = 82;
},
{
glyphname = S;
kernLeft = S;
kernRight = S;
lastChange = "2023-01-20 00:54:09 +0000";
layers = (
{
anchors = (
{
name = bottom;
pos = (252,0);
},
{
name = top;
pos = (376,700);
}
);
background = {
anchors = (
{
name = bottom;
pos = (252,0);
},
{
name = top;
pos = (376,700);
}
);
hints = (
{
horizontal = 1;
place = (-12, 71);
place = (-12, 71);
type = Stem;
},
{
horizontal = 1;
place = (640, 72);
place = (640, 72);
type = Stem;
},
{
place = (118, 89);
place = (118, 89);
type = Stem;
},
{
place = (442, 90);
place = (442, 90);
type = Stem;
},
{
place = (477, 89);
place = (477, 89);
type = Stem;
},
{
place = (39, 89);
place = (39, 89);
type = Stem;
}
);
shapes = (
{
closed = 1;
nodes = (
(426.331,-12,o),
(532,77.333,o),
(532,211,cs),
(532,300.333,o),
(468.333,353.333,o),
(387,384,cs),
(321.54,408.046,o),
(265.556,423.224,o),
(231.5,454.5,cs),
(215.167,469.5,o),
(207,489.667,o),
(207,515,cs),
(207,587,o),
(266,640,o),
(354,640,cs),
(436.667,640,o),
(477,589,o),
(477,537,cs),
(477,530,o),
(477,524,o),
(476,518,c),
(563,518,l),
(565,528.667,o),
(566,539,o),
(566,549,cs),
(566,642.707,o),
(489.058,712,o),
(366,712,cs),
(217.91,712,o),
(118,627.815,o),
(118,502,cs),
(118,431.333,o),
(161,374,o),
(249,342,cs),
(345.428,306.184,o),
(442,289.415,o),
(442,201,cs),
(442,115.667,o),
(384.667,59,o),
(278,59,cs),
(186,59,o),
(128,111,o),
(128,183,cs),
(128,191.667,o),
(129,200.667,o),
(131,210,c),
(43,210,l),
(40.333,196.667,o),
(39,182,o),
(39,170,cs),
(39,62.498,o),
(128.346,-12,o),
(269,-12,cs)
);
}
);
};
hints = (
{
horizontal = 1;
place = (-12, 71);
place = (-12, 71);
type = Stem;
},
{
horizontal = 1;
place = (640, 72);
place = (640, 72);
type = Stem;
},
{
place = (118, 89);
place = (118, 89);
type = Stem;
},
{
place = (442, 90);
place = (442, 90);
type = Stem;
},
{
place = (477, 89);
place = (477, 89);
type = Stem;
},
{
place = (39, 89);
place = (39, 89);
type = Stem;
}
);
layerId = m01;
shapes = (
{
closed = 1;
nodes = (
(426.331,-12,o),
(532,77.333,o),
(532,211,cs),
(532,300.333,o),
(468.333,353.333,o),
(387,384,cs),
(321.54,408.046,o),
(265.556,423.224,o),
(231.5,454.5,cs),
(215.167,469.5,o),
(207,489.667,o),
(207,515,cs),
(207,587,o),
(266,640,o),
(354,640,cs),
(436.667,640,o),
(477,589,o),
(477,537,cs),
(477,530,o),
(477,524,o),
(476,518,c),
(563,518,l),
(565,528.667,o),
(566,539,o),
(566,549,cs),
(566,642.707,o),
(489.058,712,o),
(366,712,cs),
(217.91,712,o),
(118,627.815,o),
(118,502,cs),
(118,431.333,o),
(161,374,o),
(249,342,cs),
(345.428,306.184,o),
(442,289.415,o),
(442,201,cs),
(442,115.667,o),
(384.667,59,o),
(278,59,cs),
(186,59,o),
(128,111,o),
(128,183,cs),
(128,191.667,o),
(129,200.667,o),
(131,210,c),
(43,210,l),
(40.333,196.667,o),
(39,182,o),
(39,170,cs),
(39,62.498,o),
(128.346,-12,o),
(269,-12,cs)
);
}
);
width = 591;
},
{
anchors = (
{
name = bottom;
pos = (258,0);
},
{
name = top;
pos = (382,700);
}
);
background = {
anchors = (
{
name = bottom;
pos = (258,0);
},
{
name = top;
pos = (382,700);
}
);
hints = (
{
horizontal = 1;
place = (-12, 107);
place = (-12, 107);
type = Stem;
},
{
horizontal = 1;
place = (604, 108);
place = (604, 108);
type = Stem;
},
{
place = (105, 138);
place = (105, 138);
type = Stem;
},
{
place = (410, 139);
place = (410, 139);
type = Stem;
},
{
place = (447, 138);
place = (447, 138);
type = Stem;
},
{
place = (35, 138);
place = (35, 138);
type = Stem;
}
);
shapes = (
{
closed = 1;
nodes = (
(433,-12,o),
(549,79,o),
(549,219,c),
(549,311,o),
(483,369,o),
(392,401,c),
(337,421,o),
(290,437,o),
(263,462,c),
(250,474,o),
(243,490,o),
(243,511,c),
(243,564,o),
(285,604,o),
(353,604,c),
(414,604,o),
(447,568,o),
(447,527,c),
(447,522,o),
(447,516,o),
(446,510,c),
(583,510,l),
(584,521,o),
(585,532,o),
(585,541,c),
(585,646,o),
(501,712,o),
(374,712,c),
(216,712,o),
(105,622,o),
(105,488,c),
(105,412,o),
(153,355,o),
(241,323,c),
(350,284,o),
(410,268,o),
(410,202,c),
(410,138,o),
(363,95,o),
(286,95,c),
(217,95,o),
(173,134,o),
(173,191,c),
(173,197,o),
(173,204,o),
(174,211,c),
(38,211,l),
(37,204,o),
(35,179,o),
(35,172,c),
(35,59,o),
(127,-12,o),
(270,-12,c)
);
}
);
};
hints = (
{
horizontal = 1;
place = (-12, 107);
place = (-12, 107);
type = Stem;
},
{
horizontal = 1;
place = (604, 108);
place = (604, 108);
type = Stem;
},
{
place = (105, 138);
place = (105, 138);
type = Stem;
},
{
place = (410, 139);
place = (410, 139);
type = Stem;
},
{
place = (447, 138);
place = (447, 138);
type = Stem;
},
{
place = (35, 138);
place = (35, 138);
type = Stem;
}
);
layerId = "C673E357-C9AB-4A21-92F5-E812FFC50395";
shapes = (
{
closed = 1;
nodes = (
(433,-12,o),
(549,79,o),
(549,219,c),
(549,311,o),
(483,369,o),
(392,401,c),
(337,421,o),
(290,437,o),
(263,462,c),
(250,474,o),
(243,490,o),
(243,511,c),
(243,564,o),
(285,604,o),
(353,604,c),
(414,604,o),
(447,568,o),
(447,527,c),
(447,522,o),
(447,516,o),
(446,510,c),
(583,510,l),
(584,521,o),
(585,532,o),
(585,541,c),
(585,646,o),
(501,712,o),
(374,712,c),
(216,712,o),
(105,622,o),
(105,488,c),
(105,412,o),
(153,355,o),
(241,323,c),
(350,284,o),
(410,268,o),
(410,202,c),
(410,138,o),
(363,95,o),
(286,95,c),
(217,95,o),
(173,134,o),
(173,191,c),
(173,197,o),
(173,204,o),
(174,211,c),
(38,211,l),
(37,204,o),
(35,179,o),
(35,172,c),
(35,59,o),
(127,-12,o),
(270,-12,c)
);
}
);
width = 604;
}
);
note = S;
unicode = 83;
},
{
glyphname = Saltillo;
lastChange = "2023-01-07 01:41:50 +0000";
layers = (
{
hints = (
{
horizontal = 1;
place = (-56, 668);
place = (-56, 668);
type = Stem;
},
{
place = (41, 79);
place = (41, 79);
type = Stem;
}
);
layerId = "C673E357-C9AB-4A21-92F5-E812FFC50395";
shapes = (
{
closed = 1;
nodes = (
(175,210,l),
(277,700,l),
(140,700,l),
(67,210,l)
);
}
);
width = 257;
},
{
hints = (
{
horizontal = 1;
place = (-49, 70);
place = (-49, 70);
type = Stem;
},
{
place = (38, 37);
place = (38, 37);
type = Stem;
},
{
place = (23, 71);
place = (23, 71);
type = Stem;
}
);
layerId = m01;
shapes = (
{
closed = 1;
nodes = (
(143,229,l),
(236,700,l),
(145,700,l),
(72,229,l)
);
}
);
width = 221;
},
{
associatedMasterId = m01;
hints = (
{
horizontal = 1;
place = (-61, 1067);
place = (-61, 1067);
type = Stem;
},
{
place = (43, 106);
place = (43, 106);
type = Stem;
}
);
layerId = "E93BD6B3-FA9D-4EFB-B4A0-6094DEE674CC";
name = ExtraBold;
shapes = (
{
closed = 1;
nodes = (
(198,211,l),
(303,700,l),
(135,700,l),
(65,211,l)
);
}
);
width = 279;
}
);
note = exclam;
unicode = 42891;
},
{
glyphname = Germandbls;
lastChange = "2023-01-09 22:54:48 +0000";
layers = (
{
background = {
hints = (
{
horizontal = 1;
place = (-10, 66);
place = (-10, 66);
type = Stem;
},
{
horizontal = 1;
place = (661, 71);
place = (661, 71);
type = Stem;
},
{
place = (223, 84);
place = (223, 84);
type = Stem;
},
{
place = (524, 86);
place = (524, 86);
type = Stem;
},
{
horizontal = 1;
place = (0, 169);
place = (0, 169);
type = Stem;
},
{
place = (311, 87);
place = (311, 87);
type = Stem;
},
{
place = (491, 86);
place = (491, 86);
type = Stem;
}
);
shapes = (
{
closed = 1;
nodes = (
(521.121,-10,o),
(610,65.359,o),
(610,172,cs),
(610,240,o),
(577.667,279,o),
(499,307,cs),
(458.333,321,o),
(431.333,333,o),
(418,343,cs),
(404.667,353,o),
(398,364.333,o),
(398,377,cs),
(398,417.404,o),
(461.862,439.845,o),
(514,477.5,cs),
(550,503.5,o),
(577,538.333,o),
(577,593,cs),
(577,670.333,o),
(512.333,732,o),
(387,732,cs),
(235.826,732,o),
(140.525,645.202,o),
(120,520,cs),
(27,0,l),
(111,0,l),
(202,512,ls),
(219.333,604,o),
(272.667,661,o),
(374,661,cs),
(448.667,661,o),
(491,629,o),
(491,581,cs),
(491,538.333,o),
(462.833,511.5,o),
(427.5,489.5,cs),
(409.833,478.5,o),
(392,467.167,o),
(374,455.5,cs),
(338,432.167,o),
(311,404,o),
(311,360,cs),
(311,306.667,o),
(350,278,o),
(438,246,cs),
(499.333,224.667,o),
(524,200.333,o),
(524,163,cs),
(524,97.667,o),
(476.333,56,o),
(407,56,cs),
(337.667,56,o),
(300.333,101,o),
(307,169,c),
(223,169,l),
(213.667,61,o),
(281,-10,o),
(397,-10,cs)
);
}
);
};
hints = (
{
horizontal = 1;
place = (-10, 66);
place = (-10, 66);
type = Stem;
},
{
horizontal = 1;
place = (661, 71);
place = (661, 71);
type = Stem;
},
{
place = (223, 84);
place = (223, 84);
type = Stem;
},
{
place = (524, 86);
place = (524, 86);
type = Stem;
},
{
horizontal = 1;
place = (0, 169);
place = (0, 169);
type = Stem;
},
{
place = (311, 87);
place = (311, 87);
type = Stem;
},
{
place = (491, 86);
place = (491, 86);
type = Stem;
}
);
layerId = m01;
shapes = (
{
closed = 1;
nodes = (
(521.121,-10,o),
(610,65.359,o),
(610,172,cs),
(610,240,o),
(577.667,279,o),
(499,307,cs),
(463,319,o),
(398,339,o),
(398,377,cs),
(398,417.404,o),
(461.862,439.845,o),
(514,477.5,cs),
(550,503.5,o),
(577,538.333,o),
(577,593,cs),
(577,670.333,o),
(512.333,732,o),
(387,732,cs),
(235.826,732,o),
(142,645,o),
(120,520,cs),
(27,0,l),
(111,0,l),
(202,512,ls),
(218,604,o),
(272.667,661,o),
(374,661,cs),
(448.667,661,o),
(491,629,o),
(491,581,cs),
(491,524,o),
(441,496,o),
(385,463,cs),
(338,435,o),
(311,404,o),
(311,360,cs),
(311,306.667,o),
(350,278,o),
(438,246,cs),
(499.333,224.667,o),
(524,200.333,o),
(524,163,cs),
(524,97.667,o),
(476.333,56,o),
(407,56,cs),
(337.667,56,o),
(300.333,101,o),
(307,169,c),
(223,169,l),
(213.667,61,o),
(281,-10,o),
(397,-10,cs)
);
}
);
width = 669;
},
{
hints = (
{
horizontal = 1;
place = (-20, 85);
place = (-20, 85);
type = Stem;
},
{
horizontal = 1;
place = (615, 97);
place = (615, 97);
type = Stem;
},
{
place = (229, 111);
place = (229, 111);
type = Stem;
},
{
place = (521, 118);
place = (521, 118);
type = Stem;
},
{
place = (311, 122);
place = (311, 122);
type = Stem;
},
{
horizontal = 1;
place = (-10, 165);
place = (-10, 165);
type = Stem;
},
{
place = (471, 122);
place = (471, 122);
type = Stem;
}
);
layerId = "C673E357-C9AB-4A21-92F5-E812FFC50395";
shapes = (
{
closed = 1;
nodes = (
(558.005,-10,o),
(649,71.101,o),
(649,180,cs),
(649,252,o),
(615,290.333,o),
(535,321,cs),
(466.756,345.498,o),
(443,358.633,o),
(443,382,cs),
(443,419.106,o),
(500.275,438.11,o),
(546.5,474.5,cs),
(577.833,499.167,o),
(603,532,o),
(603,580,cs),
(603,664.133,o),
(521.932,732,o),
(391,732,cs),
(213.253,732,o),
(121,630,o),
(99,509,cs),
(9,0,l),
(137,0,l),
(225,499,ls),
(240,578,o),
(286.333,625,o),
(373,625,cs),
(435.667,625,o),
(471,600.333,o),
(471,559,cs),
(471,509,o),
(418,483,o),
(367,447,cs),
(335,424,o),
(311,396.333,o),
(311,355,cs),
(311,301.667,o),
(351.333,270,o),
(442,238,cs),
(500.667,215.333,o),
(521,195.667,o),
(521,165,cs),
(521,115.667,o),
(484.667,85,o),
(430,85,cs),
(375.333,85,o),
(346,120.333,o),
(350,175,c),
(229,175,l),
(221,61.667,o),
(292.333,-10,o),
(419,-10,cs)
);
}
);
width = 690;
}
);
note = germandbls;
unicode = 7838;
},
{
glyphname = T;
kernLeft = T;
kernRight = T;
lastChange = "2023-01-20 00:55:15 +0000";
layers = (
{
anchors = (
{
name = bottom;
pos = (236,0);
},
{
name = center;
pos = (298,350);
},
{
name = top;
pos = (360,700);
}
);
hints = (
{
horizontal = 1;
place = (633, 67);
place = (633, 67);
type = Stem;
},
{
place = (97, 513);
place = (97, 513);
type = Stem;
}
);
layerId = m01;
shapes = (
{
closed = 1;
nodes = (
(278,0,l),
(389,633,l),
(598,633,l),
(610,700,l),
(109,700,l),
(97,633,l),
(305,633,l),
(194,0,l)
);
}
);
width = 559;
},
{
anchors = (
{
name = bottom;
pos = (251,0);
},
{
name = center;
pos = (313,350);
},
{
name = top;
pos = (375,700);
}
);
hints = (
{
horizontal = 1;
place = (599, 101);
place = (599, 101);
type = Stem;
},
{
place = (89, 555);
place = (89, 555);
type = Stem;
}
);
layerId = "C673E357-C9AB-4A21-92F5-E812FFC50395";
shapes = (
{
closed = 1;
nodes = (
(315,0,l),
(419,591,l),
(624,591,l),
(644,700,l),
(107,700,l),
(87,591,l),
(291,591,l),
(187,0,l)
);
}
);
width = 590;
}
);
note = T;
unicode = 84;
},
{
glyphname = U;
kernLeft = U;
kernRight = U;
lastChange = "2023-01-07 01:40:51 +0000";
layers = (
{
anchors = (
{
name = bottom;
pos = (290,0);
},
{
name = ogonek;
pos = (401,10);
},
{
name = top;
pos = (414,700);
},
{
name = topright;
pos = (727,700);
}
);
background = {
anchors = (
{
name = bottom;
pos = (290,0);
},
{
name = ogonek;
pos = (401,10);
},
{
name = top;
pos = (414,700);
},
{
name = topright;
pos = (727,700);
}
);
hints = (
{
horizontal = 1;
place = (-12, 76);
place = (-12, 76);
type = Stem;
},
{
place = (63, 84);
place = (63, 84);
type = Stem;
}
);
shapes = (
{
closed = 1;
nodes = (
(329,-12,o),
(375,-3,o),
(418,17,cs),
(504,55,o),
(567,134,o),
(589,258,cs),
(667,700,l),
(583,700,l),
(504,258,ls),
(480,122,o),
(399,64,o),
(295,64,cs),
(206,64,o),
(147,106,o),
(147,203,cs),
(147,220,o),
(149,238,o),
(153,258,cs),
(232,700,l),
(148,700,l),
(69,258,ls),
(65,234,o),
(63,211,o),
(63,190,cs),
(63,144,o),
(73,106,o),
(92,76,cs),
(130,16,o),
(197,-12,o),
(281,-12,cs)
);
}
);
};
hints = (
{
horizontal = 1;
place = (-12, 76);
place = (-12, 76);
type = Stem;
},
{
place = (63, 84);
place = (63, 84);
type = Stem;
}
);
layerId = m01;
shapes = (
{
closed = 1;
nodes = (
(399,-12,o),
(552,47,o),
(589,258,cs),
(667,700,l),
(583,700,l),
(504,258,ls),
(480,122,o),
(399,64,o),
(295,64,cs),
(206,64,o),
(147,106,o),
(147,203,cs),
(147,220,o),
(149,238,o),
(153,258,cs),
(232,700,l),
(148,700,l),
(69,258,ls),
(65,234,o),
(63,211,o),
(63,190,cs),
(63,65,o),
(141,-12,o),
(281,-12,cs)
);
}
);
width = 667;
},
{
anchors = (
{
name = bottom;
pos = (299,0);
},
{
name = ogonek;
pos = (415,10);
},
{
name = top;
pos = (423,700);
},
{
name = topright;
pos = (746,700);
}
);
background = {
anchors = (
{
name = bottom;
pos = (299,0);
},
{
name = ogonek;
pos = (415,10);
},
{
name = top;
pos = (423,700);
},
{
name = topright;
pos = (746,700);
}
);
hints = (
{
horizontal = 1;
place = (-12, 118);
place = (-12, 118);
type = Stem;
},
{
place = (58, 129);
place = (58, 129);
type = Stem;
}
);
shapes = (
{
closed = 1;
nodes = (
(341,-12,o),
(390,-2,o),
(436,18,cs),
(527,58,o),
(595,140,o),
(618,268,cs),
(694,700,l),
(566,700,l),
(489,268,ls),
(470,159,o),
(404,106,o),
(312,106,cs),
(233,106,o),
(187,144,o),
(187,223,cs),
(187,236,o),
(188,252,o),
(192,268,c),
(268,700,l),
(140,700,l),
(64,268,ls),
(60,244,o),
(58,222,o),
(58,201,cs),
(58,153,o),
(68,113,o),
(88,82,cs),
(128,18,o),
(201,-12,o),
(289,-12,cs)
);
}
);
};
hints = (
{
horizontal = 1;
place = (-12, 118);
place = (-12, 118);
type = Stem;
},
{
place = (58, 129);
place = (58, 129);
type = Stem;
}
);
layerId = "C673E357-C9AB-4A21-92F5-E812FFC50395";
shapes = (
{
closed = 1;
nodes = (
(424,-12,o),
(580,57,o),
(618,268,cs),
(694,700,l),
(566,700,l),
(489,268,ls),
(470,159,o),
(404,106,o),
(312,106,cs),
(233,106,o),
(187,144,o),
(187,223,cs),
(187,236,o),
(188,252,o),
(192,268,c),
(268,700,l),
(140,700,l),
(64,268,ls),
(60,244,o),
(58,222,o),
(58,201,cs),
(58,65,o),
(145,-12,o),
(289,-12,cs)
);
}
);
width = 686;
}
);
note = U;
unicode = 85;
},
{
glyphname = V;
kernLeft = V;
kernRight = V;
lastChange = "2023-01-19 01:52:56 +0000";
layers = (
{
hints = (
{
horizontal = 1;
place = (0, 700);
place = (0, 700);
type = Stem;
},
{
place = (102, 625);
place = (102, 625);
type = Stem;
}
);
layerId = m01;
shapes = (
{
closed = 1;
nodes = (
(241,0,l),
(339,0,l),
(727,700,l),
(636,700,l),
(306,92,l),
(193,700,l),
(102,700,l)
);
}
);
width = 669;
},
{
hints = (
{
horizontal = 1;
place = (0, 700);
place = (0, 700);
type = Stem;
},
{
place = (95, 669);
place = (95, 669);
type = Stem;
}
);
layerId = "C673E357-C9AB-4A21-92F5-E812FFC50395";
shapes = (
{
closed = 1;
nodes = (
(227,0,l),
(384,0,l),
(764,700,l),
(627,700,l),
(329,132,l),
(232,700,l),
(95,700,l)
);
}
);
width = 699;
}
);
note = V;
unicode = 86;
},
{
glyphname = W;
kernLeft = W;
kernRight = W;
lastChange = "2023-01-20 00:55:48 +0000";
layers = (
{
anchors = (
{
name = bottom;
pos = (440,0);
},
{
name = top;
pos = (564,700);
}
);
hints = (
{
horizontal = 1;
place = (-1, 701);
place = (-1, 701);
type = Stem;
},
{
place = (100, 916);
place = (100, 916);
type = Stem;
}
);
layerId = m01;
shapes = (
{
closed = 1;
nodes = (
(321,0,l),
(492,319,l),
(549,0,l),
(645,0,l),
(1019,700,l),
(933,700,l),
(611,79,l),
(558,383,l),
(725,700,l),
(639,700,l),
(515,452,l),
(479,700,l),
(393,700,l),
(448,383,l),
(287,79,l),
(185,700,l),
(99,700,l),
(225,0,l)
);
}
);
width = 968;
},
{
anchors = (
{
name = bottom;
pos = (455,0);
},
{
name = top;
pos = (579,700);
}
);
hints = (
{
horizontal = 1;
place = (0, 700);
place = (0, 700);
type = Stem;
},
{
place = (99, 960);
place = (99, 960);
type = Stem;
}
);
layerId = "C673E357-C9AB-4A21-92F5-E812FFC50395";
shapes = (
{
closed = 1;
nodes = (
(364,0,l),
(495,254,l),
(535,0,l),
(687,0,l),
(1054,700,l),
(923,700,l),
(632,121,l),
(598,355,l),
(781,700,l),
(651,700,l),
(531,455,l),
(496,700,l),
(367,700,l),
(427,355,l),
(311,121,l),
(224,700,l),
(93,700,l),
(212,0,l)
);
}
);
width = 997;
}
);
note = W;
unicode = 87;
},
{
glyphname = X;
lastChange = "2023-01-20 00:56:39 +0000";
layers = (
{
hints = (
{
horizontal = 1;
place = (0, 700);
place = (0, 700);
type = Stem;
},
{
place = (-19, 649);
place = (-19, 649);
type = Stem;
}
);
layerId = m01;
shapes = (
{
closed = 1;
nodes = (
(70,0,l),
(293,300,l),
(420,0,l),
(514,0,l),
(356,377,l),
(604,700,l),
(509,700,l),
(324,451,l),
(219,700,l),
(125,700,l),
(262,376,l),
(-26,0,l)
);
}
);
width = 594;
},
{
hints = (
{
horizontal = 1;
place = (0, 700);
place = (0, 700);
type = Stem;
},
{
place = (-21, 713);
place = (-21, 713);
type = Stem;
}
);
layerId = "C673E357-C9AB-4A21-92F5-E812FFC50395";
shapes = (
{
closed = 1;
nodes = (
(118,0,l),
(314,264,l),
(424,0,l),
(569,0,l),
(409,381,l),
(653,700,l),
(508,700,l),
(359,497,l),
(274,700,l),
(129,700,l),
(262,381,l),
(-27,0,l)
);
}
);
width = 641;
}
);
note = X;
unicode = 88;
},
{
glyphname = Y;
kernLeft = Y;
kernRight = Y;
lastChange = "2023-01-20 00:57:13 +0000";
layers = (
{
anchors = (
{
name = bottom;
pos = (246,0);
},
{
name = top;
pos = (370,700);
},
{
name = topleft;
pos = (100,700);
}
);
hints = (
{
horizontal = 1;
place = (0, 700);
place = (0, 700);
type = Stem;
},
{
place = (93, 540);
place = (93, 540);
type = Stem;
}
);
layerId = m01;
shapes = (
{
closed = 1;
nodes = (
(282,0,l),
(329,266,l),
(633,700,l),
(539,700,l),
(301,346,l),
(189,700,l),
(93,700,l),
(245,266,l),
(198,0,l)
);
}
);
width = 579;
},
{
anchors = (
{
name = bottom;
pos = (266,0);
},
{
name = top;
pos = (390,700);
},
{
name = topleft;
pos = (100,700);
}
);
hints = (
{
horizontal = 1;
place = (0, 700);
place = (0, 700);
type = Stem;
},
{
place = (86, 599);
place = (86, 599);
type = Stem;
}
);
layerId = "C673E357-C9AB-4A21-92F5-E812FFC50395";
shapes = (
{
closed = 1;
nodes = (
(323,0,l),
(373,281,l),
(681,700,l),
(538,700,l),
(332,409,l),
(229,700,l),
(84,700,l),
(245,281,l),
(195,0,l)
);
}
);
width = 619;
}
);
note = Y;
unicode = 89;
},
{
glyphname = Z;
kernRight = Z;
lastChange = "2023-01-20 00:57:36 +0000";
layers = (
{
anchors = (
{
name = bottom;
pos = (224,0);
},
{
name = center;
pos = (286,350);
},
{
name = top;
pos = (348,700);
}
);
hints = (
{
horizontal = 1;
place = (0, 73);
place = (0, 73);
type = Stem;
},
{
horizontal = 1;
place = (627, 73);
place = (627, 73);
type = Stem;
},
{
place = (-6, 566);
place = (-6, 566);
type = Stem;
}
);
layerId = m01;
shapes = (
{
closed = 1;
nodes = (
(441,0,l),
(454,73,l),
(104,73,l),
(549,634,l),
(560,700,l),
(123,700,l),
(109,627,l),
(449,627,l),
(6,66,l),
(-6,0,l)
);
}
);
width = 535;
},
{
anchors = (
{
name = bottom;
pos = (239,0);
},
{
name = center;
pos = (301,350);
},
{
name = top;
pos = (363,700);
}
);
hints = (
{
horizontal = 1;
place = (0, 107);
place = (0, 107);
type = Stem;
},
{
horizontal = 1;
place = (593, 107);
place = (593, 107);
type = Stem;
},
{
place = (-4, 594);
place = (-4, 594);
type = Stem;
}
);
layerId = "C673E357-C9AB-4A21-92F5-E812FFC50395";
shapes = (
{
closed = 1;
nodes = (
(468,0,l),
(487,107,l),
(162,107,l),
(573,602,l),
(590,700,l),
(123,700,l),
(104,593,l),
(423,593,l),
(14,98,l),
(-4,0,l)
);
}
);
width = 566;
}
);
note = Z;
unicode = 90;
},
{
glyphname = uni018E;
lastChange = "2023-01-07 01:41:50 +0000";
layers = (
{
layerId = m01;
shapes = (
{
closed = 1;
nodes = (
(136,700,l),
(124,631,l),
(473,631,l),
(433,404,l),
(128,404,l),
(116,336,l),
(421,336,l),
(373,69,l),
(24,69,l),
(12,0,l),
(445,0,l),
(569,700,l)
);
}
);
width = 600;
},
{
layerId = "C673E357-C9AB-4A21-92F5-E812FFC50395";
shapes = (
{
closed = 1;
nodes = (
(586,700,l),
(137,700,l),
(117,591,l),
(438,591,l),
(409,424,l),
(134,424,l),
(115,315,l),
(390,315,l),
(354,109,l),
(33,109,l),
(13,0,l),
(462,0,l)
);
}
);
width = 574;
}
);
unicode = 398;
},
{
glyphname = a;
kernLeft = a;
kernRight = a;
lastChange = "2023-01-20 00:59:02 +0000";
layers = (
{
anchors = (
{
name = bottom;
pos = (238,0);
},
{
name = ogonek;
pos = (492,0);
},
{
name = top;
pos = (326,496);
}
);
hints = (
{
horizontal = 1;
place = (-12, 71);
place = (-12, 71);
type = Stem;
},
{
horizontal = 1;
place = (234, 65);
place = (234, 65);
type = Stem;
},
{
horizontal = 1;
place = (437, 71);
place = (437, 71);
type = Stem;
},
{
place = (26, 90);
place = (26, 90);
type = Stem;
},
{
place = (410, 85);
place = (410, 85);
type = Stem;
}
);
layerId = m01;
shapes = (
{
closed = 1;
nodes = (
(284,-12,o),
(345,42,o),
(377,95,c),
(382,30,o),
(421,0,o),
(492,0,c),
(505,74,l),
(470,74,o),
(460,91,o),
(460,116,cs),
(460,126,o),
(461,138,o),
(464,153,c),
(491,305,ls),
(494,323,o),
(495,333,o),
(495,352,c),
(495,458,o),
(423,508,o),
(317,508,c),
(209,508,o),
(107,452,o),
(73,341,c),
(160,341,l),
(184,408,o),
(245,437,o),
(306,437,c),
(370,437,o),
(410,403,o),
(410,339,cs),
(410,328,o),
(409,316,o),
(406,299,c),
(273,299,l),
(142,299,o),
(26,243,o),
(26,121,c),
(26,33,o),
(96,-12,o),
(186,-12,c)
);
},
{
closed = 1;
nodes = (
(158,59,o),
(116,80,o),
(116,131,c),
(116,206,o),
(190,234,o),
(268,234,c),
(394,234,l),
(379,148,o),
(311,59,o),
(211,59,c)
);
}
);
width = 563;
},
{
anchors = (
{
name = bottom;
pos = (240,0);
},
{
name = ogonek;
pos = (498,0);
},
{
name = top;
pos = (328,496);
}
);
hints = (
{
horizontal = 1;
place = (-22, 90);
place = (-22, 90);
type = Stem;
},
{
horizontal = 1;
place = (203, 70);
place = (203, 70);
type = Stem;
},
{
place = (16, 128);
place = (16, 128);
type = Stem;
},
{
place = (392, 120);
place = (392, 120);
type = Stem;
},
{
horizontal = 1;
place = (-10, 78);
place = (-10, 78);
type = Stem;
},
{
horizontal = 1;
place = (394, 94);
place = (394, 94);
type = Stem;
}
);
layerId = "C673E357-C9AB-4A21-92F5-E812FFC50395";
shapes = (
{
closed = 1;
nodes = (
(237,-12,o),
(295,17,o),
(344,73,c),
(358,23,o),
(403,0,o),
(498,0,c),
(517,106,l),
(488,106,o),
(471,114,o),
(471,138,cs),
(471,142,o),
(472,152,o),
(473,157,cs),
(497,292,l),
(500,310,o),
(502,327,o),
(502,342,cs),
(502,446,o),
(437,508,o),
(316,508,c),
(196,508,o),
(104,445,o),
(63,333,c),
(188,333,l),
(208,376,o),
(248,400,o),
(295,400,c),
(353,400,o),
(374,369,o),
(374,323,cs),
(374,314,o),
(373,305,o),
(372,295,c),
(250,295,l),
(122,295,o),
(15,233,o),
(15,117,cs),
(15,39,o),
(81,-12,o),
(161,-12,c)
);
},
{
closed = 1;
nodes = (
(173,90,o),
(146,105,o),
(146,137,cs),
(146,187,o),
(192,213,o),
(244,213,c),
(354,213,l),
(336,139,o),
(276,90,o),
(210,90,c)
);
}
);
width = 567;
}
);
note = a;
unicode = 97;
},
{
glyphname = ae;
kernLeft = a;
kernRight = ae;
lastChange = "2023-01-07 01:40:46 +0000";
layers = (
{
anchors = (
{
name = bottom;
pos = (419,0);
},
{
name = top;
pos = (507,496);
}
);
background = {
hints = (
{
horizontal = 1;
place = (-12, 71);
place = (-12, 71);
type = Stem;
},
{
horizontal = 1;
place = (229, 65);
place = (229, 65);
type = Stem;
},
{
horizontal = 1;
place = (437, 71);
place = (437, 71);
type = Stem;
},
{
place = (26, 89);
place = (26, 89);
type = Stem;
},
{
place = (399, 85);
place = (399, 85);
type = Stem;
},
{
place = (813, 82);
place = (813, 82);
type = Stem;
},
{
horizontal = 1;
place = (234, 65);
place = (234, 65);
type = Stem;
},
{
place = (418, 66);
place = (418, 66);
type = Stem;
}
);
shapes = (
{
closed = 1;
nodes = (
(289,-12,o),
(373,42,o),
(418,109,c),
(446,34,o),
(514,-12,o),
(605,-12,cs),
(646,-12,o),
(684,-4,o),
(718,11,cs),
(785,42,o),
(835,96,o),
(864,163,c),
(782,163,l),
(750,99,o),
(693,59,o),
(618,59,cs),
(546,59,o),
(484,106,o),
(484,199,cs),
(484,209,o),
(485,219,o),
(487,229,c),
(882,229,l),
(885,242,o),
(895,296,o),
(895,319,cs),
(895,354,o),
(888,385,o),
(873,414,cs),
(843,471,o),
(783,508,o),
(699,508,cs),
(616,508,o),
(542,474,o),
(490,418,c),
(469,475,o),
(414,508,o),
(327,508,cs),
(292,508,o),
(257,502,o),
(224,489,cs),
(156,463,o),
(102,413,o),
(82,341,c),
(168,341,l),
(191,404,o),
(250,437,o),
(315,437,cs),
(379,437,o),
(418,403,o),
(418,339,cs),
(418,327,o),
(417,314,o),
(414,299,c),
(264,299,ls),
(217,299,o),
(176,292,o),
(141,277,cs),
(69,247,o),
(26,191,o),
(26,118,cs),
(26,46,o),
(78,-12,o),
(189,-12,cs)
);
},
{
closed = 1;
nodes = (
(499,294,l),
(526,387,o),
(604,437,o),
(685,437,cs),
(761,437,o),
(813,392,o),
(813,316,cs),
(813,309,o),
(812,302,o),
(811,294,c)
);
},
{
closed = 1;
nodes = (
(150,59,o),
(115,88,o),
(115,131,cs),
(115,198,o),
(174,234,o),
(259,234,cs),
(401,234,l),
(397,209,l),
(390,183,o),
(377,159,o),
(359,136,cs),
(322,91,o),
(270,59,o),
(210,59,cs)
);
}
);
};
hints = (
{
horizontal = 1;
place = (-12, 71);
place = (-12, 71);
type = Stem;
},
{
horizontal = 1;
place = (229, 65);
place = (229, 65);
type = Stem;
},
{
horizontal = 1;
place = (437, 71);
place = (437, 71);
type = Stem;
},
{
place = (26, 89);
place = (26, 89);
type = Stem;
},
{
place = (399, 85);
place = (399, 85);
type = Stem;
},
{
place = (813, 82);
place = (813, 82);
type = Stem;
},
{
horizontal = 1;
place = (234, 65);
place = (234, 65);
type = Stem;
},
{
place = (418, 66);
place = (418, 66);
type = Stem;
}
);
layerId = m01;
shapes = (
{
closed = 1;
nodes = (
(289,-12,o),
(373,42,o),
(418,109,c),
(446,34,o),
(514,-12,o),
(605,-12,cs),
(720,-12,o),
(817,54,o),
(864,163,c),
(782,163,l),
(750,99,o),
(693,59,o),
(618,59,cs),
(546,59,o),
(484,106,o),
(484,199,cs),
(484,209,o),
(485,219,o),
(487,229,c),
(882,229,l),
(885,242,o),
(895,296,o),
(895,319,cs),
(895,407,o),
(842,508,o),
(699,508,cs),
(616,508,o),
(542,474,o),
(490,418,c),
(469,475,o),
(414,508,o),
(327,508,cs),
(240,508,o),
(116,463,o),
(82,341,c),
(168,341,l),
(191,404,o),
(250,437,o),
(315,437,cs),
(379,437,o),
(418,403,o),
(418,339,cs),
(418,327,o),
(417,314,o),
(414,299,c),
(264,299,ls),
(157,299,o),
(26,251,o),
(26,118,cs),
(26,46,o),
(78,-12,o),
(189,-12,cs)
);
},
{
closed = 1;
nodes = (
(499,294,l),
(526,387,o),
(604,437,o),
(685,437,cs),
(761,437,o),
(813,392,o),
(813,316,cs),
(813,309,o),
(812,302,o),
(811,294,c)
);
},
{
closed = 1;
nodes = (
(150,59,o),
(115,88,o),
(115,131,cs),
(115,198,o),
(174,234,o),
(259,234,cs),
(401,234,l),
(397,209,l),
(380,147,o),
(312,59,o),
(210,59,cs)
);
}
);
width = 926;
},
{
anchors = (
{
name = bottom;
pos = (420,0);
},
{
name = top;
pos = (508,496);
}
);
background = {
hints = (
{
horizontal = 1;
place = (-22, 90);
place = (-22, 90);
type = Stem;
},
{
horizontal = 1;
place = (207, 70);
place = (207, 70);
type = Stem;
},
{
horizontal = 1;
place = (394, 94);
place = (394, 94);
type = Stem;
},
{
place = (15, 129);
place = (15, 129);
type = Stem;
},
{
place = (375, 127);
place = (375, 127);
type = Stem;
},
{
place = (777, 117);
place = (777, 117);
type = Stem;
},
{
horizontal = 1;
place = (-22, 95);
place = (-22, 95);
type = Stem;
},
{
horizontal = 1;
place = (203, 70);
place = (203, 70);
type = Stem;
}
);
shapes = (
{
closed = 1;
nodes = (
(281,-12,o),
(363,28,o),
(415,91,c),
(448,27,o),
(515,-12,o),
(603,-12,cs),
(644,-12,o),
(683,-4,o),
(719,12,cs),
(790,44,o),
(845,101,o),
(874,170,c),
(747,170,l),
(723,126,o),
(679,93,o),
(620,93,cs),
(555,93,o),
(511,134,o),
(512,202,cs),
(512,207,o),
(512,212,o),
(513,217,c),
(890,217,l),
(893,232,o),
(904,287,o),
(904,311,cs),
(904,349,o),
(896,383,o),
(879,413,cs),
(846,472,o),
(782,508,o),
(695,508,cs),
(620,508,o),
(554,482,o),
(502,438,c),
(471,485,o),
(415,508,o),
(335,508,cs),
(294,508,o),
(256,501,o),
(220,487,cs),
(148,458,o),
(94,403,o),
(74,331,c),
(199,331,l),
(216,379,o),
(264,404,o),
(317,404,cs),
(366,404,o),
(401,380,o),
(401,329,cs),
(401,321,o),
(401,309,o),
(397,293,c),
(257,293,ls),
(209,293,o),
(167,286,o),
(131,271,cs),
(58,242,o),
(15,188,o),
(15,116,cs),
(15,39,o),
(78,-12,o),
(190,-12,cs)
);
},
{
closed = 1;
nodes = (
(530,297,l),
(555,368,o),
(614,404,o),
(677,404,cs),
(738,404,o),
(778,367,o),
(777,308,cs),
(777,306,o),
(777,302,o),
(776,297,c)
);
},
{
closed = 1;
nodes = (
(181,88,o),
(154,107,o),
(154,140,cs),
(154,187,o),
(196,213,o),
(257,213,cs),
(376,213,l),
(374,201,l),
(350,138,o),
(293,88,o),
(224,88,cs)
);
}
);
};
hints = (
{
horizontal = 1;
place = (-22, 90);
place = (-22, 90);
type = Stem;
},
{
horizontal = 1;
place = (207, 70);
place = (207, 70);
type = Stem;
},
{
horizontal = 1;
place = (394, 94);
place = (394, 94);
type = Stem;
},
{
place = (15, 129);
place = (15, 129);
type = Stem;
},
{
place = (375, 127);
place = (375, 127);
type = Stem;
},
{
place = (777, 117);
place = (777, 117);
type = Stem;
},
{
horizontal = 1;
place = (-22, 95);
place = (-22, 95);
type = Stem;
},
{
horizontal = 1;
place = (203, 70);
place = (203, 70);
type = Stem;
}
);
layerId = "C673E357-C9AB-4A21-92F5-E812FFC50395";
shapes = (
{
closed = 1;
nodes = (
(281,-12,o),
(363,28,o),
(415,91,c),
(448,27,o),
(515,-12,o),
(603,-12,cs),
(700,-12,o),
(820,42,o),
(874,170,c),
(747,170,l),
(723,126,o),
(679,93,o),
(620,93,cs),
(555,93,o),
(511,134,o),
(512,202,cs),
(512,207,o),
(512,212,o),
(513,217,c),
(890,217,l),
(893,232,o),
(904,287,o),
(904,311,cs),
(904,423,o),
(829,508,o),
(695,508,cs),
(620,508,o),
(554,482,o),
(502,438,c),
(471,485,o),
(415,508,o),
(335,508,cs),
(237,508,o),
(110,459,o),
(74,331,c),
(199,331,l),
(216,379,o),
(264,404,o),
(317,404,cs),
(366,404,o),
(401,380,o),
(401,329,cs),
(401,321,o),
(401,309,o),
(397,293,c),
(257,293,ls),
(144,293,o),
(15,244,o),
(15,116,cs),
(15,39,o),
(78,-12,o),
(190,-12,cs)
);
},
{
closed = 1;
nodes = (
(530,297,l),
(555,368,o),
(614,404,o),
(677,404,cs),
(738,404,o),
(778,367,o),
(777,308,cs),
(777,306,o),
(777,302,o),
(776,297,c)
);
},
{
closed = 1;
nodes = (
(181,88,o),
(154,107,o),
(154,140,cs),
(154,187,o),
(196,213,o),
(257,213,cs),
(376,213,l),
(374,201,l),
(350,138,o),
(293,88,o),
(224,88,cs)
);
}
);
width = 927;
}
);
note = ae;
unicode = 230;
},
{
glyphname = b;
kernRight = b;
lastChange = "2023-01-07 01:40:46 +0000";
layers = (
{
hints = (
{
horizontal = 1;
place = (-12, 73);
place = (-12, 73);
type = Stem;
},
{
horizontal = 1;
place = (435, 73);
place = (435, 73);
type = Stem;
},
{
place = (489, 87);
place = (489, 87);
type = Stem;
}
);
layerId = m01;
shapes = (
{
closed = 1;
nodes = (
(454.661,-12,o),
(576,119.051,o),
(576,295,cs),
(576,419.38,o),
(498.399,508,o),
(372,508,cs),
(281.333,508,o),
(223,465.667,o),
(183,419,c),
(232,700,l),
(148,700,l),
(25,0,l),
(101,0,l),
(124,84,l),
(147.489,32.752,o),
(210.531,-12,o),
(290,-12,cs)
);
},
{
closed = 1;
nodes = (
(207.333,61,o),
(152,119.667,o),
(152,209,cs),
(152,337.042,o),
(234.694,435,o),
(350,435,cs),
(435.333,435,o),
(489,371,o),
(489,283,cs),
(489,154.235,o),
(408.811,61,o),
(294,61,cs)
);
}
);
width = 619;
},
{
background = {
hints = (
{
horizontal = 1;
place = (-22, 102);
place = (-22, 102);
type = Stem;
},
{
horizontal = 1;
place = (386, 102);
place = (386, 102);
type = Stem;
},
{
place = (458, 123);
place = (458, 123);
type = Stem;
},
{
horizontal = 1;
place = (-10, 90);
place = (-10, 90);
type = Stem;
}
);
shapes = (
{
closed = 1;
nodes = (
(467,-12,o),
(591,124,o),
(591,294,cs),
(591,335,o),
(583,371,o),
(566,404,cs),
(532,468,o),
(470,508,o),
(389,508,cs),
(309,508,o),
(253,474,o),
(216,433,c),
(263,700,l),
(134,700,l),
(11,0,l),
(125,0,l),
(151,68,l),
(176,24,o),
(231,-12,o),
(304,-12,cs)
);
},
{
closed = 1;
nodes = (
(225,100,o),
(178,151,o),
(178,220,cs),
(178,253,o),
(185,283,o),
(199,310,cs),
(227,363,o),
(278,396,o),
(339,396,cs),
(412,396,o),
(458,343,o),
(458,272,cs),
(458,239,o),
(451,210,o),
(437,184,cs),
(409,132,o),
(358,100,o),
(297,100,cs)
);
}
);
};
hints = (
{
horizontal = 1;
place = (-22, 102);
place = (-22, 102);
type = Stem;
},
{
horizontal = 1;
place = (386, 102);
place = (386, 102);
type = Stem;
},
{
place = (458, 123);
place = (458, 123);
type = Stem;
},
{
horizontal = 1;
place = (-10, 90);
place = (-10, 90);
type = Stem;
}
);
layerId = "C673E357-C9AB-4A21-92F5-E812FFC50395";
shapes = (
{
closed = 1;
nodes = (
(467,-12,o),
(591,124,o),
(591,294,cs),
(591,395,o),
(530,508,o),
(389,508,cs),
(309,508,o),
(253,474,o),
(216,433,c),
(263,700,l),
(134,700,l),
(11,0,l),
(125,0,l),
(151,68,l),
(176,24,o),
(231,-12,o),
(304,-12,cs)
);
},
{
closed = 1;
nodes = (
(225,100,o),
(178,151,o),
(178,220,cs),
(178,303,o),
(232,396,o),
(339,396,cs),
(412,396,o),
(458,343,o),
(458,272,cs),
(458,178,o),
(393,100,o),
(297,100,cs)
);
}
);
width = 624;
}
);
note = b;
unicode = 98;
},
{
glyphname = c;
kernLeft = c;
lastChange = "2023-01-20 01:07:23 +0000";
layers = (
{
anchors = (
{
name = bottom;
pos = (241,0);
},
{
name = top;
pos = (329,496);
}
);
background = {
hints = (
{
horizontal = 1;
place = (-12, 71);
place = (-12, 71);
type = Stem;
},
{
horizontal = 1;
place = (436, 72);
place = (436, 72);
type = Stem;
},
{
place = (43, 87);
place = (43, 87);
type = Stem;
},
{
place = (452, 86);
place = (452, 86);
type = Stem;
}
);
shapes = (
{
closed = 1;
nodes = (
(290,-12,o),
(327,-5,o),
(362,10,cs),
(430,39,o),
(483,94,o),
(508,162,c),
(422,162,l),
(397,94,o),
(331,59,o),
(263,59,cs),
(190,59,o),
(130,113,o),
(130,208,cs),
(130,252,o),
(139,291,o),
(157,326,cs),
(193,394,o),
(256,436,o),
(329,436,cs),
(397,436,o),
(452,402,o),
(452,334,c),
(538,334,l),
(537,441,o),
(461,508,o),
(341,508,cs),
(173,508,o),
(43,374,o),
(43,199,cs),
(43,157,o),
(52,120,o),
(69,89,cs),
(104,25,o),
(169,-12,o),
(250,-12,cs)
);
}
);
};
hints = (
{
horizontal = 1;
place = (-12, 71);
place = (-12, 71);
type = Stem;
},
{
horizontal = 1;
place = (436, 72);
place = (436, 72);
type = Stem;
},
{
place = (43, 87);
place = (43, 87);
type = Stem;
},
{
place = (452, 86);
place = (452, 86);
type = Stem;
}
);
layerId = m01;
shapes = (
{
closed = 1;
nodes = (
(351,-12,o),
(464,42,o),
(508,162,c),
(422,162,l),
(397,94,o),
(331,59,o),
(263,59,cs),
(190,59,o),
(130,113,o),
(130,208,cs),
(130,312,o),
(196,436,o),
(329,436,cs),
(397,436,o),
(452,402,o),
(452,334,c),
(538,334,l),
(537,441,o),
(461,508,o),
(341,508,cs),
(173,508,o),
(43,374,o),
(43,199,cs),
(43,93,o),
(109,-12,o),
(250,-12,cs)
);
}
);
width = 569;
},
{
anchors = (
{
name = bottom;
pos = (245,0);
},
{
name = top;
pos = (333,496);
}
);
background = {
hints = (
{
horizontal = 1;
place = (-22, 99);
place = (-22, 99);
type = Stem;
},
{
horizontal = 1;
place = (389, 99);
place = (389, 99);
type = Stem;
},
{
place = (34, 122);
place = (34, 122);
type = Stem;
},
{
place = (418, 125);
place = (418, 125);
type = Stem;
}
);
shapes = (
{
closed = 1;
nodes = (
(294,-12,o),
(334,-4,o),
(371,12,cs),
(445,44,o),
(501,103,o),
(529,180,c),
(395,180,l),
(375,127,o),
(325,97,o),
(270,97,cs),
(209,97,o),
(166,142,o),
(166,213,cs),
(166,248,o),
(173,280,o),
(187,308,cs),
(215,364,o),
(266,399,o),
(323,399,cs),
(378,399,o),
(418,369,o),
(418,316,c),
(553,316,l),
(553,436,o),
(470,508,o),
(342,508,cs),
(167,508,o),
(34,373,o),
(34,201,cs),
(34,158,o),
(43,121,o),
(61,89,cs),
(96,25,o),
(163,-12,o),
(251,-12,cs)
);
}
);
};
hints = (
{
horizontal = 1;
place = (-22, 99);
place = (-22, 99);
type = Stem;
},
{
horizontal = 1;
place = (389, 99);
place = (389, 99);
type = Stem;
},
{
place = (34, 122);
place = (34, 122);
type = Stem;
},
{
place = (418, 125);
place = (418, 125);
type = Stem;
}
);
layerId = "C673E357-C9AB-4A21-92F5-E812FFC50395";
shapes = (
{
closed = 1;
nodes = (
(358,-12,o),
(480,45,o),
(529,180,c),
(395,180,l),
(375,127,o),
(325,97,o),
(270,97,cs),
(209,97,o),
(166,142,o),
(166,213,cs),
(166,296,o),
(218,399,o),
(323,399,cs),
(378,399,o),
(418,369,o),
(418,316,c),
(553,316,l),
(553,436,o),
(470,508,o),
(342,508,cs),
(167,508,o),
(34,373,o),
(34,201,cs),
(34,80,o),
(112,-12,o),
(251,-12,cs)
);
}
);
width = 578;
}
);
note = c;
unicode = 99;
},
{
glyphname = d;
kernLeft = c;
lastChange = "2023-01-07 01:40:46 +0000";
layers = (
{
anchors = (
{
name = bottom;
pos = (266,0);
},
{
name = center;
pos = (310,248);
},
{
name = top;
pos = (441,992);
},
{
name = topright;
pos = (731,992);
}
);
background = {
hints = (
{
horizontal = 1;
place = (-12, 73);
place = (-12, 73);
type = Stem;
},
{
horizontal = 1;
place = (435, 73);
place = (435, 73);
type = Stem;
},
{
place = (44, 87);
place = (44, 87);
type = Stem;
}
);
shapes = (
{
closed = 1;
nodes = (
(339,-12,o),
(398,34,o),
(437,82,c),
(430,0,l),
(507,0,l),
(630,700,l),
(546,700,l),
(496,413,l),
(469,470,o),
(414,508,o),
(326,508,cs),
(273,508,o),
(226,495,o),
(183,469,cs),
(98,417,o),
(44,324,o),
(44,207,cs),
(44,167,o),
(52,130,o),
(68,97,cs),
(100,30,o),
(162,-12,o),
(247,-12,cs)
);
},
{
closed = 1;
nodes = (
(184,61,o),
(131,127,o),
(131,215,cs),
(131,257,o),
(140,295,o),
(157,328,cs),
(191,394,o),
(253,435,o),
(329,435,cs),
(416,435,o),
(468,378,o),
(468,291,cs),
(468,249,o),
(460,211,o),
(443,176,cs),
(409,106,o),
(347,61,o),
(271,61,cs)
);
}
);
};
hints = (
{
horizontal = 1;
place = (-12, 73);
place = (-12, 73);
type = Stem;
},
{
horizontal = 1;
place = (435, 73);
place = (435, 73);
type = Stem;
},
{
place = (44, 87);
place = (44, 87);
type = Stem;
}
);
layerId = m01;
shapes = (
{
closed = 1;
nodes = (
(339,-12,o),
(398,34,o),
(437,82,c),
(430,0,l),
(507,0,l),
(630,700,l),
(546,700,l),
(496,413,l),
(469,470,o),
(414,508,o),
(326,508,cs),
(191,508,o),
(44,406,o),
(44,207,cs),
(44,105,o),
(103,-12,o),
(247,-12,cs)
);
},
{
closed = 1;
nodes = (
(184,61,o),
(131,127,o),
(131,215,cs),
(131,257,o),
(140,295,o),
(157,328,cs),
(191,394,o),
(253,435,o),
(329,435,cs),
(416,435,o),
(468,378,o),
(468,291,cs),
(468,249,o),
(460,211,o),
(443,176,cs),
(409,106,o),
(347,61,o),
(271,61,cs)
);
}
);
width = 620;
},
{
anchors = (
{
name = bottom;
pos = (268,0);
},
{
name = center;
pos = (312,248);
},
{
name = top;
pos = (443,992);
},
{
name = topright;
pos = (735,992);
}
);
background = {
hints = (
{
horizontal = 1;
place = (-22, 102);
place = (-22, 102);
type = Stem;
},
{
horizontal = 1;
place = (386, 102);
place = (386, 102);
type = Stem;
},
{
place = (35, 122);
place = (35, 122);
type = Stem;
},
{
horizontal = 1;
place = (-10, 90);
place = (-10, 90);
type = Stem;
}
);
shapes = (
{
closed = 1;
nodes = (
(316,-12,o),
(371,27,o),
(408,71,c),
(410,0,l),
(524,0,l),
(647,700,l),
(520,700,l),
(472,428,l),
(447,475,o),
(398,508,o),
(315,508,cs),
(263,508,o),
(216,495,o),
(174,469,cs),
(89,416,o),
(35,321,o),
(35,208,cs),
(35,167,o),
(43,129,o),
(59,96,cs),
(91,29,o),
(150,-12,o),
(233,-12,cs)
);
},
{
closed = 1;
nodes = (
(210,100,o),
(167,154,o),
(167,223,cs),
(167,256,o),
(174,285,o),
(188,311,cs),
(216,363,o),
(266,396,o),
(329,396,cs),
(401,396,o),
(445,349,o),
(445,280,cs),
(445,247,o),
(438,217,o),
(424,190,cs),
(395,135,o),
(345,100,o),
(282,100,cs)
);
}
);
};
hints = (
{
horizontal = 1;
place = (-22, 102);
place = (-22, 102);
type = Stem;
},
{
horizontal = 1;
place = (386, 102);
place = (386, 102);
type = Stem;
},
{
place = (35, 122);
place = (35, 122);
type = Stem;
},
{
horizontal = 1;
place = (-10, 90);
place = (-10, 90);
type = Stem;
}
);
layerId = "C673E357-C9AB-4A21-92F5-E812FFC50395";
shapes = (
{
closed = 1;
nodes = (
(316,-12,o),
(371,27,o),
(408,71,c),
(410,0,l),
(524,0,l),
(647,700,l),
(520,700,l),
(472,428,l),
(447,475,o),
(398,508,o),
(315,508,cs),
(173,508,o),
(35,393,o),
(35,208,cs),
(35,103,o),
(93,-12,o),
(233,-12,cs)
);
},
{
closed = 1;
nodes = (
(210,100,o),
(167,154,o),
(167,223,cs),
(167,256,o),
(174,285,o),
(188,311,cs),
(216,363,o),
(266,396,o),
(329,396,cs),
(401,396,o),
(445,349,o),
(445,280,cs),
(445,247,o),
(438,217,o),
(424,190,cs),
(395,135,o),
(345,100,o),
(282,100,cs)
);
}
);
width = 624;
}
);
note = d;
unicode = 100;
},
{
glyphname = eth;
kernLeft = c;
lastChange = "2023-01-07 01:40:46 +0000";
layers = (
{
background = {
hints = (
{
horizontal = 1;
place = (-12, 71);
place = (-12, 71);
type = Stem;
},
{
horizontal = 1;
place = (436, 71);
place = (436, 71);
type = Stem;
},
{
horizontal = 1;
place = (641, 59);
place = (641, 59);
type = Stem;
},
{
place = (44, 87);
place = (44, 87);
type = Stem;
},
{
place = (487, 95);
place = (487, 95);
type = Stem;
}
);
shapes = (
{
closed = 1;
nodes = (
(347,-12,o),
(423,18,o),
(483,79,cs),
(543,140,o),
(582,234,o),
(582,359,cs),
(582,452,o),
(556,542,o),
(504,619,c),
(601,651,l),
(612,708,l),
(472,662,l),
(461,675,o),
(450,688,o),
(437,700,c),
(353,700,l),
(373,681,o),
(391,661,o),
(408,641,c),
(307,608,l),
(296,551,l),
(439,598,l),
(475,542,o),
(495,485,o),
(506,424,c),
(474,485,o),
(408,507,o),
(341,507,cs),
(179,507,o),
(44,378,o),
(44,213,cs),
(44,173,o),
(53,136,o),
(71,102,cs),
(107,33,o),
(176,-12,o),
(271,-12,cs)
);
},
{
closed = 1;
nodes = (
(191,59,o),
(131,124,o),
(131,220,cs),
(131,259,o),
(140,295,o),
(159,328,cs),
(195,393,o),
(261,436,o),
(336,436,cs),
(420,436,o),
(487,382,o),
(487,283,cs),
(487,244,o),
(478,207,o),
(459,173,cs),
(421,105,o),
(355,59,o),
(280,59,cs)
);
}
);
};
hints = (
{
horizontal = 1;
place = (-12, 71);
place = (-12, 71);
type = Stem;
},
{
horizontal = 1;
place = (436, 71);
place = (436, 71);
type = Stem;
},
{
horizontal = 1;
place = (641, 59);
place = (641, 59);
type = Stem;
},
{
place = (44, 87);
place = (44, 87);
type = Stem;
},
{
place = (487, 95);
place = (487, 95);
type = Stem;
}
);
layerId = m01;
shapes = (
{
closed = 1;
nodes = (
(439,-12,o),
(582,126,o),
(582,359,cs),
(582,452,o),
(556,542,o),
(504,619,c),
(601,651,l),
(612,708,l),
(472,662,l),
(461,675,o),
(450,688,o),
(437,700,c),
(353,700,l),
(373,681,o),
(391,661,o),
(408,641,c),
(307,608,l),
(296,551,l),
(439,598,l),
(475,542,o),
(495,485,o),
(506,424,c),
(474,485,o),
(408,507,o),
(341,507,cs),
(179,507,o),
(44,378,o),
(44,213,cs),
(44,104,o),
(117,-12,o),
(271,-12,cs)
);
},
{
closed = 1;
nodes = (
(191,59,o),
(131,124,o),
(131,220,cs),
(131,339,o),
(224,436,o),
(336,436,cs),
(420,436,o),
(487,382,o),
(487,283,cs),
(487,182,o),
(409,59,o),
(280,59,cs)
);
}
);
width = 616;
},
{
background = {
hints = (
{
horizontal = 1;
place = (-22, 99);
place = (-22, 99);
type = Stem;
},
{
horizontal = 1;
place = (384, 99);
place = (384, 99);
type = Stem;
},
{
horizontal = 1;
place = (629, 51);
place = (629, 51);
type = Stem;
},
{
place = (36, 122);
place = (36, 122);
type = Stem;
},
{
place = (450, 133);
place = (450, 133);
type = Stem;
}
);
shapes = (
{
closed = 1;
nodes = (
(331,-12,o),
(384,3,o),
(433,33,cs),
(529,93,o),
(593,208,o),
(593,367,cs),
(593,447,o),
(573,533,o),
(530,609,c),
(605,632,l),
(619,709,l),
(489,669,l),
(480,680,o),
(471,690,o),
(461,700,c),
(341,700,l),
(360,681,o),
(377,661,o),
(392,639,c),
(311,614,l),
(297,537,l),
(428,577,l),
(447,537,o),
(461,495,o),
(469,451,c),
(437,488,o),
(389,503,o),
(333,503,cs),
(168,503,o),
(36,380,o),
(36,217,cs),
(36,176,o),
(46,139,o),
(65,104,cs),
(103,35,o),
(175,-12,o),
(274,-12,cs)
);
},
{
closed = 1;
nodes = (
(217,97,o),
(168,148,o),
(168,224,cs),
(168,255,o),
(175,284,o),
(190,310,cs),
(219,361,o),
(270,394,o),
(330,394,cs),
(398,394,o),
(450,351,o),
(450,272,cs),
(450,241,o),
(443,212,o),
(428,186,cs),
(399,133,o),
(347,97,o),
(288,97,cs)
);
}
);
};
hints = (
{
horizontal = 1;
place = (-22, 99);
place = (-22, 99);
type = Stem;
},
{
horizontal = 1;
place = (384, 99);
place = (384, 99);
type = Stem;
},
{
horizontal = 1;
place = (629, 51);
place = (629, 51);
type = Stem;
},
{
place = (36, 122);
place = (36, 122);
type = Stem;
},
{
place = (450, 133);
place = (450, 133);
type = Stem;
}
);
layerId = "C673E357-C9AB-4A21-92F5-E812FFC50395";
shapes = (
{
closed = 1;
nodes = (
(438,-12,o),
(593,119,o),
(593,367,cs),
(593,447,o),
(573,533,o),
(530,609,c),
(605,632,l),
(619,709,l),
(489,669,l),
(480,680,o),
(471,690,o),
(461,700,c),
(341,700,l),
(360,681,o),
(377,661,o),
(392,639,c),
(311,614,l),
(297,537,l),
(428,577,l),
(447,537,o),
(461,495,o),
(469,451,c),
(437,488,o),
(389,503,o),
(333,503,cs),
(168,503,o),
(36,380,o),
(36,217,cs),
(36,108,o),
(115,-12,o),
(274,-12,cs)
);
},
{
closed = 1;
nodes = (
(217,97,o),
(168,148,o),
(168,224,cs),
(168,299,o),
(222,394,o),
(330,394,cs),
(398,394,o),
(450,351,o),
(450,272,cs),
(450,197,o),
(393,97,o),
(288,97,cs)
);
}
);
width = 616;
}
);
note = eth;
unicode = 240;
},
{
glyphname = dcroat;
kernLeft = c;
lastChange = "2023-01-07 01:40:46 +0000";
layers = (
{
background = {
hints = (
{
horizontal = 1;
place = (-12, 73);
place = (-12, 73);
type = Stem;
},
{
horizontal = 1;
place = (435, 73);
place = (435, 73);
type = Stem;
},
{
horizontal = 1;
place = (570, 65);
place = (570, 65);
type = Stem;
},
{
place = (44, 87);
place = (44, 87);
type = Stem;
}
);
shapes = (
{
closed = 1;
nodes = (
(339,-12,o),
(398,34,o),
(437,82,c),
(430,0,l),
(507,0,l),
(608,570,l),
(684,570,l),
(695,635,l),
(619,635,l),
(630,700,l),
(546,700,l),
(535,635,l),
(393,635,l),
(381,570,l),
(524,570,l),
(496,413,l),
(469,470,o),
(414,508,o),
(326,508,cs),
(273,508,o),
(226,495,o),
(183,469,cs),
(98,417,o),
(44,324,o),
(44,207,cs),
(44,167,o),
(52,130,o),
(68,97,cs),
(100,30,o),
(162,-12,o),
(247,-12,cs)
);
},
{
closed = 1;
nodes = (
(184,61,o),
(131,127,o),
(131,215,cs),
(131,257,o),
(140,295,o),
(157,328,cs),
(191,394,o),
(253,435,o),
(329,435,cs),
(416,435,o),
(468,378,o),
(468,291,cs),
(468,249,o),
(460,211,o),
(443,176,cs),
(409,106,o),
(347,61,o),
(271,61,cs)
);
}
);
};
hints = (
{
horizontal = 1;
place = (-12, 73);
place = (-12, 73);
type = Stem;
},
{
horizontal = 1;
place = (435, 73);
place = (435, 73);
type = Stem;
},
{
horizontal = 1;
place = (570, 65);
place = (570, 65);
type = Stem;
},
{
place = (44, 87);
place = (44, 87);
type = Stem;
}
);
layerId = m01;
shapes = (
{
closed = 1;
nodes = (
(339,-12,o),
(398,34,o),
(437,82,c),
(430,0,l),
(507,0,l),
(608,570,l),
(684,570,l),
(695,635,l),
(619,635,l),
(630,700,l),
(546,700,l),
(535,635,l),
(393,635,l),
(381,570,l),
(524,570,l),
(496,413,l),
(469,470,o),
(414,508,o),
(326,508,cs),
(191,508,o),
(44,406,o),
(44,207,cs),
(44,105,o),
(103,-12,o),
(247,-12,cs)
);
},
{
closed = 1;
nodes = (
(184,61,o),
(131,127,o),
(131,215,cs),
(131,318,o),
(195,435,o),
(329,435,cs),
(416,435,o),
(468,378,o),
(468,291,cs),
(468,189,o),
(405,61,o),
(271,61,cs)
);
}
);
width = 666;
},
{
background = {
hints = (
{
horizontal = 1;
place = (-22, 102);
place = (-22, 102);
type = Stem;
},
{
horizontal = 1;
place = (556, 68);
place = (556, 68);
type = Stem;
},
{
place = (35, 122);
place = (35, 122);
type = Stem;
},
{
horizontal = 1;
place = (-10, 90);
place = (-10, 90);
type = Stem;
},
{
horizontal = 1;
place = (386, 102);
place = (386, 102);
type = Stem;
}
);
shapes = (
{
closed = 1;
nodes = (
(316,-12,o),
(371,27,o),
(408,71,c),
(410,0,l),
(524,0,l),
(624,566,l),
(695,566,l),
(709,644,l),
(638,644,l),
(648,700,l),
(520,700,l),
(510,644,l),
(376,644,l),
(362,566,l),
(496,566,l),
(472,428,l),
(447,475,o),
(398,508,o),
(315,508,cs),
(263,508,o),
(216,495,o),
(174,469,cs),
(89,416,o),
(35,321,o),
(35,208,cs),
(35,167,o),
(43,129,o),
(59,96,cs),
(91,29,o),
(150,-12,o),
(233,-12,cs)
);
},
{
closed = 1;
nodes = (
(210,100,o),
(167,154,o),
(167,223,cs),
(167,256,o),
(174,285,o),
(188,311,cs),
(216,363,o),
(266,396,o),
(329,396,cs),
(401,396,o),
(445,349,o),
(445,280,cs),
(445,247,o),
(438,217,o),
(424,190,cs),
(395,135,o),
(345,100,o),
(282,100,cs)
);
}
);
};
hints = (
{
horizontal = 1;
place = (-22, 102);
place = (-22, 102);
type = Stem;
},
{
horizontal = 1;
place = (556, 68);
place = (556, 68);
type = Stem;
},
{
place = (35, 122);
place = (35, 122);
type = Stem;
},
{
horizontal = 1;
place = (-10, 90);
place = (-10, 90);
type = Stem;
},
{
horizontal = 1;
place = (386, 102);
place = (386, 102);
type = Stem;
}
);
layerId = "C673E357-C9AB-4A21-92F5-E812FFC50395";
shapes = (
{
closed = 1;
nodes = (
(316,-12,o),
(371,27,o),
(408,71,c),
(410,0,l),
(524,0,l),
(624,566,l),
(695,566,l),
(709,644,l),
(638,644,l),
(648,700,l),
(520,700,l),
(510,644,l),
(376,644,l),
(362,566,l),
(496,566,l),
(472,428,l),
(447,475,o),
(398,508,o),
(315,508,cs),
(173,508,o),
(35,393,o),
(35,208,cs),
(35,103,o),
(93,-12,o),
(233,-12,cs)
);
},
{
closed = 1;
nodes = (
(210,100,o),
(167,154,o),
(167,223,cs),
(167,298,o),
(216,396,o),
(329,396,cs),
(401,396,o),
(445,349,o),
(445,280,cs),
(445,198,o),
(390,100,o),
(282,100,cs)
);
}
);
width = 655;
}
);
note = dcroat;
unicode = 273;
},
{
glyphname = e;
kernLeft = c;
kernRight = ae;
lastChange = "2023-01-07 01:40:46 +0000";
layers = (
{
anchors = (
{
name = bottom;
pos = (240,0);
},
{
name = ogonek;
pos = (355,10);
},
{
name = top;
pos = (328,496);
}
);
background = {
hints = (
{
horizontal = 1;
place = (-12, 71);
place = (-12, 71);
type = Stem;
},
{
horizontal = 1;
place = (229, 65);
place = (229, 65);
type = Stem;
},
{
horizontal = 1;
place = (437, 71);
place = (437, 71);
type = Stem;
},
{
place = (43, 82);
place = (43, 82);
type = Stem;
},
{
place = (454, 82);
place = (454, 82);
type = Stem;
}
);
shapes = (
{
closed = 1;
nodes = (
(363,-12,o),
(454,56,o),
(495,148,c),
(412,148,l),
(383,95,o),
(328,59,o),
(259,59,cs),
(187,59,o),
(125,104,o),
(125,199,cs),
(125,208,o),
(126,218,o),
(127,229,c),
(523,229,l),
(528,254,o),
(536,292,o),
(536,319,cs),
(536,354,o),
(529,385,o),
(514,414,cs),
(484,471,o),
(424,508,o),
(337,508,cs),
(280,508,o),
(230,494,o),
(186,467,cs),
(97,411,o),
(43,313,o),
(43,198,cs),
(43,70,o),
(123,-12,o),
(246,-12,cs)
);
},
{
closed = 1;
nodes = (
(167,387,o),
(246,437,o),
(326,437,cs),
(403,437,o),
(454,392,o),
(454,316,cs),
(454,309,o),
(453,302,o),
(452,294,c),
(140,294,l)
);
}
);
};
hints = (
{
horizontal = 1;
place = (-12, 71);
place = (-12, 71);
type = Stem;
},
{
horizontal = 1;
place = (229, 65);
place = (229, 65);
type = Stem;
},
{
horizontal = 1;
place = (437, 71);
place = (437, 71);
type = Stem;
},
{
place = (43, 82);
place = (43, 82);
type = Stem;
},
{
place = (454, 82);
place = (454, 82);
type = Stem;
}
);
layerId = m01;
shapes = (
{
closed = 1;
nodes = (
(363,-12,o),
(454,56,o),
(495,148,c),
(412,148,l),
(383,95,o),
(328,59,o),
(259,59,cs),
(187,59,o),
(125,104,o),
(125,199,cs),
(125,208,o),
(126,218,o),
(127,229,c),
(523,229,l),
(528,254,o),
(536,292,o),
(536,319,cs),
(536,408,o),
(483,508,o),
(337,508,cs),
(194,508,o),
(43,399,o),
(43,198,cs),
(43,70,o),
(123,-12,o),
(246,-12,cs)
);
},
{
closed = 1;
nodes = (
(167,387,o),
(246,437,o),
(326,437,cs),
(403,437,o),
(454,392,o),
(454,316,cs),
(454,309,o),
(453,302,o),
(452,294,c),
(140,294,l)
);
}
);
width = 568;
},
{
anchors = (
{
name = bottom;
pos = (244,0);
},
{
name = ogonek;
pos = (360,10);
},
{
name = top;
pos = (332,496);
}
);
background = {
hints = (
{
horizontal = 1;
place = (-22, 95);
place = (-22, 95);
type = Stem;
},
{
horizontal = 1;
place = (207, 70);
place = (207, 70);
type = Stem;
},
{
horizontal = 1;
place = (394, 94);
place = (394, 94);
type = Stem;
},
{
place = (34, 116);
place = (34, 116);
type = Stem;
},
{
place = (425, 117);
place = (425, 117);
type = Stem;
}
);
shapes = (
{
closed = 1;
nodes = (
(350,-12,o),
(459,42,o),
(514,156,c),
(384,156,l),
(359,119,o),
(319,93,o),
(268,93,cs),
(204,93,o),
(160,133,o),
(160,200,cs),
(160,206,o),
(160,211,o),
(161,217,c),
(537,217,l),
(545,242,o),
(552,279,o),
(552,311,cs),
(552,429,o),
(471,508,o),
(341,508,cs),
(161,508,o),
(34,370,o),
(34,199,cs),
(34,70,o),
(118,-12,o),
(250,-12,cs)
);
},
{
closed = 1;
nodes = (
(202,369,o),
(263,404,o),
(324,404,cs),
(385,404,o),
(426,367,o),
(425,308,cs),
(425,306,o),
(425,302,o),
(424,297,c),
(177,297,l)
);
}
);
};
hints = (
{
horizontal = 1;
place = (-22, 95);
place = (-22, 95);
type = Stem;
},
{
horizontal = 1;
place = (207, 70);
place = (207, 70);
type = Stem;
},
{
horizontal = 1;
place = (394, 94);
place = (394, 94);
type = Stem;
},
{
place = (34, 116);
place = (34, 116);
type = Stem;
},
{
place = (425, 117);
place = (425, 117);
type = Stem;
}
);
layerId = "C673E357-C9AB-4A21-92F5-E812FFC50395";
shapes = (
{
closed = 1;
nodes = (
(350,-12,o),
(459,42,o),
(514,156,c),
(384,156,l),
(359,119,o),
(319,93,o),
(268,93,cs),
(204,93,o),
(160,133,o),
(160,200,cs),
(160,206,o),
(160,211,o),
(161,217,c),
(537,217,l),
(545,242,o),
(552,279,o),
(552,311,cs),
(552,429,o),
(471,508,o),
(341,508,cs),
(161,508,o),
(34,370,o),
(34,199,cs),
(34,70,o),
(118,-12,o),
(250,-12,cs)
);
},
{
closed = 1;
nodes = (
(202,369,o),
(263,404,o),
(324,404,cs),
(385,404,o),
(426,367,o),
(425,308,cs),
(425,306,o),
(425,302,o),
(424,297,c),
(177,297,l)
);
}
);
width = 576;
}
);
note = e;
unicode = 101;
},
{
glyphname = schwa;
kernLeft = c;
kernRight = b;
lastChange = "2023-01-07 01:41:50 +0000";
layers = (
{
hints = (
{
horizontal = 1;
place = (-12, 71);
place = (-12, 71);
type = Stem;
},
{
horizontal = 1;
place = (202, 65);
place = (202, 65);
type = Stem;
},
{
horizontal = 1;
place = (437, 71);
place = (437, 71);
type = Stem;
},
{
place = (32, 82);
place = (32, 82);
type = Stem;
},
{
place = (443, 82);
place = (443, 82);
type = Stem;
}
);
layerId = m01;
shapes = (
{
closed = 1;
nodes = (
(403,-12,o),
(525,128,o),
(525,298,cs),
(525,426,o),
(445,508,o),
(322,508,cs),
(205,508,o),
(114,440,o),
(73,348,c),
(156,348,l),
(185,401,o),
(240,437,o),
(309,437,cs),
(381,437,o),
(443,392,o),
(443,297,cs),
(443,287,o),
(442,275,o),
(441,267,c),
(45,267,l),
(40,242,o),
(32,204,o),
(32,177,cs),
(32,80,o),
(94,-12,o),
(231,-12,cs)
);
},
{
closed = 1;
nodes = (
(165,59,o),
(114,104,o),
(114,180,cs),
(114,187,o),
(115,194,o),
(116,202,c),
(428,202,l),
(401,109,o),
(322,59,o),
(242,59,cs)
);
}
);
width = 568;
},
{
hints = (
{
horizontal = 1;
place = (-22, 94);
place = (-22, 94);
type = Stem;
},
{
horizontal = 1;
place = (189, 70);
place = (189, 70);
type = Stem;
},
{
horizontal = 1;
place = (393, 95);
place = (393, 95);
type = Stem;
},
{
place = (24, 117);
place = (24, 117);
type = Stem;
},
{
place = (416, 116);
place = (416, 116);
type = Stem;
}
);
layerId = "C673E357-C9AB-4A21-92F5-E812FFC50395";
shapes = (
{
closed = 1;
nodes = (
(415,-12,o),
(542,126,o),
(542,297,cs),
(542,426,o),
(458,508,o),
(326,508,cs),
(203,508,o),
(107,432,o),
(62,340,c),
(192,340,l),
(217,377,o),
(257,403,o),
(308,403,cs),
(372,403,o),
(416,363,o),
(416,296,cs),
(416,290,o),
(416,285,o),
(415,279,c),
(39,279,l),
(31,254,o),
(24,217,o),
(24,185,cs),
(24,85,o),
(91,-12,o),
(235,-12,cs)
);
},
{
closed = 1;
nodes = (
(191,92,o),
(150,129,o),
(151,188,cs),
(151,190,o),
(151,194,o),
(152,199,c),
(399,199,l),
(374,127,o),
(313,92,o),
(252,92,cs)
);
}
);
width = 576;
}
);
note = uni0259;
unicode = 601;
},
{
glyphname = f;
lastChange = "2023-01-20 01:03:21 +0000";
layers = (
{
hints = (
{
horizontal = 1;
place = (425, 71);
place = (425, 71);
type = Stem;
},
{
horizontal = 1;
place = (648, 72);
place = (648, 72);
type = Stem;
},
{
place = (52, 318);
place = (52, 318);
type = Stem;
}
);
layerId = m01;
shapes = (
{
closed = 1;
nodes = (
(136,0,l),
(211,425,l),
(333,425,l),
(346,496,l),
(223,496,l),
(235,560,ls),
(244,609,o),
(267,628,o),
(318,628,cs),
(354,628,l),
(367,700,l),
(318,700,ls),
(225,700,o),
(168,658,o),
(151,562,cs),
(139,496,l),
(65,496,l),
(53,425,l),
(127,425,l),
(52,0,l)
);
}
);
width = 334;
},
{
hints = (
{
horizontal = 1;
place = (379, 97);
place = (379, 97);
type = Stem;
},
{
horizontal = 1;
place = (601, 99);
place = (601, 99);
type = Stem;
},
{
place = (35, 341);
place = (35, 341);
type = Stem;
}
);
layerId = "C673E357-C9AB-4A21-92F5-E812FFC50395";
shapes = (
{
closed = 1;
nodes = (
(167,0,l),
(236,389,l),
(325,389,l),
(344,496,l),
(255,496,l),
(261,534,ls),
(269,575,o),
(288,591,o),
(332,591,cs),
(354,591,l),
(374,700,l),
(332,700,ls),
(228,700,o),
(155,654,o),
(133,534,cs),
(127,496,l),
(69,496,l),
(50,389,l),
(108,389,l),
(39,0,l)
);
}
);
width = 335;
}
);
note = f;
unicode = 102;
},
{
glyphname = g;
kernLeft = g;
kernRight = g;
lastChange = "2023-01-20 01:10:13 +0000";
layers = (
{
anchors = (
{
name = bottom;
pos = (175,-310);
},
{
name = top;
pos = (317,496);
}
);
background = {
hints = (
{
horizontal = 1;
place = (-232, 69);
place = (-232, 69);
type = Stem;
},
{
horizontal = 1;
place = (22, 67);
place = (22, 67);
type = Stem;
},
{
horizontal = 1;
place = (156, 69);
place = (156, 69);
type = Stem;
},
{
horizontal = 1;
place = (440, 68);
place = (440, 68);
type = Stem;
},
{
place = (-27, 594);
place = (-27, 594);
type = Stem;
},
{
horizontal = 1;
place = (438, 70);
place = (438, 70);
type = Stem;
}
);
shapes = (
{
closed = 1;
nodes = (
(298,-232,o),
(430,-164,o),
(430,-31,cs),
(430,62,o),
(337,89,o),
(228,89,cs),
(143,89,ls),
(118,89,o),
(106,105,o),
(106,120,cs),
(106,139,o),
(130,156,o),
(155,156,cs),
(244,156,ls),
(286,156,o),
(324,164,o),
(355,180,cs),
(419,211,o),
(461,267,o),
(472,332,cs),
(474,343,o),
(475,354,o),
(475,365,cs),
(475,390,o),
(470,414,o),
(459,434,c),
(535,490,l),
(498,547,l),
(414,482,l),
(413,483,o),
(411,484,o),
(409,485,cs),
(383,500,o),
(348,508,o),
(306,508,cs),
(264,508,o),
(227,500,o),
(195,485,cs),
(131,453,o),
(90,397,o),
(78,332,cs),
(76,320,o),
(75,309,o),
(75,298,cs),
(75,259,o),
(88,226,o),
(114,200,c),
(73,184,o),
(40,160,o),
(32,115,cs),
(27,85,o),
(43,59,o),
(67,44,c),
(21,17,o),
(-15,-19,o),
(-24,-72,cs),
(-26,-83,o),
(-27,-93,o),
(-27,-102,cs),
(-27,-125,o),
(-22,-145,o),
(-11,-162,cs),
(20,-209,o),
(88,-232,o),
(177,-232,cs)
);
},
{
closed = 1;
nodes = (
(110,-163,o),
(57,-141,o),
(57,-85,cs),
(57,-79,o),
(58,-73,o),
(59,-67,cs),
(71,1,o),
(131,22,o),
(217,22,cs),
(291,22,o),
(345,5,o),
(345,-50,cs),
(345,-55,o),
(344,-61,o),
(343,-67,cs),
(331,-132,o),
(269,-163,o),
(184,-163,cs)
);
},
{
closed = 1;
nodes = (
(193,225,o),
(156,254,o),
(156,308,cs),
(156,316,o),
(157,324,o),
(158,332,cs),
(170,400,o),
(222,438,o),
(294,438,cs),
(357,438,o),
(393,409,o),
(393,356,cs),
(393,348,o),
(392,340,o),
(391,332,cs),
(379,263,o),
(327,225,o),
(256,225,cs)
);
}
);
};
hints = (
{
horizontal = 1;
place = (-232, 69);
place = (-232, 69);
type = Stem;
},
{
horizontal = 1;
place = (22, 67);
place = (22, 67);
type = Stem;
},
{
horizontal = 1;
place = (156, 69);
place = (156, 69);
type = Stem;
},
{
horizontal = 1;
place = (440, 68);
place = (440, 68);
type = Stem;
},
{
place = (-27, 594);
place = (-27, 594);
type = Stem;
},
{
horizontal = 1;
place = (438, 70);
place = (438, 70);
type = Stem;
}
);
layerId = m01;
shapes = (
{
closed = 1;
nodes = (
(298,-232,o),
(430,-174,o),
(430,-41,cs),
(430,52,o),
(337,89,o),
(228,89,cs),
(143,89,ls),
(118,89,o),
(106,105,o),
(106,120,cs),
(106,143,o),
(130,156,o),
(155,156,cs),
(244,156,ls),
(397,156,o),
(475,266,o),
(475,365,cs),
(475,390,o),
(470,414,o),
(459,434,c),
(535,490,l),
(498,547,l),
(414,482,l),
(383,500,o),
(348,508,o),
(306,508,cs),
(174,508,o),
(75,419,o),
(75,298,cs),
(75,259,o),
(88,226,o),
(114,200,c),
(69,183,o),
(31,152,o),
(31,105,cs),
(31,80,o),
(43,59,o),
(67,44,c),
(2,9,o),
(-27,-31,o),
(-27,-92,cs),
(-27,-166,o),
(43,-232,o),
(177,-232,cs)
);
},
{
closed = 1;
nodes = (
(110,-163,o),
(57,-130,o),
(57,-75,cs),
(57,-25,o),
(97,22,o),
(217,22,cs),
(291,22,o),
(345,-1,o),
(345,-56,cs),
(345,-106,o),
(304,-163,o),
(184,-163,cs)
);
},
{
closed = 1;
nodes = (
(193,225,o),
(156,254,o),
(156,308,cs),
(156,354,o),
(184,438,o),
(294,438,cs),
(357,438,o),
(393,409,o),
(393,356,cs),
(393,310,o),
(366,225,o),
(256,225,cs)
);
}
);
width = 546;
},
{
anchors = (
{
name = bottom;
pos = (172,-310);
},
{
name = top;
pos = (314,496);
}
);
background = {
hints = (
{
horizontal = 1;
place = (-242, 87);
place = (-242, 87);
type = Stem;
},
{
horizontal = 1;
place = (-6, 80);
place = (-6, 80);
type = Stem;
},
{
horizontal = 1;
place = (138, 88);
place = (138, 88);
type = Stem;
},
{
horizontal = 1;
place = (408, 80);
place = (408, 80);
type = Stem;
},
{
place = (-32, 597);
place = (-32, 597);
type = Stem;
},
{
place = (71, 39);
place = (71, 39);
type = Stem;
},
{
place = (23, 87);
place = (23, 87);
type = Stem;
},
{
horizontal = 1;
place = (398, 90);
place = (398, 90);
type = Stem;
}
);
shapes = (
{
closed = 1;
nodes = (
(358,-231,o),
(439,-127,o),
(439,-30,cs),
(439,62,o),
(350,94,o),
(233,94,cs),
(155,94,ls),
(136,94,o),
(125,104,o),
(125,118,cs),
(125,133,o),
(140,148,o),
(164,148,cs),
(248,148,ls),
(362,148,o),
(464,219,o),
(483,328,cs),
(485,340,o),
(486,351,o),
(486,362,cs),
(486,382,o),
(483,401,o),
(476,418,c),
(549,469,l),
(492,549,l),
(411,487,l),
(384,501,o),
(351,508,o),
(312,508,cs),
(194,508,o),
(97,438,o),
(78,328,cs),
(76,317,o),
(75,306,o),
(75,295,cs),
(75,259,o),
(87,229,o),
(110,203,c),
(62,183,o),
(24,144,o),
(24,89,cs),
(24,63,o),
(33,44,o),
(49,30,c),
(8,9,o),
(-29,-32,o),
(-29,-96,cs),
(-29,-176,o),
(40,-231,o),
(176,-231,cs)
);
},
{
closed = 1;
nodes = (
(135,-132,o),
(92,-117,o),
(92,-77,cs),
(92,-73,o),
(92,-69,o),
(93,-65,cs),
(101,-17,o),
(149,-1,o),
(216,-1,cs),
(276,-1,o),
(319,-13,o),
(319,-53,cs),
(319,-57,o),
(319,-60,o),
(318,-64,cs),
(309,-111,o),
(261,-132,o),
(194,-132,cs)
);
},
{
closed = 1;
nodes = (
(221,247,o),
(188,268,o),
(188,312,cs),
(188,317,o),
(188,322,o),
(189,328,cs),
(198,381,o),
(240,408,o),
(294,408,cs),
(342,408,o),
(373,387,o),
(373,345,cs),
(373,285,o),
(324,247,o),
(266,247,cs)
);
}
);
};
hints = (
{
horizontal = 1;
place = (-242, 87);
place = (-242, 87);
type = Stem;
},
{
horizontal = 1;
place = (-6, 80);
place = (-6, 80);
type = Stem;
},
{
horizontal = 1;
place = (138, 88);
place = (138, 88);
type = Stem;
},
{
horizontal = 1;
place = (408, 80);
place = (408, 80);
type = Stem;
},
{
place = (-32, 597);
place = (-32, 597);
type = Stem;
},
{
place = (71, 39);
place = (71, 39);
type = Stem;
},
{
place = (23, 87);
place = (23, 87);
type = Stem;
},
{
horizontal = 1;
place = (398, 90);
place = (398, 90);
type = Stem;
}
);
layerId = "C673E357-C9AB-4A21-92F5-E812FFC50395";
shapes = (
{
closed = 1;
nodes = (
(344,-231,o),
(439,-145,o),
(439,-42,cs),
(439,50,o),
(350,94,o),
(233,94,cs),
(155,94,ls),
(136,94,o),
(125,104,o),
(125,120,cs),
(125,135,o),
(140,148,o),
(164,148,cs),
(248,148,ls),
(412,148,o),
(486,273,o),
(486,362,cs),
(486,382,o),
(483,401,o),
(476,418,c),
(549,469,l),
(492,549,l),
(411,487,l),
(384,501,o),
(351,508,o),
(312,508,cs),
(134,508,o),
(75,372,o),
(75,295,cs),
(75,259,o),
(87,229,o),
(110,203,c),
(62,183,o),
(24,144,o),
(24,89,cs),
(24,63,o),
(33,44,o),
(49,30,c),
(8,9,o),
(-29,-24,o),
(-29,-88,cs),
(-29,-168,o),
(40,-231,o),
(176,-231,cs)
);
},
{
closed = 1;
nodes = (
(129,-132,o),
(92,-111,o),
(92,-71,cs),
(92,-27,o),
(140,-1,o),
(216,-1,cs),
(276,-1,o),
(319,-13,o),
(319,-57,cs),
(319,-108,o),
(261,-132,o),
(194,-132,cs)
);
},
{
closed = 1;
nodes = (
(221,247,o),
(188,268,o),
(188,312,cs),
(188,347,o),
(210,408,o),
(294,408,cs),
(342,408,o),
(373,387,o),
(373,345,cs),
(373,285,o),
(324,247,o),
(266,247,cs)
);
}
);
width = 540;
}
);
note = g;
unicode = 103;
},
{
glyphname = h;
kernRight = h;
lastChange = "2023-01-09 23:24:14 +0000";
layers = (
{
background = {
hints = (
{
horizontal = 1;
place = (436, 72);
place = (436, 72);
type = Stem;
},
{
place = (440, 88);
place = (440, 88);
type = Stem;
}
);
shapes = (
{
closed = 1;
nodes = (
(110,0,l),
(155,257,ls),
(175,372,o),
(251,436,o),
(336,436,cs),
(406,436,o),
(441,401,o),
(441,331,cs),
(441,316,o),
(439,299,o),
(436,281,cs),
(387,0,l),
(471,0,l),
(522,290,ls),
(526,312,o),
(528,333,o),
(528,352,cs),
(528,458,o),
(466,508,o),
(368,508,cs),
(295,508,o),
(225,471,o),
(182,411,c),
(233,700,l),
(149,700,l),
(26,0,l)
);
}
);
};
hints = (
{
horizontal = 1;
place = (436, 72);
place = (436, 72);
type = Stem;
},
{
place = (440, 88);
place = (440, 88);
type = Stem;
}
);
layerId = m01;
shapes = (
{
closed = 1;
nodes = (
(110,0,l),
(155,257,ls),
(175,372,o),
(251,436,o),
(336,436,cs),
(406,436,o),
(441,401,o),
(441,331,cs),
(441,316,o),
(439,299,o),
(436,281,cs),
(387,0,l),
(471,0,l),
(522,290,ls),
(526,312,o),
(528,333,o),
(528,352,cs),
(528,458,o),
(466,508,o),
(368,508,cs),
(295,508,o),
(225,471,o),
(182,411,c),
(233,700,l),
(149,700,l),
(26,0,l)
);
}
);
width = 573;
},
{
background = {
hints = (
{
horizontal = 1;
place = (390, 98);
place = (390, 98);
type = Stem;
},
{
place = (422, 122);
place = (422, 122);
type = Stem;
}
);
shapes = (
{
closed = 1;
nodes = (
(140,0,l),
(185,257,l),
(185,256,ls),
(202,347,o),
(262,400,o),
(333,400,cs),
(394,400,o),
(422,369,o),
(422,311,cs),
(422,298,o),
(421,284,o),
(418,268,cs),
(370,0,l),
(498,0,l),
(548,280,ls),
(552,303,o),
(554,325,o),
(554,345,cs),
(554,452,o),
(498,508,o),
(394,508,cs),
(319,508,o),
(255,473,o),
(214,420,c),
(263,700,l),
(135,700,l),
(12,0,l)
);
}
);
};
hints = (
{
horizontal = 1;
place = (390, 98);
place = (390, 98);
type = Stem;
},
{
place = (422, 122);
place = (422, 122);
type = Stem;
}
);
layerId = "C673E357-C9AB-4A21-92F5-E812FFC50395";
shapes = (
{
closed = 1;
nodes = (
(140,0,l),
(185,256,ls),
(202,347,o),
(262,400,o),
(333,400,cs),
(394,400,o),
(422,369,o),
(422,311,cs),
(422,298,o),
(421,284,o),
(418,268,cs),
(370,0,l),
(498,0,l),
(548,280,ls),
(552,303,o),
(554,325,o),
(554,345,cs),
(554,452,o),
(498,508,o),
(394,508,cs),
(319,508,o),
(255,473,o),
(214,420,c),
(263,700,l),
(135,700,l),
(12,0,l)
);
}
);
width = 589;
}
);
note = h;
unicode = 104;
},
{
glyphname = hbar;
kernRight = h;
lastChange = "2023-01-09 23:26:22 +0000";
layers = (
{
background = {
hints = (
{
horizontal = 1;
place = (436, 72);
place = (436, 72);
type = Stem;
},
{
place = (440, 88);
place = (440, 88);
type = Stem;
}
);
shapes = (
{
closed = 1;
nodes = (
(110,0,l),
(155,257,ls),
(175,372,o),
(251,436,o),
(336,436,cs),
(406,436,o),
(441,401,o),
(441,331,cs),
(441,316,o),
(439,299,o),
(436,281,cs),
(387,0,l),
(471,0,l),
(522,290,ls),
(526,312,o),
(528,333,o),
(528,352,cs),
(528,458,o),
(466,508,o),
(368,508,cs),
(295,508,o),
(225,471,o),
(182,411,c),
(233,700,l),
(149,700,l),
(26,0,l)
);
}
);
};
hints = (
{
horizontal = 1;
place = (436, 72);
place = (436, 72);
type = Stem;
},
{
place = (440, 88);
place = (440, 88);
type = Stem;
}
);
layerId = m01;
shapes = (
{
closed = 1;
nodes = (
(110,0,l),
(155,257,ls),
(175,372,o),
(251,436,o),
(336,436,cs),
(406,436,o),
(441,401,o),
(441,331,cs),
(441,316,o),
(439,299,o),
(436,281,cs),
(387,0,l),
(471,0,l),
(522,290,ls),
(526,312,o),
(528,333,o),
(528,352,cs),
(528,458,o),
(466,508,o),
(368,508,cs),
(295,508,o),
(225,471,o),
(182,411,c),
(233,700,l),
(149,700,l),
(26,0,l)
);
},
{
closed = 1;
nodes = (
(381,571,l),
(392,634,l),
(90,634,l),
(79,571,l)
);
}
);
width = 573;
},
{
background = {
hints = (
{
horizontal = 1;
place = (390, 98);
place = (390, 98);
type = Stem;
},
{
place = (422, 122);
place = (422, 122);
type = Stem;
}
);
shapes = (
{
closed = 1;
nodes = (
(140,0,l),
(185,257,l),
(185,256,ls),
(202,347,o),
(262,400,o),
(333,400,cs),
(394,400,o),
(422,369,o),
(422,311,cs),
(422,298,o),
(421,284,o),
(418,268,cs),
(370,0,l),
(498,0,l),
(548,280,ls),
(552,303,o),
(554,325,o),
(554,345,cs),
(554,452,o),
(498,508,o),
(394,508,cs),
(319,508,o),
(255,473,o),
(214,420,c),
(263,700,l),
(135,700,l),
(12,0,l)
);
}
);
};
hints = (
{
horizontal = 1;
place = (390, 98);
place = (390, 98);
type = Stem;
},
{
place = (422, 122);
place = (422, 122);
type = Stem;
}
);
layerId = "C673E357-C9AB-4A21-92F5-E812FFC50395";
shapes = (
{
closed = 1;
nodes = (
(140,0,l),
(185,256,ls),
(201,347,o),
(262,400,o),
(333,400,cs),
(394,400,o),
(422,369,o),
(422,311,cs),
(422,298,o),
(421,284,o),
(418,268,cs),
(370,0,l),
(498,0,l),
(548,280,ls),
(552,303,o),
(554,325,o),
(554,345,cs),
(554,452,o),
(498,508,o),
(394,508,cs),
(319,508,o),
(255,473,o),
(214,420,c),
(263,700,l),
(135,700,l),
(12,0,l)
);
},
{
closed = 1;
nodes = (
(397,558,l),
(413,648,l),
(90,648,l),
(74,558,l)
);
}
);
width = 589;
}
);
note = h;
unicode = 295;
},
{
glyphname = i;
lastChange = "2023-01-07 01:40:46 +0000";
layers = (
{
anchors = (
{
name = bottom;
pos = (77,0);
}
);
hints = (
{
horizontal = 1;
place = (606, 114);
place = (606, 114);
type = Stem;
},
{
place = (136, 116);
place = (136, 116);
type = Stem;
}
);
layerId = m01;
shapes = (
{
closed = 1;
nodes = (
(119,0,l),
(206,496,l),
(122,496,l),
(35,0,l)
);
},
{
closed = 1;
nodes = (
(226,606,o),
(252,630,o),
(252,663,cs),
(252,696,o),
(226,720,o),
(194,720,cs),
(161,720,o),
(136,696,o),
(136,663,cs),
(136,630,o),
(161,606,o),
(194,606,cs)
);
}
);
width = 241;
},
{
anchors = (
{
name = bottom;
pos = (81,0);
}
);
hints = (
{
horizontal = 1;
place = (-10, 716);
place = (-10, 716);
type = Stem;
},
{
place = (17, 248);
place = (17, 248);
type = Stem;
}
);
layerId = "C673E357-C9AB-4A21-92F5-E812FFC50395";
shapes = (
{
closed = 1;
nodes = (
(145,0,l),
(232,496,l),
(104,496,l),
(17,0,l)
);
},
{
closed = 1;
nodes = (
(239,566,o),
(275,602,o),
(275,646,cs),
(275,691,o),
(239,726,o),
(195,726,cs),
(151,726,o),
(115,691,o),
(115,646,cs),
(115,602,o),
(151,566,o),
(195,566,cs)
);
}
);
width = 250;
}
);
note = i;
unicode = 105;
},
{
glyphname = idotless;
kernLeft = dotlessi;
kernRight = dotlessi;
lastChange = "2023-01-07 01:41:50 +0000";
layers = (
{
anchors = (
{
name = bottom;
pos = (68,0);
},
{
name = ogonek;
pos = (110,0);
},
{
name = top;
pos = (156,496);
}
);
hints = (
{
horizontal = 1;
place = (0, 496);
place = (0, 496);
type = Stem;
},
{
place = (26, 171);
place = (26, 171);
type = Stem;
}
);
layerId = m01;
shapes = (
{
closed = 1;
nodes = (
(110,0,l),
(197,496,l),
(113,496,l),
(26,0,l)
);
}
);
width = 223;
},
{
anchors = (
{
name = bottom;
pos = (76,0);
},
{
name = ogonek;
pos = (140,0);
},
{
name = top;
pos = (164,496);
}
);
hints = (
{
horizontal = 1;
place = (-10, 486);
place = (-10, 486);
type = Stem;
},
{
place = (12, 205);
place = (12, 205);
type = Stem;
}
);
layerId = "C673E357-C9AB-4A21-92F5-E812FFC50395";
shapes = (
{
closed = 1;
nodes = (
(140,0,l),
(227,496,l),
(99,496,l),
(12,0,l)
);
}
);
width = 239;
}
);
note = dotlessi;
unicode = 305;
},
{
glyphname = j;
lastChange = "2023-01-07 01:40:39 +0000";
layers = (
{
hints = (
{
horizontal = 1;
place = (-220, 72);
place = (-220, 72);
type = Stem;
},
{
horizontal = 1;
place = (606, 114);
place = (606, 114);
type = Stem;
},
{
place = (134, 115);
place = (134, 115);
type = Stem;
}
);
layerId = m01;
shapes = (
{
closed = 1;
nodes = (
(-65,-220,ls),
(27,-220,o),
(85,-178,o),
(101,-82,cs),
(203,496,l),
(119,496,l),
(17,-80,ls),
(9,-129,o),
(-16,-148,o),
(-65,-148,cs),
(-103,-148,l),
(-116,-220,l)
);
},
{
closed = 1;
nodes = (
(224,606,o),
(249,630,o),
(249,663,cs),
(249,696,o),
(224,720,o),
(192,720,cs),
(159,720,o),
(134,696,o),
(134,663,cs),
(134,630,o),
(159,606,o),
(192,606,cs)
);
}
);
width = 242;
},
{
hints = (
{
horizontal = 1;
place = (-230, 99);
place = (-230, 99);
type = Stem;
},
{
place = (-128, 387);
place = (-128, 387);
type = Stem;
}
);
layerId = "C673E357-C9AB-4A21-92F5-E812FFC50395";
shapes = (
{
closed = 1;
nodes = (
(-70,-220,ls),
(35,-220,o),
(109,-174,o),
(130,-54,cs),
(226,496,l),
(98,496,l),
(2,-54,ls),
(-6,-95,o),
(-26,-111,o),
(-70,-111,cs),
(-109,-111,l),
(-128,-220,l)
);
},
{
closed = 1;
nodes = (
(233,566,o),
(269,602,o),
(269,646,cs),
(269,690,o),
(233,726,o),
(189,726,cs),
(145,726,o),
(109,690,o),
(109,646,cs),
(109,602,o),
(145,566,o),
(189,566,cs)
);
}
);
width = 248;
}
);
note = j;
unicode = 106;
},
{
glyphname = jdotless;
lastChange = "2023-01-07 01:41:50 +0000";
layers = (
{
anchors = (
{
name = bottom;
pos = (23,-310);
},
{
name = top;
pos = (165,496);
}
);
hints = (
{
horizontal = 1;
place = (-220, 72);
place = (-220, 72);
type = Stem;
},
{
horizontal = 1;
place = (606, 114);
place = (606, 114);
type = Stem;
},
{
place = (134, 115);
place = (134, 115);
type = Stem;
}
);
layerId = m01;
shapes = (
{
closed = 1;
nodes = (
(-65,-220,ls),
(27,-220,o),
(85,-178,o),
(101,-82,cs),
(203,496,l),
(119,496,l),
(17,-80,ls),
(9,-129,o),
(-16,-148,o),
(-65,-148,cs),
(-103,-148,l),
(-116,-220,l)
);
}
);
width = 242;
},
{
anchors = (
{
name = bottom;
pos = (26,-310);
},
{
name = top;
pos = (168,496);
}
);
hints = (
{
horizontal = 1;
place = (-230, 99);
place = (-230, 99);
type = Stem;
},
{
place = (-128, 387);
place = (-128, 387);
type = Stem;
}
);
layerId = "C673E357-C9AB-4A21-92F5-E812FFC50395";
shapes = (
{
closed = 1;
nodes = (
(-70,-220,ls),
(35,-220,o),
(109,-174,o),
(130,-54,cs),
(226,496,l),
(98,496,l),
(2,-54,ls),
(-6,-95,o),
(-26,-111,o),
(-70,-111,cs),
(-109,-111,l),
(-128,-220,l)
);
}
);
width = 248;
}
);
note = j;
unicode = 567;
},
{
glyphname = k;
kernRight = k;
lastChange = "2023-01-07 01:40:39 +0000";
layers = (
{
anchors = (
{
name = bottom;
pos = (212,0);
},
{
name = top;
pos = (387,992);
}
);
hints = (
{
horizontal = 1;
place = (0, 720);
place = (0, 720);
type = Stem;
},
{
place = (25, 486);
place = (25, 486);
type = Stem;
}
);
layerId = m01;
shapes = (
{
closed = 1;
nodes = (
(109,0,l),
(155,261,l),
(351,0,l),
(453,0,l),
(244,273,l),
(511,496,l),
(400,496,l),
(160,287,l),
(233,700,l),
(149,700,l),
(25,0,l)
);
}
);
width = 512;
},
{
anchors = (
{
name = bottom;
pos = (219,0);
},
{
name = top;
pos = (394,992);
}
);
hints = (
{
horizontal = 1;
place = (-10, 710);
place = (-10, 710);
type = Stem;
},
{
place = (11, 545);
place = (11, 545);
type = Stem;
}
);
layerId = "C673E357-C9AB-4A21-92F5-E812FFC50395";
shapes = (
{
closed = 1;
nodes = (
(139,0,l),
(176,211,l),
(315,0,l),
(472,0,l),
(295,247,l),
(554,496,l),
(392,496,l),
(190,286,l),
(262,700,l),
(135,700,l),
(11,0,l)
);
}
);
width = 526;
}
);
note = k;
unicode = 107;
},
{
glyphname = l;
lastChange = "2023-01-07 01:40:39 +0000";
layers = (
{
anchors = (
{
name = bottom;
pos = (68,0);
},
{
name = center;
pos = (156,496);
},
{
name = top;
pos = (190,700);
},
{
name = topright;
pos = (334,992);
}
);
hints = (
{
horizontal = 1;
place = (0, 720);
place = (0, 720);
type = Stem;
},
{
place = (25, 212);
place = (25, 212);
type = Stem;
}
);
layerId = m01;
shapes = (
{
closed = 1;
nodes = (
(109,0,l),
(233,700,l),
(149,700,l),
(25,0,l)
);
}
);
width = 223;
},
{
anchors = (
{
name = bottom;
pos = (76,0);
},
{
name = center;
pos = (164,496);
},
{
name = top;
pos = (200,700);
},
{
name = topright;
pos = (351,992);
}
);
hints = (
{
horizontal = 1;
place = (-10, 710);
place = (-10, 710);
type = Stem;
},
{
place = (11, 246);
place = (11, 246);
type = Stem;
}
);
layerId = "C673E357-C9AB-4A21-92F5-E812FFC50395";
shapes = (
{
closed = 1;
nodes = (
(139,0,l),
(263,700,l),
(135,700,l),
(11,0,l)
);
}
);
width = 240;
}
);
note = l;
unicode = 108;
},
{
glyphname = ldot;
lastChange = "2023-01-07 01:40:39 +0000";
layers = (
{
hints = (
{
horizontal = 1;
place = (318, 99);
place = (318, 99);
type = Stem;
},
{
place = (232, 100);
place = (232, 100);
type = Stem;
}
);
layerId = m01;
shapes = (
{
closed = 1;
nodes = (
(111,0,l),
(235,700,l),
(151,700,l),
(27,0,l)
);
},
{
closed = 1;
nodes = (
(309,318,o),
(332,340,o),
(332,367,cs),
(332,395,o),
(309,417,o),
(282,417,cs),
(254,417,o),
(232,395,o),
(232,367,cs),
(232,340,o),
(254,318,o),
(282,318,cs)
);
}
);
width = 342;
},
{
hints = (
{
horizontal = 1;
place = (294, 114);
place = (294, 114);
type = Stem;
},
{
place = (247, 114);
place = (247, 114);
type = Stem;
}
);
layerId = "C673E357-C9AB-4A21-92F5-E812FFC50395";
shapes = (
{
closed = 1;
nodes = (
(137,0,l),
(261,700,l),
(133,700,l),
(9,0,l)
);
},
{
closed = 1;
nodes = (
(344,304,o),
(371,330,o),
(371,365,cs),
(371,400,o),
(344,428,o),
(309,428,cs),
(273,428,o),
(247,400,o),
(247,365,cs),
(247,330,o),
(273,304,o),
(309,304,cs)
);
}
);
width = 371;
}
);
note = ldot;
unicode = 320;
},
{
glyphname = lslash;
lastChange = "2023-01-07 01:40:39 +0000";
layers = (
{
hints = (
{
horizontal = 1;
place = (0, 720);
place = (0, 720);
type = Stem;
},
{
place = (19, 262);
place = (19, 262);
type = Stem;
}
);
layerId = m01;
shapes = (
{
closed = 1;
nodes = (
(119,0,l),
(188,387,l),
(267,418,l),
(281,496,l),
(202,465,l),
(243,700,l),
(159,700,l),
(112,431,l),
(32,401,l),
(19,322,l),
(98,352,l),
(35,0,l)
);
}
);
width = 253;
},
{
hints = (
{
horizontal = 1;
place = (-10, 710);
place = (-10, 710);
type = Stem;
},
{
place = (8, 296);
place = (8, 296);
type = Stem;
}
);
layerId = "C673E357-C9AB-4A21-92F5-E812FFC50395";
shapes = (
{
closed = 1;
nodes = (
(156,0,l),
(218,349,l),
(292,373,l),
(314,495,l),
(240,471,l),
(280,700,l),
(152,700,l),
(104,426,l),
(30,402,l),
(8,280,l),
(82,304,l),
(28,0,l)
);
}
);
width = 278;
}
);
note = lslash;
unicode = 322;
},
{
glyphname = m;
kernLeft = dotlessi;
kernRight = h;
lastChange = "2023-01-07 01:40:39 +0000";
layers = (
{
background = {
hints = (
{
horizontal = 1;
place = (436, 72);
place = (436, 72);
type = Stem;
},
{
place = (753, 87);
place = (753, 87);
type = Stem;
},
{
horizontal = 1;
place = (436, 60);
place = (436, 60);
type = Stem;
}
);
shapes = (
{
closed = 1;
nodes = (
(110,0,l),
(155,257,ls),
(175,372,o),
(249,436,o),
(322,436,cs),
(382,436,o),
(416,400,o),
(416,328,cs),
(416,314,o),
(415,298,o),
(412,281,cs),
(363,0,l),
(446,0,l),
(495,275,l),
(520,379,o),
(588,436,o),
(659,436,cs),
(718,436,o),
(753,401,o),
(753,331,cs),
(753,316,o),
(751,299,o),
(748,281,cs),
(699,0,l),
(783,0,l),
(834,290,ls),
(838,312,o),
(840,332,o),
(840,351,cs),
(840,374,o),
(837,395,o),
(831,413,cs),
(807,477,o),
(752,508,o),
(679,508,cs),
(610,508,o),
(539,470,o),
(496,407,c),
(476,475,o),
(419,508,o),
(346,508,cs),
(279,508,o),
(220,472,o),
(181,415,c),
(188,496,l),
(113,496,l),
(26,0,l)
);
}
);
};
hints = (
{
horizontal = 1;
place = (436, 72);
place = (436, 72);
type = Stem;
},
{
place = (753, 87);
place = (753, 87);
type = Stem;
},
{
horizontal = 1;
place = (436, 60);
place = (436, 60);
type = Stem;
}
);
layerId = m01;
shapes = (
{
closed = 1;
nodes = (
(110,0,l),
(155,257,ls),
(175,372,o),
(249,436,o),
(322,436,cs),
(382,436,o),
(416,400,o),
(416,328,cs),
(416,314,o),
(415,298,o),
(412,281,cs),
(363,0,l),
(446,0,l),
(495,275,l),
(520,379,o),
(588,436,o),
(659,436,cs),
(718,436,o),
(753,401,o),
(753,331,cs),
(753,316,o),
(751,299,o),
(748,281,cs),
(699,0,l),
(783,0,l),
(834,290,ls),
(838,312,o),
(840,332,o),
(840,351,cs),
(840,420,o),
(806,508,o),
(679,508,cs),
(610,508,o),
(539,470,o),
(496,407,c),
(476,475,o),
(419,508,o),
(346,508,cs),
(279,508,o),
(220,472,o),
(181,415,c),
(188,496,l),
(113,496,l),
(26,0,l)
);
}
);
width = 885;
},
{
background = {
hints = (
{
horizontal = 1;
place = (390, 98);
place = (390, 98);
type = Stem;
},
{
place = (741, 122);
place = (741, 122);
type = Stem;
},
{
horizontal = 1;
place = (390, 86);
place = (390, 86);
type = Stem;
}
);
shapes = (
{
closed = 1;
nodes = (
(140,0,l),
(185,256,ls),
(202,347,o),
(256,400,o),
(320,400,cs),
(373,400,o),
(402,368,o),
(402,310,cs),
(402,298,o),
(401,283,o),
(398,268,cs),
(351,0,l),
(479,0,l),
(527,271,l),
(546,354,o),
(598,400,o),
(658,400,cs),
(711,400,o),
(741,368,o),
(741,308,cs),
(741,296,o),
(740,282,o),
(737,268,cs),
(690,0,l),
(817,0,l),
(867,280,ls),
(871,302,o),
(873,322,o),
(873,341,cs),
(873,450,o),
(808,508,o),
(702,508,cs),
(631,508,o),
(566,473,o),
(522,417,c),
(498,477,o),
(444,508,o),
(371,508,cs),
(303,508,o),
(250,477,o),
(211,426,c),
(212,496,l),
(99,496,l),
(12,0,l)
);
}
);
};
hints = (
{
horizontal = 1;
place = (390, 98);
place = (390, 98);
type = Stem;
},
{
place = (741, 122);
place = (741, 122);
type = Stem;
},
{
horizontal = 1;
place = (390, 86);
place = (390, 86);
type = Stem;
}
);
layerId = "C673E357-C9AB-4A21-92F5-E812FFC50395";
shapes = (
{
closed = 1;
nodes = (
(140,0,l),
(185,256,ls),
(202,347,o),
(256,400,o),
(320,400,cs),
(373,400,o),
(402,368,o),
(402,310,cs),
(402,298,o),
(401,283,o),
(398,268,cs),
(351,0,l),
(479,0,l),
(527,271,l),
(546,354,o),
(598,400,o),
(658,400,cs),
(711,400,o),
(741,368,o),
(741,308,cs),
(741,296,o),
(740,282,o),
(737,268,cs),
(690,0,l),
(817,0,l),
(867,280,ls),
(871,302,o),
(873,322,o),
(873,341,cs),
(873,450,o),
(808,508,o),
(702,508,cs),
(631,508,o),
(566,473,o),
(522,417,c),
(498,477,o),
(444,508,o),
(371,508,cs),
(303,508,o),
(250,477,o),
(211,426,c),
(212,496,l),
(99,496,l),
(12,0,l)
);
}
);
width = 908;
}
);
note = m;
unicode = 109;
},
{
glyphname = n;
kernLeft = dotlessi;
kernRight = h;
lastChange = "2023-01-07 01:40:39 +0000";
layers = (
{
anchors = (
{
name = bottom;
pos = (243,0);
},
{
name = top;
pos = (331,496);
}
);
background = {
hints = (
{
horizontal = 1;
place = (436, 72);
place = (436, 72);
type = Stem;
},
{
place = (441, 87);
place = (441, 87);
type = Stem;
},
{
horizontal = 1;
place = (436, 60);
place = (436, 60);
type = Stem;
}
);
shapes = (
{
closed = 1;
nodes = (
(110,0,l),
(157,266,ls),
(180,375,o),
(252,436,o),
(336,436,cs),
(406,436,o),
(441,400,o),
(441,329,cs),
(441,314,o),
(439,298,o),
(436,281,cs),
(387,0,l),
(471,0,l),
(522,290,ls),
(526,310,o),
(528,329,o),
(528,348,cs),
(528,451,o),
(467,508,o),
(368,508,cs),
(292,508,o),
(222,470,o),
(179,406,c),
(189,496,l),
(113,496,l),
(26,0,l)
);
}
);
};
hints = (
{
horizontal = 1;
place = (436, 72);
place = (436, 72);
type = Stem;
},
{
place = (441, 87);
place = (441, 87);
type = Stem;
},
{
horizontal = 1;
place = (436, 60);
place = (436, 60);
type = Stem;
}
);
layerId = m01;
shapes = (
{
closed = 1;
nodes = (
(110,0,l),
(157,266,ls),
(180,375,o),
(252,436,o),
(336,436,cs),
(406,436,o),
(441,400,o),
(441,329,cs),
(441,314,o),
(439,298,o),
(436,281,cs),
(387,0,l),
(471,0,l),
(522,290,ls),
(526,310,o),
(528,329,o),
(528,348,cs),
(528,451,o),
(467,508,o),
(368,508,cs),
(292,508,o),
(222,470,o),
(179,406,c),
(189,496,l),
(113,496,l),
(26,0,l)
);
}
);
width = 573;
},
{
anchors = (
{
name = bottom;
pos = (251,0);
},
{
name = top;
pos = (339,496);
}
);
background = {
hints = (
{
horizontal = 1;
place = (390, 98);
place = (390, 98);
type = Stem;
},
{
place = (422, 122);
place = (422, 122);
type = Stem;
},
{
horizontal = 1;
place = (390, 86);
place = (390, 86);
type = Stem;
}
);
shapes = (
{
closed = 1;
nodes = (
(140,0,l),
(186,260,ls),
(202,347,o),
(262,400,o),
(333,400,cs),
(392,400,o),
(422,370,o),
(422,310,cs),
(422,304,o),
(422,298,o),
(421,291,cs),
(418,268,l),
(370,0,l),
(498,0,l),
(548,280,ls),
(552,303,o),
(554,324,o),
(554,343,cs),
(554,450,o),
(495,508,o),
(392,508,cs),
(315,508,o),
(250,471,o),
(209,414,c),
(212,496,l),
(99,496,l),
(12,0,l)
);
}
);
};
hints = (
{
horizontal = 1;
place = (390, 98);
place = (390, 98);
type = Stem;
},
{
place = (422, 122);
place = (422, 122);
type = Stem;
},
{
horizontal = 1;
place = (390, 86);
place = (390, 86);
type = Stem;
}
);
layerId = "C673E357-C9AB-4A21-92F5-E812FFC50395";
shapes = (
{
closed = 1;
nodes = (
(140,0,l),
(186,260,ls),
(202,347,o),
(262,400,o),
(333,400,cs),
(392,400,o),
(422,370,o),
(422,310,cs),
(422,300,o),
(420,278,o),
(418,268,cs),
(370,0,l),
(498,0,l),
(548,280,ls),
(552,303,o),
(554,324,o),
(554,343,cs),
(554,450,o),
(495,508,o),
(392,508,cs),
(315,508,o),
(250,471,o),
(209,414,c),
(212,496,l),
(99,496,l),
(12,0,l)
);
}
);
width = 589;
}
);
note = n;
unicode = 110;
},
{
glyphname = eng;
kernLeft = dotlessi;
kernRight = h;
lastChange = "2023-01-09 23:18:08 +0000";
layers = (
{
anchors = (
{
name = bottom;
pos = (243,0);
},
{
name = top;
pos = (331,496);
}
);
background = {
hints = (
{
horizontal = 1;
place = (436, 72);
place = (436, 72);
type = Stem;
},
{
place = (441, 87);
place = (441, 87);
type = Stem;
},
{
horizontal = 1;
place = (436, 60);
place = (436, 60);
type = Stem;
}
);
shapes = (
{
closed = 1;
nodes = (
(110,0,l),
(157,266,ls),
(180,375,o),
(252,436,o),
(336,436,cs),
(406,436,o),
(441,400,o),
(441,329,cs),
(441,314,o),
(439,298,o),
(436,281,cs),
(387,0,l),
(471,0,l),
(522,290,ls),
(526,310,o),
(528,329,o),
(528,348,cs),
(528,451,o),
(467,508,o),
(368,508,cs),
(292,508,o),
(222,470,o),
(179,406,c),
(189,496,l),
(113,496,l),
(26,0,l)
);
}
);
};
hints = (
{
horizontal = 1;
place = (436, 72);
place = (436, 72);
type = Stem;
},
{
place = (441, 87);
place = (441, 87);
type = Stem;
},
{
horizontal = 1;
place = (436, 60);
place = (436, 60);
type = Stem;
}
);
layerId = m01;
shapes = (
{
closed = 1;
nodes = (
(110,0,l),
(157,266,ls),
(176,376,o),
(252,436,o),
(336,436,cs),
(406,436,o),
(441,400,o),
(441,329,cs),
(441,314,o),
(439,298,o),
(436,281,cs),
(373,-80,ls),
(364,-129,o),
(340,-148,o),
(291,-148,cs),
(252,-148,l),
(239,-220,l),
(291,-220,ls),
(383,-220,o),
(439,-178,o),
(456,-82,cs),
(522,290,ls),
(526,310,o),
(528,329,o),
(528,348,cs),
(528,451,o),
(467,508,o),
(368,508,cs),
(292,508,o),
(222,470,o),
(179,406,c),
(189,496,l),
(113,496,l),
(26,0,l)
);
}
);
width = 573;
},
{
anchors = (
{
name = bottom;
pos = (251,0);
},
{
name = top;
pos = (339,496);
}
);
background = {
hints = (
{
horizontal = 1;
place = (390, 98);
place = (390, 98);
type = Stem;
},
{
place = (422, 122);
place = (422, 122);
type = Stem;
},
{
horizontal = 1;
place = (390, 86);
place = (390, 86);
type = Stem;
}
);
shapes = (
{
closed = 1;
nodes = (
(140,0,l),
(186,260,ls),
(202,347,o),
(262,400,o),
(333,400,cs),
(392,400,o),
(422,370,o),
(422,310,cs),
(422,304,o),
(422,298,o),
(421,291,cs),
(418,268,l),
(370,0,l),
(498,0,l),
(548,280,ls),
(552,303,o),
(554,324,o),
(554,343,cs),
(554,450,o),
(495,508,o),
(392,508,cs),
(315,508,o),
(250,471,o),
(209,414,c),
(212,496,l),
(99,496,l),
(12,0,l)
);
}
);
};
hints = (
{
horizontal = 1;
place = (390, 98);
place = (390, 98);
type = Stem;
},
{
place = (422, 122);
place = (422, 122);
type = Stem;
},
{
horizontal = 1;
place = (390, 86);
place = (390, 86);
type = Stem;
}
);
layerId = "C673E357-C9AB-4A21-92F5-E812FFC50395";
shapes = (
{
closed = 1;
nodes = (
(140,0,l),
(186,260,ls),
(201,347,o),
(262,400,o),
(333,400,cs),
(392,400,o),
(422,370,o),
(422,310,cs),
(422,300,o),
(420,278,o),
(418,268,cs),
(360,-54,ls),
(352,-96,o),
(332,-111,o),
(290,-111,cs),
(262,-111,l),
(243,-220,l),
(290,-220,ls),
(388,-220,o),
(465,-179,o),
(488,-54,c),
(548,280,ls),
(552,303,o),
(554,324,o),
(554,343,cs),
(554,450,o),
(495,508,o),
(392,508,cs),
(315,508,o),
(250,471,o),
(209,414,c),
(212,496,l),
(99,496,l),
(12,0,l)
);
}
);
width = 589;
}
);
note = n;
unicode = 331;
},
{
glyphname = o;
kernLeft = c;
kernRight = b;
lastChange = "2023-01-20 01:09:15 +0000";
layers = (
{
anchors = (
{
name = bottom;
pos = (253,0);
},
{
name = center;
pos = (297,248);
},
{
name = ogonek;
pos = (367,10);
},
{
name = top;
pos = (341,496);
},
{
name = topright;
pos = (617,496);
}
);
hints = (
{
horizontal = 1;
place = (-12, 72);
place = (-12, 72);
type = Stem;
},
{
horizontal = 1;
place = (436, 72);
place = (436, 72);
type = Stem;
},
{
place = (43, 88);
place = (43, 88);
type = Stem;
},
{
place = (463, 86);
place = (463, 86);
type = Stem;
}
);
layerId = m01;
shapes = (
{
closed = 1;
nodes = (
(422.746,-12,o),
(549,122.777,o),
(549,295,cs),
(549,421.705,o),
(462.385,508,o),
(337,508,cs),
(173.538,508,o),
(43,378.682,o),
(43,204,cs),
(43,78.264,o),
(130,-12,o),
(255,-12,cs)
);
},
{
closed = 1;
nodes = (
(185.713,60,o),
(131,117.567,o),
(131,207,cs),
(131,337.53,o),
(214.799,436,o),
(326,436,cs),
(400.667,436,o),
(463,382.333,o),
(463,289,cs),
(463,158.183,o),
(379.165,60,o),
(266,60,cs)
);
}
);
width = 593;
},
{
anchors = (
{
name = bottom;
pos = (250,0);
},
{
name = center;
pos = (294,248);
},
{
name = ogonek;
pos = (367,10);
},
{
name = top;
pos = (338,496);
},
{
name = topright;
pos = (611,496);
}
);
background = {
hints = (
{
horizontal = 1;
place = (-22, 101);
place = (-22, 101);
type = Stem;
},
{
horizontal = 1;
place = (387, 101);
place = (387, 101);
type = Stem;
},
{
place = (35, 121);
place = (35, 121);
type = Stem;
},
{
place = (421, 121);
place = (421, 121);
type = Stem;
}
);
shapes = (
{
closed = 1;
nodes = (
(421,-12,o),
(552,120,o),
(552,289,cs),
(552,332,o),
(543,370,o),
(524,403,cs),
(487,468,o),
(419,508,o),
(331,508,cs),
(164,508,o),
(35,378,o),
(35,209,cs),
(35,166,o),
(44,129,o),
(63,96,cs),
(99,30,o),
(166,-12,o),
(253,-12,cs)
);
},
{
closed = 1;
nodes = (
(213,99,o),
(166,141,o),
(166,214,cs),
(166,249,o),
(173,280,o),
(186,308,cs),
(213,363,o),
(261,397,o),
(317,397,cs),
(374,397,o),
(421,355,o),
(421,282,cs),
(421,247,o),
(414,216,o),
(401,189,cs),
(374,133,o),
(327,99,o),
(270,99,cs)
);
}
);
};
hints = (
{
horizontal = 1;
place = (-22, 101);
place = (-22, 101);
type = Stem;
},
{
horizontal = 1;
place = (387, 101);
place = (387, 101);
type = Stem;
},
{
place = (35, 121);
place = (35, 121);
type = Stem;
},
{
place = (421, 121);
place = (421, 121);
type = Stem;
}
);
layerId = "C673E357-C9AB-4A21-92F5-E812FFC50395";
shapes = (
{
closed = 1;
nodes = (
(421,-12,o),
(552,120,o),
(552,289,cs),
(552,392,o),
(487,508,o),
(331,508,cs),
(164,508,o),
(35,378,o),
(35,209,cs),
(35,86,o),
(121,-12,o),
(253,-12,cs)
);
},
{
closed = 1;
nodes = (
(213,99,o),
(166,141,o),
(166,214,cs),
(166,297,o),
(215,397,o),
(317,397,cs),
(374,397,o),
(421,355,o),
(421,282,cs),
(421,205,o),
(375,99,o),
(270,99,cs)
);
}
);
width = 587;
}
);
note = o;
unicode = 111;
},
{
glyphname = oslash;
lastChange = "2023-01-07 01:40:39 +0000";
layers = (
{
background = {
hints = (
{
horizontal = 1;
place = (-12, 70);
place = (-12, 70);
type = Stem;
},
{
horizontal = 1;
place = (438, 70);
place = (438, 70);
type = Stem;
},
{
place = (45, 85);
place = (45, 85);
type = Stem;
},
{
place = (466, 85);
place = (466, 85);
type = Stem;
}
);
shapes = (
{
closed = 1;
nodes = (
(421,-12,o),
(551,124,o),
(551,295,cs),
(551,342,o),
(539,384,o),
(516,419,c),
(597,496,l),
(518,496,l),
(480,460,l),
(441,492,o),
(394,508,o),
(338,508,cs),
(173,508,o),
(45,376,o),
(45,204,cs),
(45,157,o),
(57,115,o),
(81,78,c),
(-1,0,l),
(79,0,l),
(117,37,l),
(153,6,o),
(201,-12,o),
(257,-12,cs)
);
},
{
closed = 1;
nodes = (
(231,58,o),
(200,69,o),
(175,92,c),
(453,358,l),
(462,338,o),
(466,315,o),
(466,289,cs),
(466,246,o),
(457,207,o),
(440,172,cs),
(405,102,o),
(343,58,o),
(268,58,cs)
);
},
{
closed = 1;
nodes = (
(134,159,o),
(130,182,o),
(130,207,cs),
(130,250,o),
(139,290,o),
(157,325,cs),
(192,395,o),
(253,438,o),
(328,438,cs),
(365,438,o),
(396,427,o),
(421,404,c),
(143,138,l)
);
}
);
};
hints = (
{
horizontal = 1;
place = (-12, 70);
place = (-12, 70);
type = Stem;
},
{
horizontal = 1;
place = (438, 70);
place = (438, 70);
type = Stem;
},
{
place = (45, 85);
place = (45, 85);
type = Stem;
},
{
place = (466, 85);
place = (466, 85);
type = Stem;
}
);
layerId = m01;
shapes = (
{
closed = 1;
nodes = (
(421,-12,o),
(551,124,o),
(551,295,cs),
(551,342,o),
(539,384,o),
(516,419,c),
(597,496,l),
(518,496,l),
(480,460,l),
(441,492,o),
(394,508,o),
(338,508,cs),
(173,508,o),
(45,376,o),
(45,204,cs),
(45,157,o),
(57,115,o),
(81,78,c),
(-1,0,l),
(79,0,l),
(117,37,l),
(153,6,o),
(201,-12,o),
(257,-12,cs)
);
},
{
closed = 1;
nodes = (
(231,58,o),
(200,69,o),
(175,92,c),
(453,358,l),
(462,338,o),
(466,315,o),
(466,289,cs),
(466,186,o),
(403,58,o),
(268,58,cs)
);
},
{
closed = 1;
nodes = (
(134,159,o),
(130,182,o),
(130,207,cs),
(130,310,o),
(195,438,o),
(328,438,cs),
(365,438,o),
(396,427,o),
(421,404,c),
(143,138,l)
);
}
);
width = 596;
},
{
background = {
hints = (
{
horizontal = 1;
place = (-22, 90);
place = (-22, 90);
type = Stem;
},
{
horizontal = 1;
place = (398, 90);
place = (398, 90);
type = Stem;
},
{
place = (25, 113);
place = (25, 113);
type = Stem;
},
{
place = (420, 113);
place = (420, 113);
type = Stem;
}
);
shapes = (
{
closed = 1;
nodes = (
(412,-12,o),
(543,120,o),
(543,289,cs),
(543,337,o),
(531,379,o),
(508,415,c),
(592,496,l),
(491,496,l),
(460,466,l),
(421,494,o),
(375,508,o),
(322,508,cs),
(156,508,o),
(25,378,o),
(25,209,cs),
(25,161,o),
(37,119,o),
(61,82,c),
(-24,0,l),
(77,0,l),
(109,31,l),
(145,3,o),
(191,-12,o),
(244,-12,cs)
);
},
{
closed = 1;
nodes = (
(233,88,o),
(210,95,o),
(191,110,c),
(415,325,l),
(418,313,o),
(420,300,o),
(420,285,cs),
(420,248,o),
(413,214,o),
(399,184,cs),
(371,124,o),
(320,88,o),
(259,88,cs)
);
},
{
closed = 1;
nodes = (
(150,184,o),
(148,197,o),
(148,211,cs),
(148,248,o),
(155,282,o),
(170,312,cs),
(198,372,o),
(249,408,o),
(310,408,cs),
(335,408,o),
(358,401,o),
(377,386,c),
(153,171,l)
);
}
);
};
hints = (
{
horizontal = 1;
place = (-22, 90);
place = (-22, 90);
type = Stem;
},
{
horizontal = 1;
place = (398, 90);
place = (398, 90);
type = Stem;
},
{
place = (25, 113);
place = (25, 113);
type = Stem;
},
{
place = (420, 113);
place = (420, 113);
type = Stem;
}
);
layerId = "C673E357-C9AB-4A21-92F5-E812FFC50395";
shapes = (
{
closed = 1;
nodes = (
(412,-12,o),
(543,120,o),
(543,289,cs),
(543,337,o),
(531,379,o),
(508,415,c),
(592,496,l),
(491,496,l),
(460,466,l),
(421,494,o),
(375,508,o),
(322,508,cs),
(156,508,o),
(25,378,o),
(25,209,cs),
(25,161,o),
(37,119,o),
(61,82,c),
(-24,0,l),
(77,0,l),
(109,31,l),
(145,3,o),
(191,-12,o),
(244,-12,cs)
);
},
{
closed = 1;
nodes = (
(233,88,o),
(210,95,o),
(191,110,c),
(415,325,l),
(418,313,o),
(420,300,o),
(420,285,cs),
(420,194,o),
(368,88,o),
(259,88,cs)
);
},
{
closed = 1;
nodes = (
(150,184,o),
(148,197,o),
(148,211,cs),
(148,310,o),
(208,408,o),
(310,408,cs),
(335,408,o),
(358,401,o),
(377,386,c),
(153,171,l)
);
}
);
width = 568;
}
);
note = oslash;
unicode = 248;
},
{
glyphname = oe;
kernLeft = c;
kernRight = ae;
lastChange = "2023-01-07 01:40:39 +0000";
layers = (
{
anchors = (
{
name = bottom;
pos = (448,0);
},
{
name = top;
pos = (536,496);
}
);
background = {
anchors = (
{
name = bottom;
pos = (448,0);
},
{
name = top;
pos = (536,496);
}
);
hints = (
{
horizontal = 1;
place = (-12, 72);
place = (-12, 72);
type = Stem;
},
{
horizontal = 1;
place = (229, 65);
place = (229, 65);
type = Stem;
},
{
horizontal = 1;
place = (436, 72);
place = (436, 72);
type = Stem;
},
{
place = (43, 88);
place = (43, 88);
type = Stem;
},
{
place = (463, 78);
place = (463, 78);
type = Stem;
},
{
place = (870, 82);
place = (870, 82);
type = Stem;
},
{
horizontal = 1;
place = (-12, 71);
place = (-12, 71);
type = Stem;
},
{
horizontal = 1;
place = (437, 71);
place = (437, 71);
type = Stem;
}
);
shapes = (
{
closed = 1;
nodes = (
(347,-12,o),
(428,31,o),
(481,98,c),
(512,30,o),
(576,-12,o),
(663,-12,cs),
(704,-12,o),
(741,-4,o),
(775,11,cs),
(842,42,o),
(893,96,o),
(921,163,c),
(839,163,l),
(807,99,o),
(750,59,o),
(675,59,cs),
(603,59,o),
(541,105,o),
(541,198,cs),
(541,208,o),
(542,218,o),
(544,229,c),
(939,229,l),
(942,245,o),
(952,296,o),
(952,319,cs),
(952,354,o),
(945,385,o),
(930,414,cs),
(900,471,o),
(841,508,o),
(756,508,cs),
(663,508,o),
(579,465,o),
(526,394,c),
(494,465,o),
(425,508,o),
(337,508,cs),
(173,508,o),
(43,376,o),
(43,204,cs),
(43,163,o),
(52,126,o),
(70,93,cs),
(106,28,o),
(172,-12,o),
(255,-12,cs)
);
},
{
closed = 1;
nodes = (
(174,60,o),
(131,125,o),
(131,207,cs),
(131,250,o),
(140,289,o),
(157,324,cs),
(192,393,o),
(253,436,o),
(326,436,cs),
(401,436,o),
(463,382,o),
(463,289,cs),
(463,246,o),
(454,207,o),
(437,172,cs),
(402,103,o),
(341,60,o),
(266,60,cs)
);
},
{
closed = 1;
nodes = (
(583,387,o),
(662,437,o),
(742,437,cs),
(818,437,o),
(870,392,o),
(870,317,cs),
(870,310,o),
(869,302,o),
(868,294,c),
(556,294,l)
);
}
);
};
hints = (
{
horizontal = 1;
place = (-12, 72);
place = (-12, 72);
type = Stem;
},
{
horizontal = 1;
place = (229, 65);
place = (229, 65);
type = Stem;
},
{
horizontal = 1;
place = (436, 72);
place = (436, 72);
type = Stem;
},
{
place = (43, 88);
place = (43, 88);
type = Stem;
},
{
place = (463, 78);
place = (463, 78);
type = Stem;
},
{
place = (870, 82);
place = (870, 82);
type = Stem;
},
{
horizontal = 1;
place = (-12, 71);
place = (-12, 71);
type = Stem;
},
{
horizontal = 1;
place = (437, 71);
place = (437, 71);
type = Stem;
}
);
layerId = m01;
shapes = (
{
closed = 1;
nodes = (
(347,-12,o),
(428,31,o),
(481,98,c),
(512,30,o),
(576,-12,o),
(663,-12,cs),
(761,-12,o),
(870,42,o),
(921,163,c),
(839,163,l),
(807,99,o),
(750,59,o),
(675,59,cs),
(603,59,o),
(541,105,o),
(541,198,cs),
(541,208,o),
(542,218,o),
(544,229,c),
(939,229,l),
(942,245,o),
(952,296,o),
(952,319,cs),
(952,411,o),
(896,508,o),
(756,508,cs),
(663,508,o),
(579,465,o),
(526,394,c),
(494,465,o),
(425,508,o),
(337,508,cs),
(173,508,o),
(43,376,o),
(43,204,cs),
(43,97,o),
(114,-12,o),
(255,-12,cs)
);
},
{
closed = 1;
nodes = (
(174,60,o),
(131,125,o),
(131,207,cs),
(131,310,o),
(195,436,o),
(326,436,cs),
(401,436,o),
(463,382,o),
(463,289,cs),
(463,184,o),
(399,60,o),
(266,60,cs)
);
},
{
closed = 1;
nodes = (
(583,387,o),
(662,437,o),
(742,437,cs),
(818,437,o),
(870,392,o),
(870,317,cs),
(870,310,o),
(869,302,o),
(868,294,c),
(556,294,l)
);
}
);
width = 983;
},
{
anchors = (
{
name = bottom;
pos = (436,0);
},
{
name = top;
pos = (524,496);
}
);
background = {
anchors = (
{
name = bottom;
pos = (436,0);
},
{
name = top;
pos = (524,496);
}
);
hints = (
{
horizontal = 1;
place = (-22, 101);
place = (-22, 101);
type = Stem;
},
{
horizontal = 1;
place = (207, 70);
place = (207, 70);
type = Stem;
},
{
horizontal = 1;
place = (387, 101);
place = (387, 101);
type = Stem;
},
{
place = (35, 121);
place = (35, 121);
type = Stem;
},
{
place = (421, 114);
place = (421, 114);
type = Stem;
},
{
place = (810, 117);
place = (810, 117);
type = Stem;
},
{
horizontal = 1;
place = (-22, 95);
place = (-22, 95);
type = Stem;
},
{
horizontal = 1;
place = (394, 94);
place = (394, 94);
type = Stem;
}
);
shapes = (
{
closed = 1;
nodes = (
(336,-12,o),
(408,21,o),
(461,74,c),
(496,21,o),
(557,-12,o),
(636,-12,cs),
(677,-12,o),
(715,-4,o),
(751,12,cs),
(822,44,o),
(878,101,o),
(907,170,c),
(780,170,l),
(755,126,o),
(712,93,o),
(653,93,cs),
(589,93,o),
(545,132,o),
(545,199,cs),
(545,205,o),
(545,211,o),
(546,217,c),
(922,217,l),
(927,229,o),
(937,284,o),
(937,311,cs),
(937,349,o),
(929,383,o),
(912,413,cs),
(878,472,o),
(815,508,o),
(728,508,cs),
(643,508,o),
(566,474,o),
(511,417,c),
(475,474,o),
(411,508,o),
(331,508,cs),
(164,508,o),
(35,378,o),
(35,209,cs),
(35,166,o),
(44,129,o),
(63,96,cs),
(99,30,o),
(166,-12,o),
(253,-12,cs)
);
},
{
closed = 1;
nodes = (
(213,99,o),
(166,141,o),
(166,214,cs),
(166,249,o),
(173,280,o),
(186,308,cs),
(213,363,o),
(261,397,o),
(317,397,cs),
(374,397,o),
(421,355,o),
(421,282,cs),
(421,247,o),
(414,216,o),
(401,189,cs),
(374,133,o),
(327,99,o),
(270,99,cs)
);
},
{
closed = 1;
nodes = (
(587,368,o),
(646,404,o),
(710,404,cs),
(770,404,o),
(810,368,o),
(810,312,cs),
(810,305,l),
(809,302,o),
(809,300,o),
(809,297,c),
(563,297,l)
);
}
);
};
hints = (
{
horizontal = 1;
place = (-22, 101);
place = (-22, 101);
type = Stem;
},
{
horizontal = 1;
place = (207, 70);
place = (207, 70);
type = Stem;
},
{
horizontal = 1;
place = (387, 101);
place = (387, 101);
type = Stem;
},
{
place = (35, 121);
place = (35, 121);
type = Stem;
},
{
place = (421, 114);
place = (421, 114);
type = Stem;
},
{
place = (810, 117);
place = (810, 117);
type = Stem;
},
{
horizontal = 1;
place = (-22, 95);
place = (-22, 95);
type = Stem;
},
{
horizontal = 1;
place = (394, 94);
place = (394, 94);
type = Stem;
}
);
layerId = "C673E357-C9AB-4A21-92F5-E812FFC50395";
shapes = (
{
closed = 1;
nodes = (
(336,-12,o),
(408,21,o),
(461,74,c),
(496,21,o),
(557,-12,o),
(636,-12,cs),
(733,-12,o),
(854,44,o),
(907,170,c),
(780,170,l),
(755,126,o),
(712,93,o),
(653,93,cs),
(589,93,o),
(545,132,o),
(545,199,cs),
(545,205,o),
(545,211,o),
(546,217,c),
(922,217,l),
(927,229,o),
(937,284,o),
(937,311,cs),
(937,414,o),
(870,508,o),
(728,508,cs),
(643,508,o),
(566,474,o),
(511,417,c),
(475,474,o),
(411,508,o),
(331,508,cs),
(164,508,o),
(35,378,o),
(35,209,cs),
(35,86,o),
(121,-12,o),
(253,-12,cs)
);
},
{
closed = 1;
nodes = (
(213,99,o),
(166,141,o),
(166,214,cs),
(166,297,o),
(215,397,o),
(317,397,cs),
(374,397,o),
(421,355,o),
(421,282,cs),
(421,205,o),
(375,99,o),
(270,99,cs)
);
},
{
closed = 1;
nodes = (
(587,368,o),
(646,404,o),
(710,404,cs),
(770,404,o),
(810,368,o),
(810,312,cs),
(810,307,o),
(809,301,o),
(808,297,c),
(563,297,l)
);
}
);
width = 960;
}
);
note = oe;
unicode = 339;
},
{
glyphname = p;
kernRight = b;
lastChange = "2023-01-07 01:40:39 +0000";
layers = (
{
background = {
hints = (
{
horizontal = 1;
place = (-12, 73);
place = (-12, 73);
type = Stem;
},
{
horizontal = 1;
place = (435, 73);
place = (435, 73);
type = Stem;
},
{
place = (490, 87);
place = (490, 87);
type = Stem;
}
);
shapes = (
{
closed = 1;
nodes = (
(70,-220,l),
(125,84,l),
(151.254,26.719,o),
(214.49,-12,o),
(290,-12,cs),
(456.108,-12,o),
(577,118.886,o),
(577,295,cs),
(577,422.239,o),
(496.642,508,o),
(372,508,cs),
(282.667,508,o),
(224.333,466,o),
(183,414,c),
(191,496,l),
(113,496,l),
(-14,-220,l),
(-14,-220,l)
);
},
{
closed = 1;
nodes = (
(208.333,61,o),
(152,119.667,o),
(152,209,cs),
(152,336.882,o),
(235.929,435,o),
(351,435,cs),
(436.333,435,o),
(490,371,o),
(490,283,cs),
(490,154.235,o),
(409.811,61,o),
(295,61,cs)
);
}
);
};
hints = (
{
horizontal = 1;
place = (-12, 73);
place = (-12, 73);
type = Stem;
},
{
horizontal = 1;
place = (435, 73);
place = (435, 73);
type = Stem;
},
{
place = (490, 87);
place = (490, 87);
type = Stem;
}
);
layerId = m01;
shapes = (
{
closed = 1;
nodes = (
(70,-220,l),
(125,84,l),
(151.254,26.719,o),
(214.49,-12,o),
(290,-12,cs),
(456.108,-12,o),
(577,118.886,o),
(577,295,cs),
(577,422.239,o),
(496.642,508,o),
(372,508,cs),
(282.667,508,o),
(224.333,466,o),
(183,414,c),
(191,496,l),
(113,496,l),
(-14,-220,l)
);
},
{
closed = 1;
nodes = (
(208.333,61,o),
(152,119.667,o),
(152,209,cs),
(152,336.882,o),
(235.929,435,o),
(351,435,cs),
(436.333,435,o),
(490,371,o),
(490,283,cs),
(490,154.235,o),
(409.811,61,o),
(295,61,cs)
);
}
);
width = 620;
},
{
background = {
hints = (
{
horizontal = 1;
place = (-22, 102);
place = (-22, 102);
type = Stem;
},
{
horizontal = 1;
place = (386, 102);
place = (386, 102);
type = Stem;
},
{
place = (459, 122);
place = (459, 122);
type = Stem;
},
{
horizontal = 1;
place = (386, 90);
place = (386, 90);
type = Stem;
}
);
shapes = (
{
closed = 1;
nodes = (
(102,-220,l),
(152,68,l),
(176,24,o),
(232,-12,o),
(304,-12,cs),
(469,-12,o),
(591,124,o),
(591,294,cs),
(591,335,o),
(583,371,o),
(566,404,cs),
(533,468,o),
(470,508,o),
(389,508,cs),
(310,508,o),
(255,474,o),
(215,425,c),
(214,496,l),
(99,496,l),
(-26,-220,l)
);
},
{
closed = 1;
nodes = (
(226,100,o),
(178,151,o),
(178,220,cs),
(178,253,o),
(185,283,o),
(199,310,cs),
(227,363,o),
(277,396,o),
(340,396,cs),
(413,396,o),
(459,343,o),
(459,272,cs),
(459,239,o),
(452,210,o),
(438,184,cs),
(410,132,o),
(359,100,o),
(298,100,cs)
);
}
);
};
hints = (
{
horizontal = 1;
place = (-22, 102);
place = (-22, 102);
type = Stem;
},
{
horizontal = 1;
place = (386, 102);
place = (386, 102);
type = Stem;
},
{
place = (459, 122);
place = (459, 122);
type = Stem;
},
{
horizontal = 1;
place = (386, 90);
place = (386, 90);
type = Stem;
}
);
layerId = "C673E357-C9AB-4A21-92F5-E812FFC50395";
shapes = (
{
closed = 1;
nodes = (
(102,-220,l),
(152,68,l),
(176,24,o),
(232,-12,o),
(304,-12,cs),
(469,-12,o),
(591,124,o),
(591,294,cs),
(591,405,o),
(522,508,o),
(389,508,cs),
(310,508,o),
(255,474,o),
(215,425,c),
(214,496,l),
(99,496,l),
(-26,-220,l)
);
},
{
closed = 1;
nodes = (
(226,100,o),
(178,151,o),
(178,220,cs),
(178,304,o),
(232,396,o),
(340,396,cs),
(413,396,o),
(459,343,o),
(459,272,cs),
(459,178,o),
(394,100,o),
(298,100,cs)
);
}
);
width = 625;
}
);
note = p;
unicode = 112;
},
{
glyphname = thorn;
kernRight = b;
lastChange = "2023-01-07 01:40:39 +0000";
layers = (
{
background = {
hints = (
{
horizontal = 1;
place = (-12, 73);
place = (-12, 73);
type = Stem;
},
{
horizontal = 1;
place = (435, 73);
place = (435, 73);
type = Stem;
},
{
place = (490, 87);
place = (490, 87);
type = Stem;
}
);
shapes = (
{
closed = 1;
nodes = (
(70,-220,l),
(125,84,l),
(151.254,26.719,o),
(214.49,-12,o),
(290,-12,cs),
(456.108,-12,o),
(577,118.886,o),
(577,295,cs),
(577,422.239,o),
(496.642,508,o),
(372,508,cs),
(282.667,508,o),
(224,465.667,o),
(184,419,c),
(233,700,l),
(148,700,l),
(-14,-220,l),
(-14,-220,l)
);
},
{
closed = 1;
nodes = (
(208.333,61,o),
(152,119.667,o),
(152,209,cs),
(152,336.882,o),
(235.929,435,o),
(351,435,cs),
(436.333,435,o),
(490,371,o),
(490,283,cs),
(490,154.235,o),
(409.811,61,o),
(295,61,cs)
);
}
);
};
hints = (
{
horizontal = 1;
place = (-12, 73);
place = (-12, 73);
type = Stem;
},
{
horizontal = 1;
place = (435, 73);
place = (435, 73);
type = Stem;
},
{
place = (490, 87);
place = (490, 87);
type = Stem;
}
);
layerId = m01;
shapes = (
{
closed = 1;
nodes = (
(70,-220,l),
(125,84,l),
(151.254,26.719,o),
(214.49,-12,o),
(290,-12,cs),
(456.108,-12,o),
(577,118.886,o),
(577,295,cs),
(577,422.239,o),
(496.642,508,o),
(372,508,cs),
(282.667,508,o),
(224,465.667,o),
(184,419,c),
(233,700,l),
(148,700,l),
(-14,-220,l)
);
},
{
closed = 1;
nodes = (
(208.333,61,o),
(152,119.667,o),
(152,209,cs),
(152,336.882,o),
(235.929,435,o),
(351,435,cs),
(436.333,435,o),
(490,371,o),
(490,283,cs),
(490,154.235,o),
(409.811,61,o),
(295,61,cs)
);
}
);
width = 620;
},
{
background = {
hints = (
{
horizontal = 1;
place = (-22, 102);
place = (-22, 102);
type = Stem;
},
{
horizontal = 1;
place = (386, 102);
place = (386, 102);
type = Stem;
},
{
place = (459, 122);
place = (459, 122);
type = Stem;
}
);
shapes = (
{
closed = 1;
nodes = (
(102,-220,l),
(152,68,l),
(176,24,o),
(232,-12,o),
(304,-12,cs),
(469,-12,o),
(591,124,o),
(591,294,cs),
(591,335,o),
(583,371,o),
(566,404,cs),
(533,468,o),
(470,508,o),
(389,508,cs),
(310,508,o),
(255,474,o),
(216,433,c),
(263,700,l),
(135,700,l),
(-26,-220,l)
);
},
{
closed = 1;
nodes = (
(226,100,o),
(178,151,o),
(178,220,cs),
(178,253,o),
(185,283,o),
(199,310,cs),
(227,363,o),
(277,396,o),
(340,396,cs),
(413,396,o),
(459,343,o),
(459,272,cs),
(459,239,o),
(452,210,o),
(438,184,cs),
(410,132,o),
(359,100,o),
(298,100,cs)
);
}
);
};
hints = (
{
horizontal = 1;
place = (-22, 102);
place = (-22, 102);
type = Stem;
},
{
horizontal = 1;
place = (386, 102);
place = (386, 102);
type = Stem;
},
{
place = (459, 122);
place = (459, 122);
type = Stem;
}
);
layerId = "C673E357-C9AB-4A21-92F5-E812FFC50395";
shapes = (
{
closed = 1;
nodes = (
(102,-220,l),
(152,68,l),
(176,24,o),
(232,-12,o),
(304,-12,cs),
(469,-12,o),
(591,124,o),
(591,294,cs),
(591,405,o),
(522,508,o),
(389,508,cs),
(310,508,o),
(255,474,o),
(216,433,c),
(263,700,l),
(135,700,l),
(-26,-220,l)
);
},
{
closed = 1;
nodes = (
(226,100,o),
(178,151,o),
(178,220,cs),
(178,304,o),
(232,396,o),
(340,396,cs),
(413,396,o),
(459,343,o),
(459,272,cs),
(459,178,o),
(394,100,o),
(298,100,cs)
);
}
);
width = 625;
}
);
note = thorn;
unicode = 254;
},
{
glyphname = q;
kernLeft = c;
lastChange = "2023-01-07 01:40:39 +0000";
layers = (
{
background = {
hints = (
{
horizontal = 1;
place = (-12, 73);
place = (-12, 73);
type = Stem;
},
{
horizontal = 1;
place = (435, 73);
place = (435, 73);
type = Stem;
},
{
place = (44, 87);
place = (44, 87);
type = Stem;
}
);
shapes = (
{
closed = 1;
nodes = (
(469,-220,l),
(595,496,l),
(519,496,l),
(496,413,l),
(469,470,o),
(414,508,o),
(326,508,cs),
(273,508,o),
(226,495,o),
(183,469,cs),
(98,417,o),
(44,324,o),
(44,207,cs),
(44,167,o),
(52,130,o),
(68,97,cs),
(100,30,o),
(162,-12,o),
(247,-12,cs),
(339,-12,o),
(398,34,o),
(437,82,c),
(385,-220,l)
);
},
{
closed = 1;
nodes = (
(184,61,o),
(131,127,o),
(131,215,cs),
(131,257,o),
(140,295,o),
(157,328,cs),
(191,394,o),
(253,435,o),
(329,435,cs),
(416,435,o),
(468,378,o),
(468,291,cs),
(468,249,o),
(460,211,o),
(443,176,cs),
(409,106,o),
(347,61,o),
(271,61,cs)
);
}
);
};
hints = (
{
horizontal = 1;
place = (-12, 73);
place = (-12, 73);
type = Stem;
},
{
horizontal = 1;
place = (435, 73);
place = (435, 73);
type = Stem;
},
{
place = (44, 87);
place = (44, 87);
type = Stem;
}
);
layerId = m01;
shapes = (
{
closed = 1;
nodes = (
(469,-220,l),
(595,496,l),
(519,496,l),
(496,413,l),
(469,470,o),
(414,508,o),
(326,508,cs),
(191,508,o),
(44,406,o),
(44,207,cs),
(44,105,o),
(103,-12,o),
(247,-12,cs),
(339,-12,o),
(398,34,o),
(437,82,c),
(385,-220,l)
);
},
{
closed = 1;
nodes = (
(184,61,o),
(131,127,o),
(131,215,cs),
(131,318,o),
(195,435,o),
(329,435,cs),
(416,435,o),
(468,378,o),
(468,291,cs),
(468,189,o),
(405,61,o),
(271,61,cs)
);
}
);
width = 621;
},
{
background = {
hints = (
{
horizontal = 1;
place = (-22, 102);
place = (-22, 102);
type = Stem;
},
{
horizontal = 1;
place = (386, 102);
place = (386, 102);
type = Stem;
},
{
place = (35, 122);
place = (35, 122);
type = Stem;
},
{
horizontal = 1;
place = (386, 90);
place = (386, 90);
type = Stem;
}
);
shapes = (
{
closed = 1;
nodes = (
(487,-220,l),
(612,496,l),
(498,496,l),
(472,428,l),
(447,475,o),
(398,508,o),
(315,508,cs),
(263,508,o),
(216,495,o),
(174,469,cs),
(89,416,o),
(35,321,o),
(35,208,cs),
(35,167,o),
(43,129,o),
(59,96,cs),
(91,29,o),
(150,-12,o),
(233,-12,cs),
(316,-12,o),
(371,27,o),
(408,71,c),
(359,-220,l)
);
},
{
closed = 1;
nodes = (
(210,100,o),
(167,154,o),
(167,223,cs),
(167,256,o),
(174,285,o),
(188,311,cs),
(216,363,o),
(266,396,o),
(329,396,cs),
(401,396,o),
(445,349,o),
(445,280,cs),
(445,247,o),
(438,217,o),
(424,190,cs),
(395,135,o),
(345,100,o),
(282,100,cs)
);
}
);
};
hints = (
{
horizontal = 1;
place = (-22, 102);
place = (-22, 102);
type = Stem;
},
{
horizontal = 1;
place = (386, 102);
place = (386, 102);
type = Stem;
},
{
place = (35, 122);
place = (35, 122);
type = Stem;
},
{
horizontal = 1;
place = (386, 90);
place = (386, 90);
type = Stem;
}
);
layerId = "C673E357-C9AB-4A21-92F5-E812FFC50395";
shapes = (
{
closed = 1;
nodes = (
(487,-220,l),
(612,496,l),
(498,496,l),
(472,428,l),
(447,475,o),
(398,508,o),
(315,508,cs),
(173,508,o),
(35,393,o),
(35,208,cs),
(35,103,o),
(93,-12,o),
(233,-12,cs),
(316,-12,o),
(371,27,o),
(408,71,c),
(359,-220,l)
);
},
{
closed = 1;
nodes = (
(210,100,o),
(167,154,o),
(167,223,cs),
(167,298,o),
(216,396,o),
(329,396,cs),
(401,396,o),
(445,349,o),
(445,280,cs),
(445,198,o),
(390,100,o),
(282,100,cs)
);
}
);
width = 625;
}
);
note = q;
unicode = 113;
},
{
glyphname = r;
kernLeft = dotlessi;
kernRight = r;
lastChange = "2023-01-07 01:40:39 +0000";
layers = (
{
anchors = (
{
name = bottom;
pos = (71,0);
},
{
name = top;
pos = (229,496);
}
);
background = {
hints = (
{
horizontal = 1;
place = (420, 88);
place = (420, 88);
type = Stem;
},
{
place = (26, 359);
place = (26, 359);
type = Stem;
},
{
horizontal = 1;
place = (420, 76);
place = (420, 76);
type = Stem;
}
);
shapes = (
{
closed = 1;
nodes = (
(110,0,l),
(157,267,ls),
(164,306,o),
(176,336,o),
(195,359,cs),
(232,403,o),
(287,420,o),
(347,420,cs),
(370,420,l),
(385,508,l),
(296,508,o),
(224,469,o),
(181,408,c),
(190,496,l),
(113,496,l),
(26,0,l)
);
}
);
};
hints = (
{
horizontal = 1;
place = (420, 88);
place = (420, 88);
type = Stem;
},
{
place = (26, 359);
place = (26, 359);
type = Stem;
},
{
horizontal = 1;
place = (420, 76);
place = (420, 76);
type = Stem;
}
);
layerId = m01;
shapes = (
{
closed = 1;
nodes = (
(110,0,l),
(157,267,ls),
(173,357,o),
(227,420,o),
(347,420,cs),
(370,420,l),
(385,508,l),
(296,508,o),
(224,469,o),
(181,408,c),
(190,496,l),
(113,496,l),
(26,0,l)
);
}
);
width = 369;
},
{
anchors = (
{
name = bottom;
pos = (84,0);
},
{
name = top;
pos = (236,496);
}
);
hints = (
{
horizontal = 1;
place = (363, 125);
place = (363, 125);
type = Stem;
},
{
place = (12, 389);
place = (12, 389);
type = Stem;
},
{
horizontal = 1;
place = (363, 113);
place = (363, 113);
type = Stem;
}
);
layerId = "C673E357-C9AB-4A21-92F5-E812FFC50395";
shapes = (
{
closed = 1;
nodes = (
(140,0,l),
(182,235,ls),
(201,340,o),
(267,373,o),
(352,373,cs),
(387,373,l),
(411,508,l),
(327,508,o),
(257,467,o),
(210,406,c),
(214,496,l),
(99,496,l),
(12,0,l)
);
}
);
width = 383;
}
);
note = r;
unicode = 114;
},
{
glyphname = s;
kernLeft = s;
kernRight = s;
lastChange = "2023-01-20 01:07:40 +0000";
layers = (
{
anchors = (
{
name = bottom;
pos = (213,0);
},
{
name = top;
pos = (301,496);
}
);
hints = (
{
horizontal = 1;
place = (-12, 71);
place = (-12, 71);
type = Stem;
},
{
horizontal = 1;
place = (437, 71);
place = (437, 71);
type = Stem;
},
{
place = (84, 87);
place = (84, 87);
type = Stem;
},
{
place = (346, 88);
place = (346, 88);
type = Stem;
}
);
layerId = m01;
shapes = (
{
closed = 1;
nodes = (
(347.568,-12,o),
(434,58.07,o),
(434,159,cs),
(434,249,o),
(345,277,o),
(276,292,cs),
(212,307,o),
(171,323,o),
(171,363,cs),
(171,404.333,o),
(214.667,437,o),
(276,437,cs),
(337.333,437,o),
(373.667,405.333,o),
(371,356,c),
(455,356,l),
(460.333,453.333,o),
(390.333,508,o),
(285,508,cs),
(169.727,508,o),
(84,440.477,o),
(84,350,cs),
(84,296.667,o),
(119.333,262.833,o),
(166,243.5,cs),
(189.333,233.833,o),
(213.333,226.333,o),
(238,221,cs),
(303.333,207.667,o),
(346,192,o),
(346,148,cs),
(346,92,o),
(299.667,59,o),
(229,59,cs),
(142.333,59,o),
(109.333,108,o),
(112,164,c),
(27,164,l),
(17.667,56,o),
(93,-12,o),
(217,-12,cs)
);
}
);
width = 504;
},
{
anchors = (
{
name = bottom;
pos = (213,0);
},
{
name = top;
pos = (301,496);
}
);
hints = (
{
horizontal = 1;
place = (-22, 88);
place = (-22, 88);
type = Stem;
},
{
horizontal = 1;
place = (400, 88);
place = (400, 88);
type = Stem;
},
{
place = (66, 117);
place = (66, 117);
type = Stem;
},
{
place = (325, 121);
place = (325, 121);
type = Stem;
},
{
horizontal = 1;
place = (342, 146);
place = (342, 146);
type = Stem;
}
);
layerId = "C673E357-C9AB-4A21-92F5-E812FFC50395";
shapes = (
{
closed = 1;
nodes = (
(362.097,-12,o),
(458,61.751,o),
(458,166,cs),
(458,245.858,o),
(386.648,278.614,o),
(291,301,cs),
(233.667,314.333,o),
(195,326.667,o),
(195,356,cs),
(195,386.667,o),
(228,410,o),
(276,410,cs),
(322.667,410,o),
(353.667,386.667,o),
(355,352,c),
(478,352,l),
(480.667,448,o),
(407.333,508,o),
(290,508,cs),
(161.182,508,o),
(68,438.7,o),
(68,342,cs),
(68,287,o),
(106,254,o),
(158,233,cs),
(184,222,o),
(211,214,o),
(238,207,cs),
(290,195,o),
(327,183.333,o),
(327,150,cs),
(327,112.667,o),
(294,86,o),
(238,86,cs),
(174,86,o),
(141.667,118.333,o),
(143,165,c),
(15,165,l),
(6.918,61.953,o),
(88.489,-12,o),
(222,-12,cs)
);
}
);
width = 513;
}
);
note = s;
unicode = 115;
},
{
glyphname = saltillo;
lastChange = "2023-01-07 01:41:50 +0000";
layers = (
{
hints = (
{
horizontal = 1;
place = (-56, 668);
place = (-56, 668);
type = Stem;
},
{
place = (41, 79);
place = (41, 79);
type = Stem;
}
);
layerId = "C673E357-C9AB-4A21-92F5-E812FFC50395";
shapes = (
{
closed = 1;
nodes = (
(191,330,l),
(277,700,l),
(140,700,l),
(93,330,l)
);
}
);
width = 257;
},
{
hints = (
{
horizontal = 1;
place = (-49, 70);
place = (-49, 70);
type = Stem;
},
{
place = (38, 37);
place = (38, 37);
type = Stem;
},
{
place = (23, 71);
place = (23, 71);
type = Stem;
}
);
layerId = m01;
shapes = (
{
closed = 1;
nodes = (
(157,339,l),
(236,700,l),
(145,700,l),
(96,339,l)
);
}
);
width = 221;
},
{
associatedMasterId = m01;
hints = (
{
horizontal = 1;
place = (-61, 1067);
place = (-61, 1067);
type = Stem;
},
{
place = (43, 106);
place = (43, 106);
type = Stem;
}
);
layerId = "E93BD6B3-FA9D-4EFB-B4A0-6094DEE674CC";
name = ExtraBold;
shapes = (
{
closed = 1;
nodes = (
(212,318,l),
(303,700,l),
(135,700,l),
(89,318,l)
);
}
);
width = 279;
}
);
note = exclam;
unicode = 42892;
},
{
glyphname = germandbls;
lastChange = "2023-01-07 01:40:39 +0000";
layers = (
{
background = {
hints = (
{
horizontal = 1;
place = (-10, 66);
place = (-10, 66);
type = Stem;
},
{
horizontal = 1;
place = (661, 71);
place = (661, 71);
type = Stem;
},
{
place = (223, 84);
place = (223, 84);
type = Stem;
},
{
place = (524, 86);
place = (524, 86);
type = Stem;
},
{
horizontal = 1;
place = (0, 169);
place = (0, 169);
type = Stem;
},
{
place = (311, 87);
place = (311, 87);
type = Stem;
},
{
place = (491, 86);
place = (491, 86);
type = Stem;
}
);
shapes = (
{
closed = 1;
nodes = (
(521.121,-10,o),
(610,65.359,o),
(610,172,cs),
(610,240,o),
(577.667,279,o),
(499,307,cs),
(458.333,321,o),
(431.333,333,o),
(418,343,cs),
(404.667,353,o),
(398,364.333,o),
(398,377,cs),
(398,417.404,o),
(461.862,439.845,o),
(514,477.5,cs),
(550,503.5,o),
(577,538.333,o),
(577,593,cs),
(577,670.333,o),
(512.333,732,o),
(387,732,cs),
(235.826,732,o),
(140.525,645.202,o),
(120,520,cs),
(27,0,l),
(111,0,l),
(202,512,ls),
(219.333,604,o),
(272.667,661,o),
(374,661,cs),
(448.667,661,o),
(491,629,o),
(491,581,cs),
(491,538.333,o),
(462.833,511.5,o),
(427.5,489.5,cs),
(409.833,478.5,o),
(392,467.167,o),
(374,455.5,cs),
(338,432.167,o),
(311,404,o),
(311,360,cs),
(311,306.667,o),
(350,278,o),
(438,246,cs),
(499.333,224.667,o),
(524,200.333,o),
(524,163,cs),
(524,97.667,o),
(476.333,56,o),
(407,56,cs),
(337.667,56,o),
(300.333,101,o),
(307,169,c),
(223,169,l),
(213.667,61,o),
(281,-10,o),
(397,-10,cs)
);
}
);
};
hints = (
{
horizontal = 1;
place = (-10, 66);
place = (-10, 66);
type = Stem;
},
{
horizontal = 1;
place = (661, 71);
place = (661, 71);
type = Stem;
},
{
place = (223, 84);
place = (223, 84);
type = Stem;
},
{
place = (524, 86);
place = (524, 86);
type = Stem;
},
{
horizontal = 1;
place = (0, 169);
place = (0, 169);
type = Stem;
},
{
place = (311, 87);
place = (311, 87);
type = Stem;
},
{
place = (491, 86);
place = (491, 86);
type = Stem;
}
);
layerId = m01;
shapes = (
{
closed = 1;
nodes = (
(521.121,-10,o),
(610,65.359,o),
(610,172,cs),
(610,240,o),
(577.667,279,o),
(499,307,cs),
(463,319,o),
(398,339,o),
(398,377,cs),
(398,417.404,o),
(461.862,439.845,o),
(514,477.5,cs),
(550,503.5,o),
(577,538.333,o),
(577,593,cs),
(577,670.333,o),
(512.333,732,o),
(387,732,cs),
(235.826,732,o),
(142,645,o),
(120,520,cs),
(27,0,l),
(111,0,l),
(202,512,ls),
(218,604,o),
(272.667,661,o),
(374,661,cs),
(448.667,661,o),
(491,629,o),
(491,581,cs),
(491,524,o),
(441,496,o),
(385,463,cs),
(338,435,o),
(311,404,o),
(311,360,cs),
(311,306.667,o),
(350,278,o),
(438,246,cs),
(499.333,224.667,o),
(524,200.333,o),
(524,163,cs),
(524,97.667,o),
(476.333,56,o),
(407,56,cs),
(337.667,56,o),
(300.333,101,o),
(307,169,c),
(223,169,l),
(213.667,61,o),
(281,-10,o),
(397,-10,cs)
);
}
);
width = 669;
},
{
hints = (
{
horizontal = 1;
place = (-20, 85);
place = (-20, 85);
type = Stem;
},
{
horizontal = 1;
place = (615, 97);
place = (615, 97);
type = Stem;
},
{
place = (229, 111);
place = (229, 111);
type = Stem;
},
{
place = (521, 118);
place = (521, 118);
type = Stem;
},
{
place = (311, 122);
place = (311, 122);
type = Stem;
},
{
horizontal = 1;
place = (-10, 165);
place = (-10, 165);
type = Stem;
},
{
place = (471, 122);
place = (471, 122);
type = Stem;
}
);
layerId = "C673E357-C9AB-4A21-92F5-E812FFC50395";
shapes = (
{
closed = 1;
nodes = (
(558.005,-10,o),
(649,71.101,o),
(649,180,cs),
(649,252,o),
(615,290.333,o),
(535,321,cs),
(466.756,345.498,o),
(443,358.633,o),
(443,382,cs),
(443,419.106,o),
(500.275,438.11,o),
(546.5,474.5,cs),
(577.833,499.167,o),
(603,532,o),
(603,580,cs),
(603,664.133,o),
(521.932,732,o),
(391,732,cs),
(213.253,732,o),
(121,630,o),
(99,509,cs),
(9,0,l),
(137,0,l),
(225,499,ls),
(240,578,o),
(286.333,625,o),
(373,625,cs),
(435.667,625,o),
(471,600.333,o),
(471,559,cs),
(471,509,o),
(418,483,o),
(367,447,cs),
(335,424,o),
(311,396.333,o),
(311,355,cs),
(311,301.667,o),
(351.333,270,o),
(442,238,cs),
(500.667,215.333,o),
(521,195.667,o),
(521,165,cs),
(521,115.667,o),
(484.667,85,o),
(430,85,cs),
(375.333,85,o),
(346,120.333,o),
(350,175,c),
(229,175,l),
(221,61.667,o),
(292.333,-10,o),
(419,-10,cs)
);
}
);
width = 690;
}
);
note = germandbls;
unicode = 223;
},
{
glyphname = t;
kernLeft = t;
kernRight = t;
lastChange = "2023-01-07 01:40:39 +0000";
layers = (
{
anchors = (
{
name = bottom;
pos = (160,0);
},
{
name = center;
pos = (185,248);
},
{
name = top;
pos = (229,496);
},
{
name = topright;
pos = (349,992);
}
);
hints = (
{
horizontal = 1;
place = (0, 72);
place = (0, 72);
type = Stem;
},
{
horizontal = 1;
place = (425, 71);
place = (425, 71);
type = Stem;
},
{
place = (75, 86);
place = (75, 86);
type = Stem;
}
);
layerId = m01;
shapes = (
{
closed = 1;
nodes = (
(283,0,l),
(296,72,l),
(231,72,ls),
(182,72,o),
(161,85,o),
(161,126,cs),
(161,134,o),
(162,143,o),
(163,154,c),
(212,425,l),
(358,425,l),
(371,496,l),
(224,496,l),
(246,615,l),
(161,615,l),
(140,496,l),
(63,496,l),
(50,425,l),
(127,425,l),
(79,154,ls),
(76,137,o),
(75,121,o),
(75,108,cs),
(75,29,o),
(122,0,o),
(205,0,cs)
);
}
);
width = 370;
},
{
anchors = (
{
name = bottom;
pos = (189,0);
},
{
name = center;
pos = (196,248);
},
{
name = top;
pos = (240,496);
},
{
name = topright;
pos = (393,992);
}
);
hints = (
{
horizontal = 1;
place = (-10, 99);
place = (-10, 99);
type = Stem;
},
{
horizontal = 1;
place = (379, 97);
place = (379, 97);
type = Stem;
},
{
place = (75, 121);
place = (75, 121);
type = Stem;
}
);
layerId = "C673E357-C9AB-4A21-92F5-E812FFC50395";
shapes = (
{
closed = 1;
nodes = (
(312,0,l),
(332,109,l),
(264,109,ls),
(223,109,o),
(206,121,o),
(206,153,cs),
(206,160,o),
(207,166,o),
(208,173,cs),
(247,389,l),
(380,389,l),
(400,496,l),
(265,496,l),
(287,617,l),
(158,617,l),
(137,496,l),
(57,496,l),
(38,389,l),
(118,389,l),
(80,174,ls),
(77,156,o),
(75,140,o),
(75,125,cs),
(75,33,o),
(133,0,o),
(224,0,cs)
);
}
);
width = 392;
}
);
note = t;
unicode = 116;
},
{
glyphname = u;
kernLeft = u;
kernRight = dotlessi;
lastChange = "2023-01-07 01:40:39 +0000";
layers = (
{
anchors = (
{
name = bottom;
pos = (243,0);
},
{
name = ogonek;
pos = (460,0);
},
{
name = top;
pos = (331,496);
},
{
name = topright;
pos = (597,496);
}
);
background = {
hints = (
{
horizontal = 1;
place = (-12, 72);
place = (-12, 72);
type = Stem;
},
{
place = (45, 87);
place = (45, 87);
type = Stem;
},
{
horizontal = 1;
place = (0, 60);
place = (0, 60);
type = Stem;
}
);
shapes = (
{
closed = 1;
nodes = (
(281,-12,o),
(351,26,o),
(394,90,c),
(384,0,l),
(460,0,l),
(547,496,l),
(463,496,l),
(416,230,ls),
(393,121,o),
(321,60,o),
(237,60,cs),
(167,60,o),
(132,96,o),
(132,167,cs),
(132,182,o),
(134,198,o),
(137,215,cs),
(186,496,l),
(102,496,l),
(51,206,ls),
(47,186,o),
(45,167,o),
(45,148,cs),
(45,45,o),
(106,-12,o),
(205,-12,cs)
);
}
);
};
hints = (
{
horizontal = 1;
place = (-12, 72);
place = (-12, 72);
type = Stem;
},
{
place = (45, 87);
place = (45, 87);
type = Stem;
},
{
horizontal = 1;
place = (0, 60);
place = (0, 60);
type = Stem;
}
);
layerId = m01;
shapes = (
{
closed = 1;
nodes = (
(281,-12,o),
(351,26,o),
(394,90,c),
(384,0,l),
(460,0,l),
(547,496,l),
(463,496,l),
(416,230,ls),
(397,120,o),
(321,60,o),
(237,60,cs),
(167,60,o),
(132,96,o),
(132,167,cs),
(132,182,o),
(134,198,o),
(137,215,cs),
(186,496,l),
(102,496,l),
(51,206,ls),
(47,186,o),
(45,167,o),
(45,148,cs),
(45,45,o),
(106,-12,o),
(205,-12,cs)
);
}
);
width = 573;
},
{
anchors = (
{
name = bottom;
pos = (251,0);
},
{
name = ogonek;
pos = (490,0);
},
{
name = top;
pos = (339,496);
},
{
name = topright;
pos = (613,496);
}
);
hints = (
{
horizontal = 1;
place = (-22, 98);
place = (-22, 98);
type = Stem;
},
{
place = (35, 122);
place = (35, 122);
type = Stem;
},
{
horizontal = 1;
place = (-10, 86);
place = (-10, 86);
type = Stem;
}
);
layerId = "C673E357-C9AB-4A21-92F5-E812FFC50395";
shapes = (
{
closed = 1;
nodes = (
(274,-12,o),
(339,25,o),
(380,82,c),
(377,0,l),
(490,0,l),
(577,496,l),
(449,496,l),
(403,236,ls),
(388,149,o),
(327,96,o),
(256,96,cs),
(197,96,o),
(167,126,o),
(167,186,cs),
(167,196,o),
(169,218,o),
(171,228,cs),
(219,496,l),
(91,496,l),
(41,216,ls),
(37,193,o),
(35,172,o),
(35,153,cs),
(35,46,o),
(94,-12,o),
(197,-12,cs)
);
}
);
width = 589;
}
);
note = u;
unicode = 117;
},
{
glyphname = v;
lastChange = "2023-01-07 01:40:39 +0000";
layers = (
{
hints = (
{
horizontal = 1;
place = (0, 496);
place = (0, 496);
type = Stem;
},
{
place = (63, 491);
place = (63, 491);
type = Stem;
}
);
layerId = m01;
shapes = (
{
closed = 1;
nodes = (
(270,0,l),
(554,496,l),
(465,496,l),
(235,80,l),
(150,496,l),
(63,496,l),
(171,0,l)
);
}
);
width = 530;
},
{
hints = (
{
horizontal = 1;
place = (-10, 486);
place = (-10, 486);
type = Stem;
},
{
place = (52, 518);
place = (52, 518);
type = Stem;
}
);
layerId = "C673E357-C9AB-4A21-92F5-E812FFC50395";
shapes = (
{
closed = 1;
nodes = (
(306,0,l),
(580,496,l),
(444,496,l),
(249,120,l),
(185,496,l),
(52,496,l),
(149,0,l)
);
}
);
width = 543;
}
);
note = v;
unicode = 118;
},
{
glyphname = w;
kernLeft = w;
kernRight = w;
lastChange = "2023-01-07 01:40:39 +0000";
layers = (
{
anchors = (
{
name = bottom;
pos = (329,0);
},
{
name = top;
pos = (417,496);
}
);
hints = (
{
horizontal = 1;
place = (0, 496);
place = (0, 496);
type = Stem;
},
{
place = (63, 706);
place = (63, 706);
type = Stem;
}
);
layerId = m01;
shapes = (
{
closed = 1;
nodes = (
(207,0,l),
(401,409,l),
(451,0,l),
(537,0,l),
(769,496,l),
(685,496,l),
(511,107,l),
(464,496,l),
(369,496,l),
(184,107,l),
(148,496,l),
(63,496,l),
(122,0,l)
);
}
);
width = 745;
},
{
anchors = (
{
name = bottom;
pos = (348,0);
},
{
name = top;
pos = (436,496);
}
);
hints = (
{
horizontal = 1;
place = (-10, 486);
place = (-10, 486);
type = Stem;
},
{
place = (52, 758);
place = (52, 758);
type = Stem;
}
);
layerId = "C673E357-C9AB-4A21-92F5-E812FFC50395";
shapes = (
{
closed = 1;
nodes = (
(243,0,l),
(414,371,l),
(455,0,l),
(588,0,l),
(820,496,l),
(694,496,l),
(544,138,l),
(507,496,l),
(365,496,l),
(202,139,l),
(178,496,l),
(52,496,l),
(110,0,l)
);
}
);
width = 784;
}
);
note = w;
unicode = 119;
},
{
glyphname = x;
lastChange = "2023-01-07 01:40:39 +0000";
layers = (
{
hints = (
{
horizontal = 1;
place = (0, 496);
place = (0, 496);
type = Stem;
},
{
place = (-24, 547);
place = (-24, 547);
type = Stem;
}
);
layerId = m01;
shapes = (
{
closed = 1;
nodes = (
(67,0,l),
(242,205,l),
(346,0,l),
(432,0,l),
(306,245,l),
(523,496,l),
(433,496,l),
(258,291,l),
(154,496,l),
(67,496,l),
(194,251,l),
(-24,0,l)
);
}
);
width = 499;
},
{
hints = (
{
horizontal = 1;
place = (-10, 486);
place = (-10, 486);
type = Stem;
},
{
place = (-35, 603);
place = (-35, 603);
type = Stem;
}
);
layerId = "C673E357-C9AB-4A21-92F5-E812FFC50395";
shapes = (
{
closed = 1;
nodes = (
(102,0,l),
(259,176,l),
(353,0,l),
(489,0,l),
(353,247,l),
(578,496,l),
(440,496,l),
(284,320,l),
(189,496,l),
(53,496,l),
(190,249,l),
(-35,0,l)
);
}
);
width = 542;
}
);
note = x;
unicode = 120;
},
{
glyphname = y;
kernLeft = y;
kernRight = y;
lastChange = "2023-01-07 01:40:39 +0000";
layers = (
{
anchors = (
{
name = bottom;
pos = (234,0);
},
{
name = top;
pos = (322,496);
}
);
hints = (
{
horizontal = 1;
place = (-220, 716);
place = (-220, 716);
type = Stem;
},
{
place = (41, 539);
place = (41, 539);
type = Stem;
}
);
layerId = m01;
shapes = (
{
closed = 1;
nodes = (
(129,-220,l),
(580,496,l),
(492,496,l),
(251,110,l),
(152,496,l),
(63,496,l),
(192,19,l),
(41,-220,l)
);
}
);
width = 555;
},
{
anchors = (
{
name = bottom;
pos = (242,0);
},
{
name = top;
pos = (330,496);
}
);
hints = (
{
horizontal = 1;
place = (-230, 706);
place = (-230, 706);
type = Stem;
},
{
place = (33, 567);
place = (33, 567);
type = Stem;
}
);
layerId = "C673E357-C9AB-4A21-92F5-E812FFC50395";
shapes = (
{
closed = 1;
nodes = (
(169,-220,l),
(610,496,l),
(474,496,l),
(268,147,l),
(188,496,l),
(51,496,l),
(175,6,l),
(33,-220,l)
);
}
);
width = 572;
}
);
note = y;
unicode = 121;
},
{
glyphname = z;
kernLeft = z;
lastChange = "2023-01-20 01:02:36 +0000";
layers = (
{
anchors = (
{
name = bottom;
pos = (193,0);
},
{
name = center;
pos = (237,248);
},
{
name = top;
pos = (281,496);
}
);
hints = (
{
horizontal = 1;
place = (0, 70);
place = (0, 70);
type = Stem;
},
{
horizontal = 1;
place = (426, 70);
place = (426, 70);
type = Stem;
},
{
place = (-14, 470);
place = (-14, 470);
type = Stem;
}
);
layerId = m01;
shapes = (
{
closed = 1;
nodes = (
(371,0,l),
(384,70,l),
(104,70,l),
(453,427,l),
(466,496,l),
(100,496,l),
(87,426,l),
(357,426,l),
(9,69,l),
(-4,0,l)
);
}
);
width = 464;
},
{
anchors = (
{
name = bottom;
pos = (192,0);
},
{
name = center;
pos = (236,248);
},
{
name = top;
pos = (280,496);
}
);
hints = (
{
horizontal = 1;
place = (-10, 96);
place = (-10, 96);
type = Stem;
},
{
horizontal = 1;
place = (380, 96);
place = (380, 96);
type = Stem;
},
{
place = (-24, 487);
place = (-24, 487);
type = Stem;
}
);
layerId = "C673E357-C9AB-4A21-92F5-E812FFC50395";
shapes = (
{
closed = 1;
nodes = (
(385,0,l),
(405,106,l),
(144,106,l),
(459,393,l),
(478,496,l),
(82,496,l),
(63,390,l),
(313,390,l),
(0,103,l),
(-19,0,l)
);
}
);
width = 466;
}
);
note = z;
unicode = 122;
},
{
glyphname = fi;
lastChange = "2023-01-07 01:40:39 +0000";
layers = (
{
hints = (
{
horizontal = 1;
place = (425, 71);
place = (425, 71);
type = Stem;
},
{
horizontal = 1;
place = (648, 72);
place = (648, 72);
type = Stem;
},
{
place = (462, 116);
place = (462, 116);
type = Stem;
},
{
horizontal = 1;
place = (606, 114);
place = (606, 114);
type = Stem;
}
);
layerId = m01;
shapes = (
{
closed = 1;
nodes = (
(136,0,l),
(211,425,l),
(333,425,l),
(346,496,l),
(223,496,l),
(235,560,ls),
(244,609,o),
(267,628,o),
(318,628,cs),
(354,628,l),
(367,700,l),
(318,700,ls),
(225,700,o),
(168,658,o),
(151,562,cs),
(139,496,l),
(65,496,l),
(53,425,l),
(127,425,l),
(52,0,l)
);
},
{
closed = 1;
nodes = (
(444,0,l),
(531,496,l),
(447,496,l),
(360,0,l)
);
},
{
closed = 1;
nodes = (
(551,606,o),
(577,630,o),
(577,663,cs),
(577,696,o),
(551,720,o),
(519,720,cs),
(486,720,o),
(461,696,o),
(461,663,cs),
(461,630,o),
(486,606,o),
(519,606,cs)
);
}
);
width = 568;
},
{
hints = (
{
horizontal = 1;
place = (379, 97);
place = (379, 97);
type = Stem;
},
{
horizontal = 1;
place = (561, 140);
place = (561, 140);
type = Stem;
},
{
place = (454, 150);
place = (454, 150);
type = Stem;
},
{
horizontal = 1;
place = (601, 99);
place = (601, 99);
type = Stem;
}
);
layerId = "C673E357-C9AB-4A21-92F5-E812FFC50395";
shapes = (
{
closed = 1;
nodes = (
(168,0,l),
(237,389,l),
(326,389,l),
(344,496,l),
(255,496,l),
(262,534,ls),
(270,575,o),
(289,591,o),
(333,591,cs),
(355,591,l),
(374,700,l),
(332,700,ls),
(228,700,o),
(156,654,o),
(134,534,cs),
(127,496,l),
(69,496,l),
(51,389,l),
(109,389,l),
(40,0,l)
);
},
{
closed = 1;
nodes = (
(475,0,l),
(562,496,l),
(434,496,l),
(347,0,l)
);
},
{
closed = 1;
nodes = (
(569,566,o),
(605,602,o),
(605,646,cs),
(605,691,o),
(569,726,o),
(525,726,cs),
(481,726,o),
(445,691,o),
(445,646,cs),
(445,602,o),
(481,566,o),
(525,566,cs)
);
}
);
width = 581;
}
);
note = fi;
unicode = 64257;
},
{
glyphname = fl;
lastChange = "2023-01-19 01:05:50 +0000";
layers = (
{
hints = (
{
horizontal = 1;
place = (425, 71);
place = (425, 71);
type = Stem;
},
{
horizontal = 1;
place = (648, 72);
place = (648, 72);
type = Stem;
},
{
place = (52, 519);
place = (52, 519);
type = Stem;
}
);
layerId = m01;
shapes = (
{
closed = 1;
nodes = (
(136,0,l),
(211,425,l),
(333,425,l),
(346,496,l),
(223,496,l),
(235,560,ls),
(244,609,o),
(267,628,o),
(318,628,cs),
(354,628,l),
(367,700,l),
(318,700,ls),
(225,700,o),
(168,658,o),
(151,562,cs),
(139,496,l),
(65,496,l),
(53,425,l),
(127,425,l),
(52,0,l)
);
},
{
closed = 1;
nodes = (
(443,0,l),
(567,700,l),
(483,700,l),
(359,0,l)
);
}
);
width = 557;
},
{
hints = (
{
horizontal = 1;
place = (379, 97);
place = (379, 97);
type = Stem;
},
{
horizontal = 1;
place = (601, 99);
place = (601, 99);
type = Stem;
},
{
place = (35, 583);
place = (35, 583);
type = Stem;
}
);
layerId = "C673E357-C9AB-4A21-92F5-E812FFC50395";
shapes = (
{
closed = 1;
nodes = (
(168,0,l),
(237,389,l),
(326,389,l),
(344,496,l),
(255,496,l),
(262,534,ls),
(270,575,o),
(289,591,o),
(333,591,cs),
(355,591,l),
(374,700,l),
(332,700,ls),
(228,700,o),
(156,654,o),
(134,534,cs),
(127,496,l),
(69,496,l),
(51,389,l),
(109,389,l),
(40,0,l)
);
},
{
closed = 1;
nodes = (
(475,0,l),
(599,700,l),
(471,700,l),
(347,0,l)
);
}
);
width = 576;
}
);
note = fl;
unicode = 64258;
},
{
glyphname = ordfeminine;
lastChange = "2023-01-07 01:40:39 +0000";
layers = (
{
background = {
hints = (
{
horizontal = 1;
place = (350, 53);
place = (350, 53);
type = Stem;
},
{
horizontal = 1;
place = (659, 53);
place = (659, 53);
type = Stem;
},
{
place = (74, 69);
place = (74, 69);
type = Stem;
}
);
shapes = (
{
closed = 1;
nodes = (
(256,347,o),
(302,377,o),
(332,417,c),
(335,372,o),
(367,355,o),
(413,355,c),
(422,407,l),
(398,409,o),
(391,418,o),
(391,436,cs),
(391,443,o),
(392,452,o),
(394,462,cs),
(413,568,ls),
(415,580,o),
(416,591,o),
(416,602,cs),
(416,665,o),
(380,710,o),
(292,710,cs),
(219,710,o),
(141,669,o),
(121,593,c),
(181,593,l),
(198,637,o),
(238,660,o),
(283,660,cs),
(325,660,o),
(356,641,o),
(356,593,cs),
(356,585,o),
(356,577,o),
(354,568,cs),
(353,564,l),
(260,564,ls),
(180,564,o),
(104,534,o),
(90,454,cs),
(89,446,o),
(88,439,o),
(88,432,cs),
(88,376,o),
(135,347,o),
(199,347,cs)
);
},
{
closed = 1;
nodes = (
(180,396,o),
(150,411,o),
(150,445,cs),
(150,448,o),
(150,452,o),
(151,456,cs),
(160,505,o),
(208,518,o),
(257,518,cs),
(345,518,l),
(334,458,o),
(287,396,o),
(217,396,cs)
);
}
);
};
hints = (
{
horizontal = 1;
place = (350, 53);
place = (350, 53);
type = Stem;
},
{
horizontal = 1;
place = (659, 53);
place = (659, 53);
type = Stem;
},
{
place = (74, 69);
place = (74, 69);
type = Stem;
}
);
layerId = m01;
shapes = (
{
closed = 1;
nodes = (
(256,347,o),
(302,377,o),
(332,417,c),
(335,372,o),
(367,355,o),
(413,355,c),
(422,407,l),
(398,409,o),
(391,418,o),
(391,436,cs),
(391,443,o),
(392,452,o),
(394,462,cs),
(413,568,ls),
(415,580,o),
(416,591,o),
(416,602,cs),
(416,665,o),
(380,710,o),
(292,710,cs),
(219,710,o),
(141,669,o),
(121,593,c),
(181,593,l),
(198,637,o),
(238,660,o),
(283,660,cs),
(325,660,o),
(356,641,o),
(356,593,cs),
(356,585,o),
(356,577,o),
(353,564,c),
(260,564,ls),
(136,564,o),
(88,497,o),
(88,432,cs),
(88,376,o),
(135,347,o),
(199,347,cs)
);
},
{
closed = 1;
nodes = (
(180,396,o),
(150,411,o),
(150,445,cs),
(150,481,o),
(176,518,o),
(257,518,cs),
(345,518,l),
(334,458,o),
(287,396,o),
(217,396,cs)
);
}
);
width = 438;
},
{
background = {
hints = (
{
horizontal = 1;
place = (349, 78);
place = (349, 78);
type = Stem;
},
{
horizontal = 1;
place = (634, 77);
place = (634, 77);
type = Stem;
},
{
place = (69, 102);
place = (69, 102);
type = Stem;
},
{
horizontal = 1;
place = (355, 72);
place = (355, 72);
type = Stem;
}
);
shapes = (
{
closed = 1;
nodes = (
(212,347,o),
(257,367,o),
(290,406,c),
(301,371,o),
(332,354,o),
(383,354,cs),
(398,354,l),
(411,429,l),
(389,429,o),
(379,436,o),
(379,451,cs),
(379,454,o),
(379,457,o),
(380,460,cs),
(397,559,ls),
(399,572,o),
(400,583,o),
(400,594,cs),
(400,674,o),
(342,710,o),
(271,710,cs),
(191,710,o),
(124,666,o),
(94,588,c),
(183,588,l),
(197,618,o),
(224,635,o),
(255,635,cs),
(293,635,o),
(309,611,o),
(309,576,cs),
(309,571,o),
(309,566,o),
(308,561,c),
(225,561,ls),
(147,561,o),
(74,530,o),
(60,450,cs),
(59,444,o),
(58,438,o),
(58,432,cs),
(58,376,o),
(107,347,o),
(159,347,cs)
);
},
{
closed = 1;
nodes = (
(172,418,o),
(152,429,o),
(152,452,cs),
(152,490,o),
(189,504,o),
(221,504,cs),
(298,504,l),
(297,501,ls),
(288,451,o),
(243,418,o),
(198,418,cs)
);
}
);
};
hints = (
{
horizontal = 1;
place = (349, 78);
place = (349, 78);
type = Stem;
},
{
horizontal = 1;
place = (634, 77);
place = (634, 77);
type = Stem;
},
{
place = (69, 102);
place = (69, 102);
type = Stem;
},
{
horizontal = 1;
place = (355, 72);
place = (355, 72);
type = Stem;
}
);
layerId = "C673E357-C9AB-4A21-92F5-E812FFC50395";
shapes = (
{
closed = 1;
nodes = (
(212,347,o),
(257,367,o),
(290,406,c),
(301,371,o),
(332,354,o),
(398,354,c),
(411,429,l),
(389,429,o),
(379,436,o),
(379,451,cs),
(379,454,o),
(379,457,o),
(380,460,cs),
(397,559,ls),
(399,572,o),
(400,583,o),
(400,594,cs),
(400,674,o),
(342,710,o),
(271,710,cs),
(191,710,o),
(124,666,o),
(94,588,c),
(183,588,l),
(197,618,o),
(224,635,o),
(255,635,cs),
(293,635,o),
(309,611,o),
(309,576,cs),
(309,571,o),
(309,566,o),
(308,561,c),
(225,561,ls),
(102,561,o),
(58,489,o),
(58,432,cs),
(58,376,o),
(107,347,o),
(159,347,cs)
);
},
{
closed = 1;
nodes = (
(172,418,o),
(152,429,o),
(152,452,cs),
(152,490,o),
(189,504,o),
(221,504,cs),
(298,504,l),
(288,451,o),
(243,418,o),
(198,418,cs)
);
}
);
width = 409;
}
);
note = ordfeminine;
unicode = 170;
},
{
glyphname = ordmasculine;
lastChange = "2023-01-07 01:40:39 +0000";
layers = (
{
background = {
hints = (
{
horizontal = 1;
place = (348, 53);
place = (348, 53);
type = Stem;
},
{
horizontal = 1;
place = (661, 51);
place = (661, 51);
type = Stem;
},
{
place = (74, 68);
place = (74, 68);
type = Stem;
},
{
place = (377, 69);
place = (377, 69);
type = Stem;
}
);
shapes = (
{
closed = 1;
nodes = (
(269,348,o),
(306,358,o),
(339,378,cs),
(405,417,o),
(446,487,o),
(446,567,cs),
(446,655,o),
(383,712,o),
(290,712,cs),
(250,712,o),
(214,702,o),
(181,683,cs),
(116,643,o),
(74,574,o),
(74,494,cs),
(74,406,o),
(136,348,o),
(229,348,cs)
);
},
{
closed = 1;
nodes = (
(182,401,o),
(142,435,o),
(142,500,cs),
(142,527,o),
(148,552,o),
(160,577,cs),
(183,626,o),
(225,661,o),
(282,661,cs),
(335,661,o),
(377,627,o),
(377,562,cs),
(377,533,o),
(371,507,o),
(360,482,cs),
(336,433,o),
(293,401,o),
(237,401,cs)
);
}
);
};
hints = (
{
horizontal = 1;
place = (348, 53);
place = (348, 53);
type = Stem;
},
{
horizontal = 1;
place = (661, 51);
place = (661, 51);
type = Stem;
},
{
place = (74, 68);
place = (74, 68);
type = Stem;
},
{
place = (377, 69);
place = (377, 69);
type = Stem;
}
);
layerId = m01;
shapes = (
{
closed = 1;
nodes = (
(349,348,o),
(446,444,o),
(446,567,cs),
(446,655,o),
(383,712,o),
(290,712,cs),
(190,712,o),
(74,634,o),
(74,494,cs),
(74,406,o),
(136,348,o),
(229,348,cs)
);
},
{
closed = 1;
nodes = (
(182,401,o),
(142,435,o),
(142,500,cs),
(142,565,o),
(187,661,o),
(282,661,cs),
(335,661,o),
(377,627,o),
(377,562,cs),
(377,489,o),
(333,401,o),
(237,401,cs)
);
}
);
width = 433;
},
{
background = {
hints = (
{
horizontal = 1;
place = (349, 76);
place = (349, 76);
type = Stem;
},
{
horizontal = 1;
place = (638, 74);
place = (638, 74);
type = Stem;
},
{
place = (69, 101);
place = (69, 101);
type = Stem;
},
{
place = (361, 101);
place = (361, 101);
type = Stem;
}
);
shapes = (
{
closed = 1;
nodes = (
(276,349,o),
(314,359,o),
(349,378,cs),
(418,417,o),
(462,485,o),
(462,566,cs),
(462,654,o),
(397,712,o),
(296,712,cs),
(254,712,o),
(216,703,o),
(182,684,cs),
(113,646,o),
(69,577,o),
(69,496,cs),
(69,408,o),
(133,349,o),
(234,349,cs)
);
},
{
closed = 1;
nodes = (
(203,425,o),
(170,452,o),
(170,505,cs),
(170,573,o),
(214,638,o),
(283,638,cs),
(327,638,o),
(361,611,o),
(361,556,cs),
(361,487,o),
(316,425,o),
(247,425,cs)
);
}
);
};
hints = (
{
horizontal = 1;
place = (349, 76);
place = (349, 76);
type = Stem;
},
{
horizontal = 1;
place = (638, 74);
place = (638, 74);
type = Stem;
},
{
place = (69, 101);
place = (69, 101);
type = Stem;
},
{
place = (361, 101);
place = (361, 101);
type = Stem;
}
);
layerId = "C673E357-C9AB-4A21-92F5-E812FFC50395";
shapes = (
{
closed = 1;
nodes = (
(343,349,o),
(462,429,o),
(462,566,cs),
(462,654,o),
(397,712,o),
(296,712,cs),
(192,712,o),
(69,639,o),
(69,496,cs),
(69,408,o),
(133,349,o),
(234,349,cs)
);
},
{
closed = 1;
nodes = (
(203,425,o),
(170,452,o),
(170,505,cs),
(170,573,o),
(214,638,o),
(283,638,cs),
(327,638,o),
(361,611,o),
(361,556,cs),
(361,487,o),
(316,425,o),
(247,425,cs)
);
}
);
width = 446;
}
);
note = ordmasculine;
unicode = 186;
},
{
glyphname = "Ya-cy";
lastChange = "2023-01-19 01:04:55 +0000";
layers = (
{
layerId = m01;
shapes = (
{
closed = 1;
nodes = (
(77,0,l),
(312,310,l),
(428,310,l),
(373,0,l),
(457,0,l),
(581,700,l),
(374,700,l),
(210,700,o),
(101,624,o),
(101,475,cs),
(101,393,o),
(151,341,o),
(232,326,c),
(-27,0,l)
);
},
{
closed = 1;
nodes = (
(224,381,o),
(188,423,o),
(188,483,cs),
(188,586,o),
(243,630,o),
(363,630,c),
(484,630,l),
(440,381,l),
(319,381,l)
);
}
);
width = 575;
},
{
layerId = "C673E357-C9AB-4A21-92F5-E812FFC50395";
shapes = (
{
closed = 1;
nodes = (
(122,0,l),
(346,295,l),
(424,295,l),
(372,0,l),
(500,0,l),
(624,700,l),
(381,700,ls),
(220,700,o),
(101,616,o),
(101,470,cs),
(101,394,o),
(147,335,o),
(222,316,c),
(-29,0,l)
);
},
{
closed = 1;
nodes = (
(257,404,o),
(233,445,o),
(233,486,cs),
(233,556,o),
(272,591,o),
(364,591,cs),
(476,591,l),
(444,404,l),
(332,404,ls)
);
}
);
width = 612;
}
);
unicode = 1071;
},
{
glyphname = Delta;
lastChange = "2023-01-09 23:18:21 +0000";
layers = (
{
hints = (
{
horizontal = 1;
place = (-62, 3);
place = (-62, 3);
type = Stem;
},
{
place = (-32, 573);
place = (-32, 573);
type = Stem;
}
);
layerId = m01;
shapes = (
{
closed = 1;
nodes = (
(-32,0,l),
(603,0,l),
(615,65,l),
(444,700,l),
(374,700,l),
(-20,65,l)
);
},
{
closed = 1;
nodes = (
(65,65,l),
(392,604,l),
(530,65,l)
);
}
);
width = 695;
},
{
hints = (
{
horizontal = 1;
place = (0, 98);
place = (0, 98);
type = Stem;
},
{
place = (-21, 683);
place = (-21, 683);
type = Stem;
}
);
layerId = "C673E357-C9AB-4A21-92F5-E812FFC50395";
shapes = (
{
closed = 1;
nodes = (
(-21,0,l),
(644,0,l),
(662,98,l),
(488,700,l),
(383,700,l),
(-4,98,l)
);
},
{
closed = 1;
nodes = (
(128,98,l),
(409,555,l),
(531,98,l)
);
}
);
width = 712;
}
);
note = uni2206;
unicode = 916;
},
{
glyphname = pi;
lastChange = "2023-01-07 01:40:39 +0000";
layers = (
{
hints = (
{
horizontal = 1;
place = (430, 66);
place = (430, 66);
type = Stem;
},
{
place = (78, 566);
place = (78, 566);
type = Stem;
}
);
layerId = m01;
shapes = (
{
closed = 1;
nodes = (
(165,0,l),
(242,430,l),
(469,430,l),
(393,0,l),
(477,0,l),
(553,430,l),
(632,430,l),
(644,496,l),
(90,496,l),
(78,430,l),
(158,430,l),
(81,0,l)
);
}
);
width = 646;
},
{
hints = (
{
horizontal = 1;
place = (398, 98);
place = (398, 98);
type = Stem;
},
{
place = (59, 599);
place = (59, 599);
type = Stem;
}
);
layerId = "C673E357-C9AB-4A21-92F5-E812FFC50395";
shapes = (
{
closed = 1;
nodes = (
(191,0,l),
(262,398,l),
(438,398,l),
(367,0,l),
(495,0,l),
(566,398,l),
(640,398,l),
(658,496,l),
(77,496,l),
(59,398,l),
(134,398,l),
(63,0,l)
);
}
);
width = 647;
}
);
note = pi;
unicode = (928,960);
},
